M48
METRIC,LZ,000.000
;FILE_FORMAT=3:3
;TYPE=PLATED
;Layer: PTH_Through
;EasyEDA v6.5.40, 2024-05-12 15:51:58
;49c0d29adba348579b594a98eefbc0f5,633559c1653544b899bb7edc1c986e09,10
;Gerber Generator version 0.2
;Holesize 1 = 0.889 mm
T01C0.889
;Holesize 2 = 1.000 mm
T02C1.000
;Holesize 3 = 1.016 mm
T03C1.016
;Holesize 4 = 1.103 mm
T04C1.103
%
G05
G90
T01
X052451Y050927
X049911Y050927
X047371Y050927
X044831Y050927
X042291Y050927
X039751Y050927
X037211Y050927
X034671Y050927
X030607Y050927
X028067Y050927
X025527Y050927
X022987Y050927
X020447Y050927
X017907Y050927
X015367Y050927
X012827Y050927
X010287Y050927
X007747Y050927
X052451Y002667
X049911Y002667
X047371Y002667
X044831Y002667
X042291Y002667
X039751Y002667
X016891Y002667
X019431Y002667
X021971Y002667
X024511Y002667
X027051Y002667
X029591Y002667
X032131Y002667
X034671Y002667
T02
X044271Y015357
X041731Y015357
X029031Y015357
X026491Y015357
X039191Y015357
X036651Y015357
X031571Y015357
X034111Y015357
X026491Y007757
X029031Y007757
X031571Y007757
X034111Y007757
X036651Y007757
X039191Y007757
X041731Y007757
X044271Y007757
X021411Y015230
X018871Y015230
X006171Y015230
X003631Y015230
X016331Y015230
X013791Y015230
X008711Y015230
X011251Y015230
X003631Y007630
X006171Y007630
X008711Y007630
X011251Y007630
X013791Y007630
X016331Y007630
X018871Y007630
X021411Y007630
T03
X011557Y022860
X014097Y022860
X016637Y022860
X019177Y022860
X021717Y022860
X024257Y022860
X026797Y022860
X029337Y022860
X031877Y022860
X034417Y022860
X036957Y022860
X039497Y022860
X042037Y022860
X044577Y022860
X044577Y038100
X042037Y038100
T04
X036957Y038100
X034417Y038100
X031877Y038100
X029337Y038100
X026797Y038100
X024257Y038100
X021717Y038100
X019177Y038100
X016637Y038100
X014097Y038100
X011557Y038100
X039497Y038100
M30
