G04 Layer: TopSilkscreenLayer*
G04 EasyEDA v6.5.40, 2024-05-12 15:51:58*
G04 49c0d29adba348579b594a98eefbc0f5,633559c1653544b899bb7edc1c986e09,10*
G04 Gerber Generator version 0.2*
G04 Scale: 100 percent, Rotated: No, Reflected: No *
G04 Dimensions in millimeters *
G04 leading zeros omitted , absolute positions ,4 integer and 5 decimal *
%FSLAX45Y45*%
%MOMM*%

%ADD10C,0.2000*%
%ADD11C,0.1524*%
%ADD12C,0.1500*%
%ADD13C,0.2540*%
%ADD14C,0.2030*%
%ADD15C,0.2032*%
%ADD16C,0.0161*%

%LPD*%
G36*
X1791207Y4699000D02*
G01*
X1791207Y4548886D01*
X1716278Y4548886D01*
X1716278Y4511548D01*
X1791207Y4511548D01*
X1791207Y4473956D01*
X1641348Y4473956D01*
X1641348Y4436618D01*
X1828800Y4436618D01*
X1828800Y4699000D01*
G37*
G36*
X1528826Y4699000D02*
G01*
X1528826Y4661408D01*
X1566418Y4661408D01*
X1566418Y4699000D01*
G37*
G36*
X1303782Y4699000D02*
G01*
X1303782Y4548886D01*
X1341374Y4548886D01*
X1341374Y4586478D01*
X1453896Y4586478D01*
X1453896Y4624070D01*
X1341374Y4624070D01*
X1341374Y4661408D01*
X1453896Y4661408D01*
X1453896Y4699000D01*
G37*
G36*
X1116330Y4699000D02*
G01*
X1116330Y4661408D01*
X1228852Y4661408D01*
X1228852Y4699000D01*
G37*
G36*
X853694Y4699000D02*
G01*
X853694Y4548886D01*
X891286Y4548886D01*
X891286Y4586478D01*
X1003808Y4586478D01*
X1003808Y4624070D01*
X891286Y4624070D01*
X891286Y4661408D01*
X1003808Y4661408D01*
X1003808Y4699000D01*
G37*
G36*
X778764Y4699000D02*
G01*
X778764Y4586478D01*
X741426Y4586478D01*
X741426Y4548886D01*
X778764Y4548886D01*
X778764Y4511548D01*
X816356Y4511548D01*
X816356Y4699000D01*
G37*
G36*
X553720Y4699000D02*
G01*
X553720Y4511548D01*
X591312Y4511548D01*
X591312Y4699000D01*
G37*
G36*
X366268Y4699000D02*
G01*
X366268Y4661408D01*
X478790Y4661408D01*
X478790Y4699000D01*
G37*
G36*
X103885Y4699000D02*
G01*
X103885Y4548886D01*
X141224Y4548886D01*
X141224Y4586478D01*
X253746Y4586478D01*
X253746Y4624070D01*
X141224Y4624070D01*
X141224Y4661408D01*
X253746Y4661408D01*
X253746Y4699000D01*
G37*
G36*
X1566418Y4661408D02*
G01*
X1566418Y4436618D01*
X1603756Y4436618D01*
X1603756Y4661408D01*
G37*
G36*
X1453896Y4661408D02*
G01*
X1453896Y4624070D01*
X1491234Y4624070D01*
X1491234Y4661408D01*
G37*
G36*
X1078738Y4661408D02*
G01*
X1078738Y4624070D01*
X1116330Y4624070D01*
X1116330Y4661408D01*
G37*
G36*
X1228852Y4661408D02*
G01*
X1228852Y4548886D01*
X1266190Y4548886D01*
X1266190Y4661408D01*
G37*
G36*
X1003808Y4661408D02*
G01*
X1003808Y4624070D01*
X1041400Y4624070D01*
X1041400Y4661408D01*
G37*
G36*
X328676Y4661408D02*
G01*
X328676Y4624070D01*
X366268Y4624070D01*
X366268Y4661408D01*
G37*
G36*
X478790Y4661408D02*
G01*
X478790Y4548886D01*
X516382Y4548886D01*
X516382Y4661408D01*
G37*
G36*
X253746Y4661408D02*
G01*
X253746Y4624070D01*
X291338Y4624070D01*
X291338Y4661408D01*
G37*
G36*
X1078738Y4586478D02*
G01*
X1078738Y4548886D01*
X1116330Y4548886D01*
X1116330Y4586478D01*
G37*
G36*
X628904Y4586478D02*
G01*
X628904Y4548886D01*
X666242Y4548886D01*
X666242Y4586478D01*
G37*
G36*
X328676Y4586478D02*
G01*
X328676Y4548886D01*
X366268Y4548886D01*
X366268Y4586478D01*
G37*
G36*
X1341374Y4548886D02*
G01*
X1341374Y4511548D01*
X1453896Y4511548D01*
X1453896Y4548886D01*
G37*
G36*
X1116330Y4548886D02*
G01*
X1116330Y4511548D01*
X1228852Y4511548D01*
X1228852Y4548886D01*
G37*
G36*
X891286Y4548886D02*
G01*
X891286Y4511548D01*
X1003808Y4511548D01*
X1003808Y4548886D01*
G37*
G36*
X666242Y4548886D02*
G01*
X666242Y4511548D01*
X741426Y4511548D01*
X741426Y4548886D01*
G37*
G36*
X366268Y4548886D02*
G01*
X366268Y4511548D01*
X478790Y4511548D01*
X478790Y4548886D01*
G37*
G36*
X141224Y4548886D02*
G01*
X141224Y4511548D01*
X253746Y4511548D01*
X253746Y4548886D01*
G37*
G36*
X553720Y4473956D02*
G01*
X553720Y4436618D01*
X591312Y4436618D01*
X591312Y4473956D01*
G37*
D10*
X5169915Y4597400D02*
G01*
X5313172Y4597400D01*
X5169915Y4597400D02*
G01*
X5169915Y4645152D01*
X5176774Y4665471D01*
X5190490Y4679187D01*
X5203952Y4686045D01*
X5224525Y4692904D01*
X5258561Y4692904D01*
X5279136Y4686045D01*
X5292597Y4679187D01*
X5306313Y4665471D01*
X5313172Y4645152D01*
X5313172Y4597400D01*
X5169915Y4778755D02*
G01*
X5176774Y4758181D01*
X5197093Y4744720D01*
X5231384Y4737862D01*
X5251704Y4737862D01*
X5285740Y4744720D01*
X5306313Y4758181D01*
X5313172Y4778755D01*
X5313172Y4792471D01*
X5306313Y4812792D01*
X5285740Y4826507D01*
X5251704Y4833365D01*
X5231384Y4833365D01*
X5197093Y4826507D01*
X5176774Y4812792D01*
X5169915Y4792471D01*
X5169915Y4778755D01*
X4915915Y4597400D02*
G01*
X5059172Y4597400D01*
X4915915Y4597400D02*
G01*
X4915915Y4645152D01*
X4922774Y4665471D01*
X4936490Y4679187D01*
X4949952Y4686045D01*
X4970525Y4692904D01*
X5004561Y4692904D01*
X5025136Y4686045D01*
X5038597Y4679187D01*
X5052313Y4665471D01*
X5059172Y4645152D01*
X5059172Y4597400D01*
X4943093Y4737862D02*
G01*
X4936490Y4751578D01*
X4915915Y4771897D01*
X5059172Y4771897D01*
X4661915Y4597400D02*
G01*
X4805172Y4597400D01*
X4661915Y4597400D02*
G01*
X4661915Y4645152D01*
X4668774Y4665471D01*
X4682490Y4679187D01*
X4695952Y4686045D01*
X4716525Y4692904D01*
X4750561Y4692904D01*
X4771136Y4686045D01*
X4784597Y4679187D01*
X4798313Y4665471D01*
X4805172Y4645152D01*
X4805172Y4597400D01*
X4695952Y4744720D02*
G01*
X4689093Y4744720D01*
X4675631Y4751578D01*
X4668774Y4758181D01*
X4661915Y4771897D01*
X4661915Y4799329D01*
X4668774Y4812792D01*
X4675631Y4819650D01*
X4689093Y4826507D01*
X4702809Y4826507D01*
X4716525Y4819650D01*
X4736845Y4805934D01*
X4805172Y4737862D01*
X4805172Y4833365D01*
X4407915Y4597400D02*
G01*
X4551172Y4597400D01*
X4407915Y4597400D02*
G01*
X4407915Y4645152D01*
X4414774Y4665471D01*
X4428490Y4679187D01*
X4441952Y4686045D01*
X4462525Y4692904D01*
X4496561Y4692904D01*
X4517136Y4686045D01*
X4530597Y4679187D01*
X4544313Y4665471D01*
X4551172Y4645152D01*
X4551172Y4597400D01*
X4407915Y4751578D02*
G01*
X4407915Y4826507D01*
X4462525Y4785613D01*
X4462525Y4805934D01*
X4469384Y4819650D01*
X4476241Y4826507D01*
X4496561Y4833365D01*
X4510277Y4833365D01*
X4530597Y4826507D01*
X4544313Y4812792D01*
X4551172Y4792471D01*
X4551172Y4771897D01*
X4544313Y4751578D01*
X4537456Y4744720D01*
X4523740Y4737862D01*
X4153915Y4597400D02*
G01*
X4297172Y4597400D01*
X4153915Y4597400D02*
G01*
X4153915Y4645152D01*
X4160774Y4665471D01*
X4174490Y4679187D01*
X4187952Y4686045D01*
X4208525Y4692904D01*
X4242561Y4692904D01*
X4263136Y4686045D01*
X4276597Y4679187D01*
X4290313Y4665471D01*
X4297172Y4645152D01*
X4297172Y4597400D01*
X4153915Y4805934D02*
G01*
X4249420Y4737862D01*
X4249420Y4840223D01*
X4153915Y4805934D02*
G01*
X4297172Y4805934D01*
X3899915Y4597400D02*
G01*
X4043172Y4597400D01*
X3899915Y4597400D02*
G01*
X3899915Y4645152D01*
X3906774Y4665471D01*
X3920490Y4679187D01*
X3933952Y4686045D01*
X3954525Y4692904D01*
X3988561Y4692904D01*
X4009136Y4686045D01*
X4022597Y4679187D01*
X4036313Y4665471D01*
X4043172Y4645152D01*
X4043172Y4597400D01*
X3899915Y4819650D02*
G01*
X3899915Y4751578D01*
X3961384Y4744720D01*
X3954525Y4751578D01*
X3947668Y4771897D01*
X3947668Y4792471D01*
X3954525Y4812792D01*
X3968241Y4826507D01*
X3988561Y4833365D01*
X4002277Y4833365D01*
X4022597Y4826507D01*
X4036313Y4812792D01*
X4043172Y4792471D01*
X4043172Y4771897D01*
X4036313Y4751578D01*
X4029456Y4744720D01*
X4015740Y4737862D01*
X3645915Y4597400D02*
G01*
X3789172Y4597400D01*
X3645915Y4597400D02*
G01*
X3645915Y4645152D01*
X3652774Y4665471D01*
X3666490Y4679187D01*
X3679952Y4686045D01*
X3700525Y4692904D01*
X3734561Y4692904D01*
X3755136Y4686045D01*
X3768597Y4679187D01*
X3782313Y4665471D01*
X3789172Y4645152D01*
X3789172Y4597400D01*
X3666490Y4819650D02*
G01*
X3652774Y4812792D01*
X3645915Y4792471D01*
X3645915Y4778755D01*
X3652774Y4758181D01*
X3673093Y4744720D01*
X3707384Y4737862D01*
X3741420Y4737862D01*
X3768597Y4744720D01*
X3782313Y4758181D01*
X3789172Y4778755D01*
X3789172Y4785613D01*
X3782313Y4805934D01*
X3768597Y4819650D01*
X3748277Y4826507D01*
X3741420Y4826507D01*
X3720845Y4819650D01*
X3707384Y4805934D01*
X3700525Y4785613D01*
X3700525Y4778755D01*
X3707384Y4758181D01*
X3720845Y4744720D01*
X3741420Y4737862D01*
X3391915Y4597400D02*
G01*
X3535172Y4597400D01*
X3391915Y4597400D02*
G01*
X3391915Y4645152D01*
X3398774Y4665471D01*
X3412490Y4679187D01*
X3425952Y4686045D01*
X3446525Y4692904D01*
X3480561Y4692904D01*
X3501136Y4686045D01*
X3514597Y4679187D01*
X3528313Y4665471D01*
X3535172Y4645152D01*
X3535172Y4597400D01*
X3391915Y4833365D02*
G01*
X3535172Y4765039D01*
X3391915Y4737862D02*
G01*
X3391915Y4833365D01*
X3019806Y4429252D02*
G01*
X3010408Y4419600D01*
X3005581Y4405376D01*
X3005581Y4386326D01*
X3010408Y4372102D01*
X3019806Y4362450D01*
X3029458Y4362450D01*
X3038856Y4367276D01*
X3043681Y4372102D01*
X3048508Y4381500D01*
X3058159Y4410202D01*
X3062731Y4419600D01*
X3067558Y4424426D01*
X3077209Y4429252D01*
X3091434Y4429252D01*
X3101086Y4419600D01*
X3105658Y4405376D01*
X3105658Y4386326D01*
X3101086Y4372102D01*
X3091434Y4362450D01*
X3005581Y4494276D02*
G01*
X3105658Y4494276D01*
X3005581Y4460747D02*
G01*
X3005581Y4527550D01*
X3005581Y4597145D02*
G01*
X3105658Y4559045D01*
X3005581Y4597145D02*
G01*
X3105658Y4635500D01*
X3072384Y4573523D02*
G01*
X3072384Y4621021D01*
X3005581Y4700270D02*
G01*
X3105658Y4700270D01*
X3005581Y4666995D02*
G01*
X3005581Y4733797D01*
X3005581Y4765294D02*
G01*
X3105658Y4765294D01*
X3005581Y4765294D02*
G01*
X3005581Y4827270D01*
X3053334Y4765294D02*
G01*
X3053334Y4803394D01*
X3105658Y4765294D02*
G01*
X3105658Y4827270D01*
X2751454Y4406900D02*
G01*
X2851784Y4406900D01*
X2751454Y4406900D02*
G01*
X2751454Y4440428D01*
X2756281Y4454652D01*
X2765933Y4464050D01*
X2775331Y4468876D01*
X2789809Y4473702D01*
X2813684Y4473702D01*
X2827909Y4468876D01*
X2837561Y4464050D01*
X2846959Y4454652D01*
X2851784Y4440428D01*
X2851784Y4406900D01*
X2751454Y4543297D02*
G01*
X2851784Y4505197D01*
X2751454Y4543297D02*
G01*
X2851784Y4581652D01*
X2818256Y4519421D02*
G01*
X2818256Y4567173D01*
X2751454Y4646421D02*
G01*
X2851784Y4646421D01*
X2751454Y4613147D02*
G01*
X2751454Y4679950D01*
X2751454Y4749545D02*
G01*
X2851784Y4711445D01*
X2751454Y4749545D02*
G01*
X2851784Y4787645D01*
X2818256Y4725670D02*
G01*
X2818256Y4773421D01*
X2497581Y4356100D02*
G01*
X2597658Y4356100D01*
X2597658Y4356100D02*
G01*
X2597658Y4413250D01*
X2497581Y4483100D02*
G01*
X2597658Y4444745D01*
X2497581Y4483100D02*
G01*
X2597658Y4521200D01*
X2564384Y4459223D02*
G01*
X2564384Y4506976D01*
X2497581Y4586223D02*
G01*
X2597658Y4586223D01*
X2497581Y4552695D02*
G01*
X2497581Y4619497D01*
X2521458Y4722621D02*
G01*
X2511806Y4717795D01*
X2502408Y4708397D01*
X2497581Y4698745D01*
X2497581Y4679695D01*
X2502408Y4670044D01*
X2511806Y4660645D01*
X2521458Y4655820D01*
X2535681Y4650994D01*
X2559558Y4650994D01*
X2574036Y4655820D01*
X2583434Y4660645D01*
X2593086Y4670044D01*
X2597658Y4679695D01*
X2597658Y4698745D01*
X2593086Y4708397D01*
X2583434Y4717795D01*
X2574036Y4722621D01*
X2497581Y4754118D02*
G01*
X2597658Y4754118D01*
X2497581Y4820920D02*
G01*
X2597658Y4820920D01*
X2545334Y4754118D02*
G01*
X2545334Y4820920D01*
X2267455Y4427728D02*
G01*
X2257803Y4422902D01*
X2248405Y4413250D01*
X2243579Y4403852D01*
X2243579Y4384802D01*
X2248405Y4375150D01*
X2257803Y4365752D01*
X2267455Y4360926D01*
X2281679Y4356100D01*
X2305555Y4356100D01*
X2320033Y4360926D01*
X2329431Y4365752D01*
X2339083Y4375150D01*
X2343655Y4384802D01*
X2343655Y4403852D01*
X2339083Y4413250D01*
X2329431Y4422902D01*
X2320033Y4427728D01*
X2243579Y4459223D02*
G01*
X2343655Y4459223D01*
X2343655Y4459223D02*
G01*
X2343655Y4516373D01*
X2243579Y4576571D02*
G01*
X2248405Y4567173D01*
X2257803Y4557521D01*
X2267455Y4552695D01*
X2281679Y4547870D01*
X2305555Y4547870D01*
X2320033Y4552695D01*
X2329431Y4557521D01*
X2339083Y4567173D01*
X2343655Y4576571D01*
X2343655Y4595621D01*
X2339083Y4605273D01*
X2329431Y4614671D01*
X2320033Y4619497D01*
X2305555Y4624323D01*
X2281679Y4624323D01*
X2267455Y4619497D01*
X2257803Y4614671D01*
X2248405Y4605273D01*
X2243579Y4595621D01*
X2243579Y4576571D01*
X2267455Y4727447D02*
G01*
X2257803Y4722621D01*
X2248405Y4713223D01*
X2243579Y4703571D01*
X2243579Y4684521D01*
X2248405Y4674870D01*
X2257803Y4665471D01*
X2267455Y4660645D01*
X2281679Y4655820D01*
X2305555Y4655820D01*
X2320033Y4660645D01*
X2329431Y4665471D01*
X2339083Y4674870D01*
X2343655Y4684521D01*
X2343655Y4703571D01*
X2339083Y4713223D01*
X2329431Y4722621D01*
X2320033Y4727447D01*
X2243579Y4758944D02*
G01*
X2343655Y4758944D01*
X2243579Y4825745D02*
G01*
X2310381Y4758944D01*
X2286505Y4782820D02*
G01*
X2343655Y4825745D01*
X1989454Y4381500D02*
G01*
X2089784Y4405376D01*
X1989454Y4429252D02*
G01*
X2089784Y4405376D01*
X1989454Y4429252D02*
G01*
X2089784Y4453128D01*
X1989454Y4477004D02*
G01*
X2089784Y4453128D01*
X1989454Y4508500D02*
G01*
X2089784Y4508500D01*
X1989454Y4508500D02*
G01*
X1989454Y4551426D01*
X1994281Y4565650D01*
X1999106Y4570476D01*
X2008759Y4575302D01*
X2018156Y4575302D01*
X2027809Y4570476D01*
X2032381Y4565650D01*
X2037206Y4551426D01*
X2037206Y4508500D01*
X2037206Y4541773D02*
G01*
X2089784Y4575302D01*
X1989454Y4606797D02*
G01*
X2089784Y4606797D01*
X1989454Y4671568D02*
G01*
X2089784Y4671568D01*
X1989454Y4638294D02*
G01*
X1989454Y4705095D01*
X1989454Y4736592D02*
G01*
X2089784Y4736592D01*
X1989454Y4736592D02*
G01*
X1989454Y4798568D01*
X2037206Y4736592D02*
G01*
X2037206Y4774692D01*
X2089784Y4736592D02*
G01*
X2089784Y4798568D01*
X3191002Y1183894D02*
G01*
X3181350Y1193292D01*
X3167125Y1198118D01*
X3148075Y1198118D01*
X3133852Y1193292D01*
X3124200Y1183894D01*
X3124200Y1174242D01*
X3129025Y1164844D01*
X3133852Y1160018D01*
X3143250Y1155192D01*
X3171952Y1145539D01*
X3181350Y1140968D01*
X3186175Y1136142D01*
X3191002Y1126489D01*
X3191002Y1112265D01*
X3181350Y1102613D01*
X3167125Y1098042D01*
X3148075Y1098042D01*
X3133852Y1102613D01*
X3124200Y1112265D01*
X3222497Y1198118D02*
G01*
X3222497Y1098042D01*
X3222497Y1198118D02*
G01*
X3289300Y1098042D01*
X3289300Y1198118D02*
G01*
X3289300Y1098042D01*
X3387597Y1198118D02*
G01*
X3339845Y1098042D01*
X3320795Y1198118D02*
G01*
X3387597Y1198118D01*
X3466845Y1198118D02*
G01*
X3419093Y1131315D01*
X3490722Y1131315D01*
X3466845Y1198118D02*
G01*
X3466845Y1098042D01*
X3522218Y1198118D02*
G01*
X3522218Y1098042D01*
X3522218Y1098042D02*
G01*
X3579622Y1098042D01*
X3677920Y1183894D02*
G01*
X3668268Y1193292D01*
X3654043Y1198118D01*
X3634993Y1198118D01*
X3620515Y1193292D01*
X3611118Y1183894D01*
X3611118Y1174242D01*
X3615690Y1164844D01*
X3620515Y1160018D01*
X3630168Y1155192D01*
X3658870Y1145539D01*
X3668268Y1140968D01*
X3673093Y1136142D01*
X3677920Y1126489D01*
X3677920Y1112265D01*
X3668268Y1102613D01*
X3654043Y1098042D01*
X3634993Y1098042D01*
X3620515Y1102613D01*
X3611118Y1112265D01*
X3766565Y1198118D02*
G01*
X3718813Y1198118D01*
X3713988Y1155192D01*
X3718813Y1160018D01*
X3733291Y1164844D01*
X3747515Y1164844D01*
X3761740Y1160018D01*
X3771391Y1150365D01*
X3776218Y1136142D01*
X3776218Y1126489D01*
X3771391Y1112265D01*
X3761740Y1102613D01*
X3747515Y1098042D01*
X3733291Y1098042D01*
X3718813Y1102613D01*
X3713988Y1107439D01*
X3709415Y1117092D01*
X3869690Y1164844D02*
G01*
X3864863Y1150365D01*
X3855465Y1140968D01*
X3840988Y1136142D01*
X3836415Y1136142D01*
X3821938Y1140968D01*
X3812540Y1150365D01*
X3807713Y1164844D01*
X3807713Y1169415D01*
X3812540Y1183894D01*
X3821938Y1193292D01*
X3836415Y1198118D01*
X3840988Y1198118D01*
X3855465Y1193292D01*
X3864863Y1183894D01*
X3869690Y1164844D01*
X3869690Y1140968D01*
X3864863Y1117092D01*
X3855465Y1102613D01*
X3840988Y1098042D01*
X3831590Y1098042D01*
X3817111Y1102613D01*
X3812540Y1112265D01*
X3958590Y1198118D02*
G01*
X3910838Y1198118D01*
X3906011Y1155192D01*
X3910838Y1160018D01*
X3925061Y1164844D01*
X3939286Y1164844D01*
X3953763Y1160018D01*
X3963161Y1150365D01*
X3967988Y1136142D01*
X3967988Y1126489D01*
X3963161Y1112265D01*
X3953763Y1102613D01*
X3939286Y1098042D01*
X3925061Y1098042D01*
X3910838Y1102613D01*
X3906011Y1107439D01*
X3901186Y1117092D01*
X3999484Y1198118D02*
G01*
X3999484Y1098042D01*
X3999484Y1198118D02*
G01*
X4066286Y1098042D01*
X4066286Y1198118D02*
G01*
X4066286Y1098042D01*
X905002Y1158494D02*
G01*
X895350Y1167892D01*
X881126Y1172718D01*
X862076Y1172718D01*
X847852Y1167892D01*
X838200Y1158494D01*
X838200Y1148842D01*
X843026Y1139444D01*
X847852Y1134618D01*
X857250Y1129792D01*
X885952Y1120139D01*
X895350Y1115568D01*
X900176Y1110742D01*
X905002Y1101089D01*
X905002Y1086865D01*
X895350Y1077213D01*
X881126Y1072642D01*
X862076Y1072642D01*
X847852Y1077213D01*
X838200Y1086865D01*
X936497Y1172718D02*
G01*
X936497Y1072642D01*
X936497Y1172718D02*
G01*
X1003300Y1072642D01*
X1003300Y1172718D02*
G01*
X1003300Y1072642D01*
X1101597Y1172718D02*
G01*
X1053845Y1072642D01*
X1034795Y1172718D02*
G01*
X1101597Y1172718D01*
X1180845Y1172718D02*
G01*
X1133094Y1105915D01*
X1204721Y1105915D01*
X1180845Y1172718D02*
G01*
X1180845Y1072642D01*
X1236218Y1172718D02*
G01*
X1236218Y1072642D01*
X1236218Y1072642D02*
G01*
X1293621Y1072642D01*
X1391920Y1158494D02*
G01*
X1382268Y1167892D01*
X1368044Y1172718D01*
X1348994Y1172718D01*
X1334515Y1167892D01*
X1325118Y1158494D01*
X1325118Y1148842D01*
X1329689Y1139444D01*
X1334515Y1134618D01*
X1344168Y1129792D01*
X1372870Y1120139D01*
X1382268Y1115568D01*
X1387094Y1110742D01*
X1391920Y1101089D01*
X1391920Y1086865D01*
X1382268Y1077213D01*
X1368044Y1072642D01*
X1348994Y1072642D01*
X1334515Y1077213D01*
X1325118Y1086865D01*
X1480565Y1172718D02*
G01*
X1432813Y1172718D01*
X1427987Y1129792D01*
X1432813Y1134618D01*
X1447292Y1139444D01*
X1461515Y1139444D01*
X1475739Y1134618D01*
X1485392Y1124965D01*
X1490218Y1110742D01*
X1490218Y1101089D01*
X1485392Y1086865D01*
X1475739Y1077213D01*
X1461515Y1072642D01*
X1447292Y1072642D01*
X1432813Y1077213D01*
X1427987Y1082039D01*
X1423415Y1091692D01*
X1583689Y1139444D02*
G01*
X1578863Y1124965D01*
X1569465Y1115568D01*
X1554987Y1110742D01*
X1550415Y1110742D01*
X1535937Y1115568D01*
X1526539Y1124965D01*
X1521713Y1139444D01*
X1521713Y1144015D01*
X1526539Y1158494D01*
X1535937Y1167892D01*
X1550415Y1172718D01*
X1554987Y1172718D01*
X1569465Y1167892D01*
X1578863Y1158494D01*
X1583689Y1139444D01*
X1583689Y1115568D01*
X1578863Y1091692D01*
X1569465Y1077213D01*
X1554987Y1072642D01*
X1545589Y1072642D01*
X1531112Y1077213D01*
X1526539Y1086865D01*
X1672589Y1172718D02*
G01*
X1624837Y1172718D01*
X1620012Y1129792D01*
X1624837Y1134618D01*
X1639062Y1139444D01*
X1653286Y1139444D01*
X1667763Y1134618D01*
X1677162Y1124965D01*
X1681987Y1110742D01*
X1681987Y1101089D01*
X1677162Y1086865D01*
X1667763Y1077213D01*
X1653286Y1072642D01*
X1639062Y1072642D01*
X1624837Y1077213D01*
X1620012Y1082039D01*
X1615186Y1091692D01*
X1713484Y1172718D02*
G01*
X1713484Y1072642D01*
X1713484Y1172718D02*
G01*
X1780286Y1072642D01*
X1780286Y1172718D02*
G01*
X1780286Y1072642D01*
X2454402Y3103118D02*
G01*
X2387600Y3003042D01*
X2387600Y3103118D02*
G01*
X2454402Y3103118D01*
X2387600Y3003042D02*
G01*
X2454402Y3003042D01*
X2485897Y3103118D02*
G01*
X2485897Y3003042D01*
X2517393Y3103118D02*
G01*
X2517393Y3003042D01*
X2517393Y3103118D02*
G01*
X2579370Y3103118D01*
X2517393Y3055365D02*
G01*
X2555493Y3055365D01*
X2751327Y3088894D02*
G01*
X2741675Y3098292D01*
X2727452Y3103118D01*
X2708402Y3103118D01*
X2693924Y3098292D01*
X2684525Y3088894D01*
X2684525Y3079242D01*
X2689352Y3069844D01*
X2693924Y3065018D01*
X2703575Y3060192D01*
X2732277Y3050539D01*
X2741675Y3045968D01*
X2746502Y3041142D01*
X2751327Y3031489D01*
X2751327Y3017265D01*
X2741675Y3007613D01*
X2727452Y3003042D01*
X2708402Y3003042D01*
X2693924Y3007613D01*
X2684525Y3017265D01*
X2811525Y3103118D02*
G01*
X2801874Y3098292D01*
X2792222Y3088894D01*
X2787650Y3079242D01*
X2782824Y3065018D01*
X2782824Y3041142D01*
X2787650Y3026663D01*
X2792222Y3017265D01*
X2801874Y3007613D01*
X2811525Y3003042D01*
X2830575Y3003042D01*
X2839974Y3007613D01*
X2849625Y3017265D01*
X2854452Y3026663D01*
X2859024Y3041142D01*
X2859024Y3065018D01*
X2854452Y3079242D01*
X2849625Y3088894D01*
X2839974Y3098292D01*
X2830575Y3103118D01*
X2811525Y3103118D01*
X2962147Y3079242D02*
G01*
X2957575Y3088894D01*
X2947924Y3098292D01*
X2938272Y3103118D01*
X2919222Y3103118D01*
X2909824Y3098292D01*
X2900172Y3088894D01*
X2895345Y3079242D01*
X2890520Y3065018D01*
X2890520Y3041142D01*
X2895345Y3026663D01*
X2900172Y3017265D01*
X2909824Y3007613D01*
X2919222Y3003042D01*
X2938272Y3003042D01*
X2947924Y3007613D01*
X2957575Y3017265D01*
X2962147Y3026663D01*
X2993643Y3103118D02*
G01*
X2993643Y3003042D01*
X3060445Y3103118D02*
G01*
X2993643Y3036315D01*
X3017520Y3060192D02*
G01*
X3060445Y3003042D01*
X3091941Y3103118D02*
G01*
X3091941Y3003042D01*
X3091941Y3103118D02*
G01*
X3154172Y3103118D01*
X3091941Y3055365D02*
G01*
X3130295Y3055365D01*
X3091941Y3003042D02*
G01*
X3154172Y3003042D01*
X3218941Y3103118D02*
G01*
X3218941Y3003042D01*
X3185668Y3103118D02*
G01*
X3252470Y3103118D01*
D11*
X5335524Y1143254D02*
G01*
X5326634Y1134110D01*
X5322061Y1120394D01*
X5322061Y1102105D01*
X5326634Y1088644D01*
X5335524Y1079500D01*
X5344668Y1079500D01*
X5353811Y1084071D01*
X5358384Y1088644D01*
X5362956Y1097787D01*
X5372100Y1124965D01*
X5376418Y1134110D01*
X5380990Y1138681D01*
X5390134Y1143254D01*
X5403850Y1143254D01*
X5412993Y1134110D01*
X5417565Y1120394D01*
X5417565Y1102105D01*
X5412993Y1088644D01*
X5403850Y1079500D01*
X5322061Y1204976D02*
G01*
X5417565Y1204976D01*
X5322061Y1173226D02*
G01*
X5322061Y1236726D01*
X5322061Y1303020D02*
G01*
X5417565Y1266697D01*
X5322061Y1303020D02*
G01*
X5417565Y1339595D01*
X5385561Y1280413D02*
G01*
X5385561Y1325879D01*
X5322061Y1401318D02*
G01*
X5417565Y1401318D01*
X5322061Y1369568D02*
G01*
X5322061Y1433068D01*
X5322061Y1463039D02*
G01*
X5417565Y1463039D01*
X5322061Y1463039D02*
G01*
X5322061Y1522221D01*
X5367527Y1463039D02*
G01*
X5367527Y1499615D01*
X5417565Y1463039D02*
G01*
X5417565Y1522221D01*
X4877561Y1549400D02*
G01*
X4973065Y1549400D01*
X4877561Y1549400D02*
G01*
X4877561Y1590294D01*
X4882134Y1604010D01*
X4886706Y1608581D01*
X4895595Y1613154D01*
X4909311Y1613154D01*
X4918456Y1608581D01*
X4923027Y1604010D01*
X4927600Y1590294D01*
X4927600Y1549400D01*
X4877561Y1670304D02*
G01*
X4882134Y1661160D01*
X4891024Y1652015D01*
X4900168Y1647697D01*
X4913884Y1643126D01*
X4936490Y1643126D01*
X4950206Y1647697D01*
X4959350Y1652015D01*
X4968493Y1661160D01*
X4973065Y1670304D01*
X4973065Y1688592D01*
X4968493Y1697481D01*
X4959350Y1706626D01*
X4950206Y1711197D01*
X4936490Y1715770D01*
X4913884Y1715770D01*
X4900168Y1711197D01*
X4891024Y1706626D01*
X4882134Y1697481D01*
X4877561Y1688592D01*
X4877561Y1670304D01*
X4877561Y1745742D02*
G01*
X4973065Y1768602D01*
X4877561Y1791207D02*
G01*
X4973065Y1768602D01*
X4877561Y1791207D02*
G01*
X4973065Y1814068D01*
X4877561Y1836673D02*
G01*
X4973065Y1814068D01*
X5320284Y2946400D02*
G01*
X5398261Y2946400D01*
X5413756Y2951479D01*
X5424170Y2961894D01*
X5429250Y2977642D01*
X5429250Y2988055D01*
X5424170Y3003550D01*
X5413756Y3013963D01*
X5398261Y3019044D01*
X5320284Y3019044D01*
X5320284Y3063747D02*
G01*
X5320284Y3120897D01*
X5361940Y3089910D01*
X5361940Y3105404D01*
X5367020Y3115818D01*
X5372100Y3120897D01*
X5387847Y3126231D01*
X5398261Y3126231D01*
X5413756Y3120897D01*
X5424170Y3110484D01*
X5429250Y3094989D01*
X5429250Y3079495D01*
X5424170Y3063747D01*
X5419090Y3058668D01*
X5408675Y3053334D01*
X4875784Y470027D02*
G01*
X4984750Y470027D01*
X4875784Y470027D02*
G01*
X4875784Y516762D01*
X4880863Y532256D01*
X4886197Y537337D01*
X4896611Y542670D01*
X4907025Y542670D01*
X4917440Y537337D01*
X4922520Y532256D01*
X4927600Y516762D01*
X4927600Y470027D01*
X4927600Y506348D02*
G01*
X4984750Y542670D01*
X4896611Y576961D02*
G01*
X4891277Y587375D01*
X4875784Y602869D01*
X4984750Y602869D01*
X5104384Y469905D02*
G01*
X5213350Y469905D01*
X5104384Y469905D02*
G01*
X5104384Y516641D01*
X5109463Y532135D01*
X5114797Y537469D01*
X5125211Y542549D01*
X5135625Y542549D01*
X5146040Y537469D01*
X5151120Y532135D01*
X5156200Y516641D01*
X5156200Y469905D01*
X5156200Y506227D02*
G01*
X5213350Y542549D01*
X5130291Y582173D02*
G01*
X5125211Y582173D01*
X5114797Y587253D01*
X5109463Y592587D01*
X5104384Y603001D01*
X5104384Y623575D01*
X5109463Y633989D01*
X5114797Y639323D01*
X5125211Y644403D01*
X5135625Y644403D01*
X5146040Y639323D01*
X5161534Y628909D01*
X5213350Y576839D01*
X5213350Y649737D01*
X4707509Y1219194D02*
G01*
X4629531Y1219194D01*
X4614036Y1214114D01*
X4603622Y1203700D01*
X4598543Y1187952D01*
X4598543Y1177538D01*
X4603622Y1162044D01*
X4614036Y1151630D01*
X4629531Y1146550D01*
X4707509Y1146550D01*
X4686681Y1112260D02*
G01*
X4692015Y1101846D01*
X4707509Y1086098D01*
X4598543Y1086098D01*
X2408809Y1231894D02*
G01*
X2330831Y1231894D01*
X2315336Y1226814D01*
X2304922Y1216400D01*
X2299843Y1200652D01*
X2299843Y1190238D01*
X2304922Y1174744D01*
X2315336Y1164330D01*
X2330831Y1159250D01*
X2408809Y1159250D01*
X2382900Y1119626D02*
G01*
X2387981Y1119626D01*
X2398395Y1114546D01*
X2403729Y1109212D01*
X2408809Y1098798D01*
X2408809Y1078224D01*
X2403729Y1067810D01*
X2398395Y1062476D01*
X2387981Y1057396D01*
X2377566Y1057396D01*
X2367152Y1062476D01*
X2351659Y1072890D01*
X2299843Y1124960D01*
X2299843Y1052062D01*
G36*
X3327400Y4876800D02*
G01*
X3302000Y4864100D01*
X3302000Y4559300D01*
X3352800Y4508500D01*
X5334000Y4508500D01*
X5384800Y4559300D01*
X5384800Y4572000D01*
X5334000Y4584700D01*
X5334000Y4559300D01*
X5143500Y4559300D01*
X5143500Y4864100D01*
X5118100Y4876800D01*
X5092700Y4864100D01*
X5092700Y4559300D01*
X4876800Y4559300D01*
X4876800Y4864100D01*
X4851400Y4876800D01*
X4838700Y4864100D01*
X4838700Y4559300D01*
X4622800Y4559300D01*
X4622800Y4864100D01*
X4597400Y4876800D01*
X4584700Y4864100D01*
X4584700Y4559300D01*
X4368800Y4559300D01*
X4368800Y4864100D01*
X4343400Y4876800D01*
X4330700Y4864100D01*
X4330700Y4559300D01*
X4127500Y4559300D01*
X4127500Y4864100D01*
X4102100Y4876800D01*
X4076700Y4864100D01*
X4076700Y4559300D01*
X3873500Y4559300D01*
X3873500Y4864100D01*
X3848100Y4876800D01*
X3822700Y4864100D01*
X3822700Y4559300D01*
X3619500Y4559300D01*
X3619500Y4864100D01*
X3594100Y4876800D01*
X3568700Y4864100D01*
X3568700Y4559300D01*
X3352800Y4559300D01*
X3352800Y4864100D01*
G37*
G36*
X3352800Y4914900D02*
G01*
X3302000Y4864100D01*
X5168900Y4864100D01*
X5168900Y4914900D01*
G37*
G36*
X5168900Y4914900D02*
G01*
X5156200Y4889500D01*
X5168900Y4864100D01*
X5384800Y4864100D01*
X5334000Y4914900D01*
G37*
G36*
X5359400Y4876800D02*
G01*
X5334000Y4864100D01*
X5334000Y4572000D01*
X5384800Y4572000D01*
X5384800Y4864100D01*
G37*
G36*
X3124200Y4902200D02*
G01*
X3124200Y4876800D01*
X3136900Y4864100D01*
X3136900Y4292600D01*
X3149600Y4292600D01*
X3187700Y4343400D01*
X3187700Y4838700D01*
X3149600Y4895850D01*
G37*
G36*
X1943100Y4902200D02*
G01*
X1905000Y4864100D01*
X3136900Y4864100D01*
X3124200Y4902200D01*
G37*
G36*
X1930400Y4876800D02*
G01*
X1905000Y4864100D01*
X1905000Y4330700D01*
X1930400Y4318000D01*
X1955800Y4330700D01*
X1955800Y4864100D01*
G37*
G36*
X1905000Y4330700D02*
G01*
X1955800Y4279900D01*
X3124200Y4279900D01*
X3136900Y4292600D01*
X3136900Y4330700D01*
G37*
G36*
X2159000Y4876800D02*
G01*
X2120900Y4864100D01*
X2120900Y4330700D01*
X2209800Y4330700D01*
X2209800Y4864100D01*
G37*
G36*
X2032000Y4876800D02*
G01*
X1943100Y4864100D01*
X1943100Y4826000D01*
X2120900Y4826000D01*
X2133600Y4838700D01*
X2120900Y4838700D01*
X2133600Y4851400D01*
X2120900Y4864100D01*
G37*
G36*
X2298700Y4876800D02*
G01*
X2209800Y4864100D01*
X2197100Y4864100D01*
X2209800Y4851400D01*
X2374900Y4851400D01*
X2374900Y4864100D01*
G37*
G36*
X2552700Y4876800D02*
G01*
X2463800Y4864100D01*
X2451100Y4851400D01*
X2641600Y4851400D01*
X2628900Y4864100D01*
G37*
G36*
X2806700Y4876800D02*
G01*
X2717800Y4864100D01*
X2705100Y4838700D01*
X2717800Y4813300D01*
X2882900Y4813300D01*
X2895600Y4838700D01*
X2882900Y4864100D01*
G37*
G36*
X3060700Y4876800D02*
G01*
X2971800Y4864100D01*
X2971800Y4851400D01*
X3136900Y4851400D01*
X3136900Y4864100D01*
G37*
G36*
X2717800Y4381500D02*
G01*
X2717800Y4330700D01*
X2882900Y4330700D01*
X2882900Y4381500D01*
G37*
G36*
X5168950Y1347419D02*
G01*
X5132984Y1322425D01*
X5204968Y1321409D01*
G37*
G36*
X4927650Y1347419D02*
G01*
X4891684Y1322425D01*
X4963668Y1321409D01*
G37*
D12*
X5095968Y1370423D02*
G01*
X5095968Y1485422D01*
X5240967Y1485422D01*
X5240967Y1365422D01*
X5241968Y1303423D02*
G01*
X5241968Y1179423D01*
X5096969Y1179423D01*
X5096969Y1303423D01*
X5095968Y1485422D02*
G01*
X5095968Y1488424D01*
X5115968Y1508424D01*
X5217967Y1508424D01*
X5220967Y1505422D01*
X5240967Y1485422D01*
X4854668Y1370423D02*
G01*
X4854668Y1485422D01*
X4999667Y1485422D01*
X4999667Y1365422D01*
X5000668Y1303423D02*
G01*
X5000668Y1179423D01*
X4855669Y1179423D01*
X4855669Y1303423D01*
X4854668Y1485422D02*
G01*
X4854668Y1488424D01*
X4874668Y1508424D01*
X4976667Y1508424D01*
X4979667Y1505422D01*
X4999667Y1485422D01*
D13*
X1028700Y2921000D02*
G01*
X1028700Y2362200D01*
X4648200Y2349500D02*
G01*
X4648200Y3746500D01*
X1028700Y3733800D02*
G01*
X1028700Y3175000D01*
D14*
X3340100Y4965700D02*
G01*
X5181600Y4965700D01*
D15*
X3340100Y4965700D02*
G01*
X3340100Y5219700D01*
X5372100Y5219700D01*
X5372100Y4965700D01*
X5181600Y4965700D01*
X838200Y5219700D02*
G01*
X647700Y5219700D01*
X647700Y4965700D01*
X3187700Y4965700D01*
X3187700Y5219700D01*
D14*
X3187700Y5219700D02*
G01*
X838200Y5219700D01*
D15*
X4038600Y393700D02*
G01*
X3848100Y393700D01*
X3848100Y139700D01*
X5372100Y139700D01*
X5372100Y393700D01*
D14*
X5372100Y393700D02*
G01*
X4038600Y393700D01*
X3594100Y393700D02*
G01*
X1752600Y393700D01*
D15*
X3594100Y393700D02*
G01*
X3594100Y139700D01*
X1562100Y139700D01*
X1562100Y393700D01*
X1752600Y393700D01*
D11*
X4837239Y1070119D02*
G01*
X4837239Y929119D01*
X5017960Y929119D02*
G01*
X5017960Y1070119D01*
X5002720Y1085359D02*
G01*
X4852479Y1085359D01*
X4837239Y707880D02*
G01*
X4837239Y848880D01*
X5017960Y848880D02*
G01*
X5017960Y707880D01*
X5002720Y692640D02*
G01*
X4852479Y692640D01*
X5078539Y1070119D02*
G01*
X5078539Y929119D01*
X5259260Y929119D02*
G01*
X5259260Y1070119D01*
X5244020Y1085359D02*
G01*
X5093779Y1085359D01*
X5078539Y707880D02*
G01*
X5078539Y848880D01*
X5259260Y848880D02*
G01*
X5259260Y707880D01*
X5244020Y692640D02*
G01*
X5093779Y692640D01*
D13*
X4522343Y1080696D02*
G01*
X4522343Y857145D01*
X2559215Y835695D02*
G01*
X2548094Y835695D01*
X2548094Y1475694D01*
X2559215Y1475694D01*
X4262970Y1475694D02*
G01*
X4318977Y1475694D01*
X4008970Y1475694D02*
G01*
X4083215Y1475694D01*
X3754970Y1475694D02*
G01*
X3829215Y1475694D01*
X3500970Y1475694D02*
G01*
X3575215Y1475694D01*
X3246970Y1475694D02*
G01*
X3321215Y1475694D01*
X2992970Y1475694D02*
G01*
X3067215Y1475694D01*
X2738970Y1475694D02*
G01*
X2813215Y1475694D01*
X2813215Y835695D02*
G01*
X2738970Y835695D01*
X3067215Y835695D02*
G01*
X2992970Y835695D01*
X3321215Y835695D02*
G01*
X3246970Y835695D01*
X3575215Y835695D02*
G01*
X3500970Y835695D01*
X3829215Y835695D02*
G01*
X3754970Y835695D01*
X4083215Y835695D02*
G01*
X4008970Y835695D01*
X4337215Y835695D02*
G01*
X4262970Y835695D01*
X4522340Y1230576D02*
G01*
X4522340Y1427589D01*
X2236343Y1067996D02*
G01*
X2236343Y844445D01*
X273215Y822995D02*
G01*
X262094Y822995D01*
X262094Y1462994D01*
X273215Y1462994D01*
X1976970Y1462994D02*
G01*
X2032977Y1462994D01*
X1722970Y1462994D02*
G01*
X1797215Y1462994D01*
X1468970Y1462994D02*
G01*
X1543215Y1462994D01*
X1214970Y1462994D02*
G01*
X1289215Y1462994D01*
X960970Y1462994D02*
G01*
X1035215Y1462994D01*
X706970Y1462994D02*
G01*
X781215Y1462994D01*
X452970Y1462994D02*
G01*
X527215Y1462994D01*
X527215Y822995D02*
G01*
X452970Y822995D01*
X781215Y822995D02*
G01*
X706970Y822995D01*
X1035215Y822995D02*
G01*
X960970Y822995D01*
X1289215Y822995D02*
G01*
X1214970Y822995D01*
X1543215Y822995D02*
G01*
X1468970Y822995D01*
X1797215Y822995D02*
G01*
X1722970Y822995D01*
X2051215Y822995D02*
G01*
X1976970Y822995D01*
X2236340Y1217876D02*
G01*
X2236340Y1414889D01*
G75*
G01*
X3378200Y4876800D02*
G03*
X3341238Y4847941I0J-38100D01*
G75*
G01*
X3530600Y4546600D02*
G03*
X3581400Y4597400I0J50800D01*
G75*
G01*
X3606800Y4597400D02*
G03*
X3657600Y4546600I50800J0D01*
G75*
G01*
X3784600Y4546600D02*
G03*
X3835400Y4597400I0J50800D01*
G75*
G01*
X3835400Y4826000D02*
G03*
X3784600Y4876800I-50800J0D01*
G75*
G01*
X5346700Y4826000D02*
G03*
X5295900Y4876800I-50800J0D01*
G75*
G01*
X5181600Y4876800D02*
G03*
X5130800Y4826000I0J-50800D01*
G75*
G01*
X5105400Y4826000D02*
G03*
X5054600Y4876800I-50800J0D01*
G75*
G01*
X4914900Y4876800D02*
G03*
X4864100Y4826000I0J-50800D01*
G75*
G01*
X4660900Y4876800D02*
G03*
X4610100Y4826000I0J-50800D01*
G75*
G01*
X4597400Y4826000D02*
G03*
X4546600Y4876800I-50800J0D01*
G75*
G01*
X4406900Y4876800D02*
G03*
X4356100Y4826000I0J-50800D01*
G75*
G01*
X4343400Y4826000D02*
G03*
X4292600Y4876800I-50800J0D01*
G75*
G01*
X4165600Y4876800D02*
G03*
X4114800Y4826000I0J-50800D01*
G75*
G01*
X4089400Y4826000D02*
G03*
X4038600Y4876800I-50800J0D01*
G75*
G01*
X3911600Y4876800D02*
G03*
X3860800Y4826000I0J-50800D01*
G75*
G01*
X5295900Y4546600D02*
G03*
X5346700Y4597400I0J50800D01*
G75*
G01*
X5130800Y4597400D02*
G03*
X5181600Y4546600I50800J0D01*
G75*
G01*
X5054600Y4546600D02*
G03*
X5105400Y4597400I0J50800D01*
G75*
G01*
X4800600Y4546600D02*
G03*
X4851400Y4597400I0J50800D01*
G75*
G01*
X4546600Y4546600D02*
G03*
X4597400Y4597400I0J50800D01*
G75*
G01*
X4292600Y4546600D02*
G03*
X4343400Y4597400I0J50800D01*
G75*
G01*
X3860800Y4597400D02*
G03*
X3911600Y4546600I50800J0D01*
G75*
G01*
X4114800Y4597400D02*
G03*
X4165600Y4546600I50800J0D01*
G75*
G01*
X4356100Y4597400D02*
G03*
X4406900Y4546600I50800J0D01*
G75*
G01*
X4610100Y4597400D02*
G03*
X4660900Y4546600I50800J0D01*
G75*
G01*
X4864100Y4597400D02*
G03*
X4914900Y4546600I50800J0D01*
G75*
G01*
X4851400Y4826000D02*
G03*
X4800600Y4876800I-50800J0D01*
G75*
G01*
X2133600Y4787900D02*
G03*
X2082800Y4838700I-50800J0D01*
G75*
G01*
X2387600Y4813300D02*
G03*
X2336800Y4864100I-50800J0D01*
G75*
G01*
X2641600Y4813300D02*
G03*
X2590800Y4864100I-50800J0D01*
G75*
G01*
X2895600Y4775200D02*
G03*
X2844800Y4826000I-50800J0D01*
G75*
G01*
X3098800Y4318000D02*
G03*
X3149600Y4368800I0J50800D01*
G75*
G01*
X2844800Y4368800D02*
G03*
X2895600Y4419600I0J50800D01*
G75*
G01*
X2590800Y4318000D02*
G03*
X2641600Y4368800I0J50800D01*
G75*
G01*
X2336800Y4318000D02*
G03*
X2387600Y4368800I0J50800D01*
G75*
G01*
X2082800Y4343400D02*
G03*
X2133600Y4394200I0J50800D01*
G75*
G01*
X1943100Y4394200D02*
G03*
X1993900Y4343400I50800J0D01*
G75*
G01*
X2197100Y4368800D02*
G03*
X2247900Y4318000I50800J0D01*
G75*
G01*
X2451100Y4368800D02*
G03*
X2501900Y4318000I50800J0D01*
G75*
G01*
X2705100Y4419600D02*
G03*
X2755900Y4368800I50800J0D01*
G75*
G01*
X2959100Y4368800D02*
G03*
X3009900Y4318000I50800J0D01*
G75*
G01*
X3009900Y4864100D02*
G03*
X2959100Y4813300I0J-50800D01*
G75*
G01*
X2755900Y4826000D02*
G03*
X2705100Y4775200I0J-50800D01*
G75*
G01*
X2501900Y4864100D02*
G03*
X2451100Y4813300I0J-50800D01*
G75*
G01*
X2247900Y4864100D02*
G03*
X2197100Y4813300I0J-50800D01*
G75*
G01*
X1993900Y4838700D02*
G03*
X1943100Y4787900I0J-50800D01*
G75*
G01*
X3149600Y4813300D02*
G03*
X3098800Y4864100I-50800J0D01*
G75*
G01*
X3175000Y4838700D02*
G03*
X3124200Y4889500I-50800J0D01*
G75*
G01*
X3124200Y4292600D02*
G03*
X3175000Y4343400I0J50800D01*
G75*
G01*
X1943100Y4889500D02*
G03*
X1917700Y4864100I0J-25400D01*
G75*
G01*
X4038600Y4546600D02*
G03*
X4089400Y4597400I0J50800D01*
G75*
G01*
X3136900Y1244600D02*
G03*
X3086100Y1193800I0J-50800D01*
G75*
G01*
X4051300Y1054100D02*
G03*
X4102100Y1104900I0J50800D01*
G75*
G01*
X4102100Y1193800D02*
G03*
X4051300Y1244600I-50800J0D01*
G75*
G01*
X3086100Y1104900D02*
G03*
X3136900Y1054100I50800J0D01*
G75*
G01*
X1765300Y1028700D02*
G03*
X1816100Y1079500I0J50800D01*
G75*
G01*
X1816100Y1168400D02*
G03*
X1765300Y1219200I-50800J0D01*
G75*
G01*
X850900Y1219200D02*
G03*
X800100Y1168400I0J-50800D01*
G75*
G01*
X800100Y1079500D02*
G03*
X850900Y1028700I50800J0D01*
G75*
G01*
X1028705Y2921000D02*
G03*
X1028705Y3175000I0J127000D01*
D11*
G75*
G01*
X5017960Y1070120D02*
G03*
X5002721Y1085360I-15240J0D01*
G75*
G01*
X4852479Y1085360D02*
G03*
X4837240Y1070120I1J-15240D01*
G75*
G01*
X5017960Y707880D02*
G02*
X5002721Y692640I-15240J0D01*
G75*
G01*
X4852479Y692640D02*
G02*
X4837240Y707880I1J15240D01*
G75*
G01*
X5259260Y1070120D02*
G03*
X5244021Y1085360I-15240J0D01*
G75*
G01*
X5093779Y1085360D02*
G03*
X5078540Y1070120I1J-15240D01*
G75*
G01*
X5259260Y707880D02*
G02*
X5244021Y692640I-15240J0D01*
G75*
G01*
X5093779Y692640D02*
G02*
X5078540Y707880I1J15240D01*
D13*
G75*
G01*
X4522343Y1080696D02*
G02*
X4522340Y1230577I-1J74940D01*
G75*
G01*
X2236343Y1067996D02*
G02*
X2236340Y1217877I-1J74940D01*
G75*
G01*
X5372100Y4864100D02*
G03*
X5334000Y4902200I-38100J0D01*
G75*
G01*
X5334000Y4521200D02*
G03*
X5372100Y4559300I0J38100D01*
G75*
G01*
X3314700Y4559300D02*
G03*
X3352800Y4521200I38100J0D01*
G75*
G01*
X3352800Y4902200D02*
G03*
X3314700Y4864100I0J-38100D01*
G75*
G01*
X3340100Y4597400D02*
G03*
X3390900Y4546600I50800J0D01*
G75*
G01*
X3581400Y4813300D02*
G03*
X3517900Y4876800I-63500J0D01*
G75*
G01*
X3657600Y4876800D02*
G03*
X3606800Y4826000I0J-50800D01*
G75*
G01*
X1917700Y4330700D02*
G03*
X1955800Y4292600I38100J0D01*
G75*
G01
X4584090Y1571696D02*
G03X4584090Y1571696I-10008J0D01*
G75*
G01
X2298090Y1558996D02*
G03X2298090Y1558996I-10008J0D01*
G36*
X2882900Y4864100D02*
G01*
X2971800Y4864100D01*
X2971800Y4330700D01*
X2882900Y4330700D01*
G37*
G36*
X2628900Y4864100D02*
G01*
X2717800Y4864100D01*
X2717800Y4330700D01*
X2628900Y4330700D01*
G37*
G36*
X2374900Y4864100D02*
G01*
X2463800Y4864100D01*
X2463800Y4330700D01*
X2374900Y4330700D01*
G37*
G36*
X1943100Y4356100D02*
G01*
X2120900Y4356100D01*
X2120900Y4330700D01*
X1943100Y4330700D01*
G37*
X800100Y1219200D02*
G01*
X1816100Y1219200D01*
X1816100Y1028700D01*
X800100Y1028700D01*
X800100Y1219200D01*
X3086100Y1244600D02*
G01*
X4102100Y1244600D01*
X4102100Y1054100D01*
X3086100Y1054100D01*
X3086100Y1244600D01*
G36*
X158750Y4476750D02*
G01*
X196850Y4476750D01*
X196850Y4438650D01*
X158750Y4438650D01*
G37*
G36*
X196850Y4476750D02*
G01*
X234950Y4476750D01*
X234950Y4438650D01*
X196850Y4438650D01*
G37*
G36*
X234950Y4438650D02*
G01*
X273050Y4438650D01*
X273050Y4400550D01*
X234950Y4400550D01*
G37*
G36*
X120650Y4438650D02*
G01*
X158750Y4438650D01*
X158750Y4400550D01*
X120650Y4400550D01*
G37*
G36*
X1327150Y4425950D02*
G01*
X1365250Y4425950D01*
X1365250Y4387850D01*
X1327150Y4387850D01*
G37*
G36*
X1365250Y4464050D02*
G01*
X1403350Y4464050D01*
X1403350Y4425950D01*
X1365250Y4425950D01*
G37*
G36*
X1441450Y4425950D02*
G01*
X1479550Y4425950D01*
X1479550Y4387850D01*
X1441450Y4387850D01*
G37*
G36*
X1403350Y4464050D02*
G01*
X1441450Y4464050D01*
X1441450Y4425950D01*
X1403350Y4425950D01*
G37*
G36*
X863600Y4432300D02*
G01*
X901700Y4432300D01*
X901700Y4394200D01*
X863600Y4394200D01*
G37*
G36*
X901700Y4470400D02*
G01*
X939800Y4470400D01*
X939800Y4432300D01*
X901700Y4432300D01*
G37*
G36*
X977900Y4432300D02*
G01*
X1016000Y4432300D01*
X1016000Y4394200D01*
X977900Y4394200D01*
G37*
G36*
X939800Y4470400D02*
G01*
X977900Y4470400D01*
X977900Y4432300D01*
X939800Y4432300D01*
G37*
M02*
