G04 Layer: BottomSilkscreenLayer*
G04 EasyEDA v6.5.40, 2024-05-12 15:51:58*
G04 49c0d29adba348579b594a98eefbc0f5,633559c1653544b899bb7edc1c986e09,10*
G04 Gerber Generator version 0.2*
G04 Scale: 100 percent, Rotated: No, Reflected: No *
G04 Dimensions in millimeters *
G04 leading zeros omitted , absolute positions ,4 integer and 5 decimal *
%FSLAX45Y45*%
%MOMM*%

%ADD10C,0.2030*%

%LPD*%
G36*
X3664051Y3648659D02*
G01*
X3664051Y3603548D01*
X3712972Y3603548D01*
X3747617Y3603142D01*
X3748328Y3565347D01*
X3751478Y3562197D01*
X3786784Y3561740D01*
X3794251Y3562654D01*
X3796893Y3568446D01*
X3796893Y3603498D01*
X3831234Y3603498D01*
X3831844Y3601770D01*
X3832250Y3565347D01*
X3835400Y3562197D01*
X3957421Y3561486D01*
X3957889Y3478529D01*
X4032351Y3478529D01*
X4033265Y3477564D01*
X4033265Y3443782D01*
X4006697Y3443782D01*
X4006697Y3478529D01*
X3957889Y3478529D01*
X3958082Y3440328D01*
X3961282Y3437178D01*
X3999382Y3436518D01*
X4000042Y3315360D01*
X4003243Y3312210D01*
X4032910Y3311499D01*
X4033621Y3273704D01*
X4036822Y3270503D01*
X4072077Y3270046D01*
X4079544Y3271012D01*
X4082186Y3276752D01*
X4082237Y3311906D01*
X4080154Y3316732D01*
X4075277Y3318764D01*
X4040276Y3318764D01*
X4040276Y3395218D01*
X4074871Y3394811D01*
X4075582Y3357016D01*
X4078782Y3353866D01*
X4114037Y3353409D01*
X4121505Y3354324D01*
X4124147Y3360115D01*
X4124198Y3436874D01*
X4158792Y3436518D01*
X4159148Y3318764D01*
X4123842Y3318764D01*
X4118101Y3316173D01*
X4117187Y3310788D01*
X4117187Y3193796D01*
X4081881Y3193745D01*
X4076141Y3191154D01*
X4075402Y3186836D01*
X4200194Y3186836D01*
X4201109Y3185922D01*
X4201109Y3152140D01*
X4165803Y3152089D01*
X4160062Y3149498D01*
X4159148Y3144113D01*
X4159148Y3110433D01*
X4124198Y3110433D01*
X4124198Y3186836D01*
X4075402Y3186836D01*
X4075226Y3185820D01*
X4075226Y3152140D01*
X4006697Y3152140D01*
X4006697Y3186836D01*
X4032250Y3186836D01*
X4037634Y3187750D01*
X4040225Y3193440D01*
X4040276Y3228543D01*
X4038244Y3233420D01*
X4033316Y3235452D01*
X4006697Y3235452D01*
X4006697Y3270199D01*
X4004665Y3275076D01*
X3999737Y3277108D01*
X3964736Y3277108D01*
X3964736Y3395218D01*
X3962704Y3400094D01*
X3957777Y3402126D01*
X3922420Y3402076D01*
X3916629Y3399485D01*
X3915714Y3392068D01*
X3916121Y3273704D01*
X3919321Y3270503D01*
X3957421Y3269843D01*
X3957777Y3235452D01*
X3922420Y3235401D01*
X3916629Y3232810D01*
X3916046Y3228492D01*
X3998772Y3228492D01*
X3999687Y3227578D01*
X3999687Y3193796D01*
X3964736Y3193796D01*
X3964736Y3228492D01*
X3916046Y3228492D01*
X3915664Y3225393D01*
X3916121Y3190341D01*
X3919321Y3187192D01*
X3957421Y3186480D01*
X3957777Y3152140D01*
X3880815Y3152140D01*
X3880815Y3186887D01*
X3878783Y3191764D01*
X3873906Y3193796D01*
X3838854Y3193796D01*
X3838854Y3228543D01*
X3836822Y3233420D01*
X3831945Y3235452D01*
X3796893Y3235452D01*
X3796893Y3270199D01*
X3872788Y3270199D01*
X3878173Y3271062D01*
X3880815Y3276752D01*
X3880815Y3395218D01*
X3878783Y3400094D01*
X3873906Y3402126D01*
X3838498Y3402076D01*
X3832809Y3399485D01*
X3831894Y3394151D01*
X3831894Y3360470D01*
X3796893Y3360470D01*
X3796893Y3395218D01*
X3794861Y3400094D01*
X3789984Y3402126D01*
X3754932Y3402126D01*
X3754932Y3520236D01*
X3752900Y3525062D01*
X3748024Y3527145D01*
X3712972Y3527145D01*
X3712972Y3603548D01*
X3664051Y3603548D01*
X3664051Y3360470D01*
X3373831Y3360470D01*
X3373831Y3311855D01*
X3663086Y3311855D01*
X3664051Y3310940D01*
X3664051Y3277108D01*
X3545179Y3277108D01*
X3545179Y3311855D01*
X3495294Y3311855D01*
X3496208Y3310940D01*
X3496208Y3277108D01*
X3460902Y3277108D01*
X3455162Y3274517D01*
X3454247Y3269132D01*
X3454247Y3193796D01*
X3419297Y3193796D01*
X3419297Y3311855D01*
X3373831Y3311855D01*
X3373831Y3186887D01*
X3411931Y3186480D01*
X3412642Y3148685D01*
X3415842Y3145536D01*
X3451098Y3145078D01*
X3458565Y3145993D01*
X3461207Y3151784D01*
X3461258Y3186887D01*
X3495852Y3186480D01*
X3496208Y3110433D01*
X3460902Y3110433D01*
X3455162Y3107842D01*
X3454247Y3102457D01*
X3454247Y3077108D01*
X3373831Y3077108D01*
X3373831Y3028543D01*
X3453892Y3028188D01*
X3454603Y2990342D01*
X3457803Y2987192D01*
X3493058Y2986735D01*
X3500526Y2987649D01*
X3503168Y2993440D01*
X3503218Y3028543D01*
X3501136Y3033420D01*
X3496259Y3035452D01*
X3461258Y3035452D01*
X3461258Y3070199D01*
X3495141Y3070199D01*
X3500577Y3071063D01*
X3503168Y3076752D01*
X3503218Y3103524D01*
X3537102Y3103524D01*
X3542537Y3104438D01*
X3545128Y3110128D01*
X3545179Y3145180D01*
X3579063Y3145180D01*
X3584498Y3146094D01*
X3587089Y3151784D01*
X3587140Y3228543D01*
X3621735Y3228136D01*
X3622446Y3190341D01*
X3625646Y3187192D01*
X3660901Y3186734D01*
X3668369Y3187649D01*
X3671011Y3193440D01*
X3671062Y3270199D01*
X3704945Y3270199D01*
X3710381Y3271062D01*
X3712972Y3276752D01*
X3712972Y3395218D01*
X3747617Y3394811D01*
X3747973Y3152140D01*
X3628745Y3152089D01*
X3622903Y3149447D01*
X3621989Y3142030D01*
X3622446Y3107029D01*
X3625646Y3103880D01*
X3747617Y3103168D01*
X3747973Y3077108D01*
X3712667Y3077108D01*
X3706926Y3074517D01*
X3706193Y3070199D01*
X3788968Y3070199D01*
X3789934Y3069234D01*
X3789934Y3035452D01*
X3754932Y3035452D01*
X3754932Y3070199D01*
X3706193Y3070199D01*
X3706012Y3069132D01*
X3706012Y3035452D01*
X3670706Y3035452D01*
X3664965Y3032861D01*
X3664224Y3028492D01*
X3747008Y3028492D01*
X3747973Y3027578D01*
X3747973Y2993796D01*
X3712972Y2993796D01*
X3712972Y3028492D01*
X3664224Y3028492D01*
X3664051Y3027476D01*
X3664051Y2993796D01*
X3629101Y2993796D01*
X3629101Y3028543D01*
X3627018Y3033420D01*
X3622141Y3035452D01*
X3587140Y3035452D01*
X3587140Y3070199D01*
X3585057Y3075076D01*
X3580180Y3077108D01*
X3544824Y3077108D01*
X3539083Y3074517D01*
X3538169Y3069132D01*
X3538169Y2986836D01*
X3705047Y2986836D01*
X3706012Y2985922D01*
X3706012Y2952140D01*
X3671062Y2952140D01*
X3671062Y2986836D01*
X3621176Y2986836D01*
X3622090Y2985922D01*
X3622090Y2910433D01*
X3587140Y2910433D01*
X3587140Y2986836D01*
X3538169Y2986836D01*
X3538169Y2952140D01*
X3502863Y2952089D01*
X3497122Y2949498D01*
X3496208Y2944114D01*
X3496208Y2910433D01*
X3461258Y2910433D01*
X3461258Y2945231D01*
X3459226Y2950108D01*
X3454298Y2952140D01*
X3419297Y2952140D01*
X3419297Y2986887D01*
X3417265Y2991764D01*
X3412337Y2993796D01*
X3373831Y2993796D01*
X3373831Y2903524D01*
X3537254Y2903524D01*
X3538169Y2902559D01*
X3538169Y2868777D01*
X3503218Y2868777D01*
X3503218Y2903524D01*
X3373831Y2903524D01*
X3411931Y2903169D01*
X3412337Y2868777D01*
X3373831Y2868777D01*
X3373831Y2820212D01*
X3411931Y2819806D01*
X3412337Y2785465D01*
X3461258Y2785465D01*
X3461258Y2820162D01*
X3662984Y2820212D01*
X3668420Y2821076D01*
X3671011Y2826766D01*
X3671062Y2861868D01*
X3668979Y2866745D01*
X3664102Y2868777D01*
X3629101Y2868777D01*
X3629101Y2903524D01*
X3789578Y2903169D01*
X3790289Y2865374D01*
X3793439Y2862173D01*
X3828745Y2861716D01*
X3836212Y2862630D01*
X3838854Y2868422D01*
X3838854Y2903524D01*
X3872788Y2903524D01*
X3878173Y2904439D01*
X3880815Y2910128D01*
X3880815Y2945231D01*
X3878783Y2950108D01*
X3873906Y2952140D01*
X3838498Y2952089D01*
X3832809Y2949498D01*
X3831894Y2944114D01*
X3831894Y2910433D01*
X3796893Y2910433D01*
X3796893Y2945231D01*
X3794861Y2950108D01*
X3789984Y2952140D01*
X3754932Y2952140D01*
X3754932Y2986836D01*
X3788867Y2986836D01*
X3794302Y2987751D01*
X3796893Y2993440D01*
X3796893Y3028492D01*
X3830828Y3028543D01*
X3836212Y3029407D01*
X3838854Y3035096D01*
X3838854Y3103575D01*
X3836822Y3108401D01*
X3831945Y3110433D01*
X3796893Y3110433D01*
X3796893Y3186836D01*
X3831234Y3186836D01*
X3831844Y3185109D01*
X3832250Y3148685D01*
X3835400Y3145536D01*
X3873500Y3144824D01*
X3874211Y3107029D01*
X3877360Y3103880D01*
X3957421Y3103168D01*
X3957777Y3077108D01*
X3922420Y3077108D01*
X3916629Y3074466D01*
X3915664Y3067050D01*
X3916081Y3035452D01*
X4006697Y3035452D01*
X4006697Y3070199D01*
X4032250Y3070199D01*
X4037634Y3071063D01*
X4040225Y3076752D01*
X4040276Y3103524D01*
X4116273Y3103524D01*
X4117187Y3102559D01*
X4117187Y3077108D01*
X4081881Y3077108D01*
X4076039Y3074466D01*
X4075513Y3070199D01*
X4158234Y3070199D01*
X4159148Y3069234D01*
X4159148Y3035452D01*
X4124198Y3035452D01*
X4124198Y3070199D01*
X4075513Y3070199D01*
X4075125Y3067050D01*
X4075582Y3031998D01*
X4078782Y3028848D01*
X4116832Y3028188D01*
X4117238Y2993796D01*
X4040276Y2993796D01*
X4040276Y3028543D01*
X4038244Y3033420D01*
X4033316Y3035452D01*
X3916081Y3035452D01*
X3916121Y3031998D01*
X3919321Y3028848D01*
X3957421Y3028188D01*
X3957777Y2993796D01*
X3922420Y2993745D01*
X3916629Y2991104D01*
X3916096Y2986836D01*
X4451908Y2986836D01*
X4452874Y2985922D01*
X4452874Y2952140D01*
X4417872Y2952140D01*
X4417872Y2986836D01*
X4326026Y2986836D01*
X4326991Y2985922D01*
X4326991Y2952140D01*
X4291990Y2952140D01*
X4291990Y2986836D01*
X4032351Y2986836D01*
X4033265Y2985922D01*
X4033265Y2945180D01*
X4284065Y2945180D01*
X4285030Y2944266D01*
X4285030Y2910433D01*
X4208119Y2910433D01*
X4208119Y2945180D01*
X4158234Y2945180D01*
X4159148Y2944266D01*
X4159148Y2903524D01*
X4326026Y2903524D01*
X4326991Y2902559D01*
X4326991Y2868777D01*
X4291990Y2868777D01*
X4291990Y2903524D01*
X4159148Y2903524D01*
X4159148Y2868777D01*
X4124198Y2868777D01*
X4124198Y2945180D01*
X4033265Y2945180D01*
X4033265Y2910433D01*
X4006697Y2910433D01*
X4006697Y2986836D01*
X3916096Y2986836D01*
X3915714Y2983738D01*
X3916121Y2907030D01*
X3919321Y2903880D01*
X3938371Y2903524D01*
X4074566Y2903524D01*
X4075176Y2901797D01*
X4075582Y2865374D01*
X4078782Y2862173D01*
X4116832Y2861513D01*
X4117543Y2823667D01*
X4120743Y2820517D01*
X4197959Y2820111D01*
X4205427Y2820974D01*
X4208068Y2826766D01*
X4208119Y2861868D01*
X4284675Y2861513D01*
X4285030Y2827121D01*
X4249724Y2827070D01*
X4243984Y2824530D01*
X4243070Y2819146D01*
X4243070Y2785465D01*
X4291990Y2785465D01*
X4291990Y2820162D01*
X4325924Y2820212D01*
X4331360Y2821076D01*
X4333951Y2826766D01*
X4333951Y2861868D01*
X4368596Y2861513D01*
X4369308Y2823667D01*
X4372457Y2820517D01*
X4407763Y2820060D01*
X4415231Y2820974D01*
X4417872Y2826766D01*
X4417872Y2861868D01*
X4415840Y2866745D01*
X4410964Y2868777D01*
X4375912Y2868777D01*
X4375912Y2903575D01*
X4373880Y2908401D01*
X4369003Y2910433D01*
X4333951Y2910433D01*
X4333951Y2945180D01*
X4410252Y2945180D01*
X4410862Y2943453D01*
X4411268Y2907030D01*
X4414418Y2903880D01*
X4494479Y2903169D01*
X4494834Y2827121D01*
X4459478Y2827070D01*
X4453788Y2824530D01*
X4452874Y2819146D01*
X4452874Y2785465D01*
X4243070Y2785465D01*
X4243070Y2702102D01*
X4207764Y2702102D01*
X4201922Y2699461D01*
X4201007Y2692044D01*
X4201464Y2615336D01*
X4204665Y2612186D01*
X4242714Y2611475D01*
X4243070Y2577134D01*
X4207764Y2577084D01*
X4202023Y2574493D01*
X4201109Y2569159D01*
X4201109Y2535478D01*
X4166158Y2535478D01*
X4166158Y2570226D01*
X4164076Y2575102D01*
X4159199Y2577134D01*
X4124198Y2577134D01*
X4124198Y2611831D01*
X4158081Y2611882D01*
X4163517Y2612745D01*
X4166108Y2618435D01*
X4166158Y2653538D01*
X4164076Y2658414D01*
X4159199Y2660446D01*
X4124198Y2660446D01*
X4124198Y2778556D01*
X4122115Y2783433D01*
X4117238Y2785465D01*
X4040276Y2785465D01*
X4040276Y2903524D01*
X3938371Y2903524D01*
X3957421Y2903169D01*
X3957777Y2868777D01*
X3922420Y2868777D01*
X3916679Y2866186D01*
X3915988Y2861818D01*
X3998772Y2861818D01*
X3999687Y2860903D01*
X3999687Y2827121D01*
X3964736Y2827121D01*
X3964736Y2861818D01*
X3915988Y2861818D01*
X3915816Y2860802D01*
X3915816Y2827121D01*
X3880459Y2827070D01*
X3874770Y2824530D01*
X3873855Y2819146D01*
X3873855Y2778506D01*
X3956812Y2778506D01*
X3957777Y2777591D01*
X3957777Y2743809D01*
X3922776Y2743809D01*
X3922776Y2778506D01*
X3873855Y2778506D01*
X3873855Y2702102D01*
X3838854Y2702102D01*
X3838854Y2736900D01*
X3836822Y2741777D01*
X3831945Y2743809D01*
X3796893Y2743809D01*
X3796893Y2778506D01*
X3830828Y2778506D01*
X3836212Y2779420D01*
X3838854Y2785110D01*
X3838854Y2820212D01*
X3836822Y2825089D01*
X3831945Y2827121D01*
X3754628Y2827070D01*
X3748786Y2824480D01*
X3747871Y2817063D01*
X3748328Y2698699D01*
X3751478Y2695549D01*
X3791508Y2695194D01*
X3914851Y2695194D01*
X3915816Y2694228D01*
X3915816Y2660446D01*
X3880815Y2660446D01*
X3880815Y2695194D01*
X3791508Y2695194D01*
X3831539Y2694838D01*
X3831894Y2618790D01*
X3964736Y2618790D01*
X3964736Y2653538D01*
X3998671Y2653538D01*
X4004056Y2654401D01*
X4006697Y2660091D01*
X4006697Y2778506D01*
X4032605Y2778506D01*
X4033265Y2776778D01*
X4033621Y2698699D01*
X4036822Y2695549D01*
X4074871Y2694838D01*
X4075277Y2660446D01*
X4039920Y2660446D01*
X4034180Y2657856D01*
X4033316Y2652471D01*
X4033265Y2618790D01*
X3796893Y2618790D01*
X3796893Y2653538D01*
X3794861Y2658414D01*
X3789984Y2660446D01*
X3754628Y2660446D01*
X3748887Y2657856D01*
X3747973Y2652471D01*
X3747973Y2577134D01*
X3629101Y2577134D01*
X3629101Y2611882D01*
X3627018Y2616758D01*
X3622141Y2618790D01*
X3586784Y2618740D01*
X3581044Y2616149D01*
X3580129Y2610815D01*
X3580129Y2577134D01*
X3545179Y2577134D01*
X3545179Y2653538D01*
X3543096Y2658414D01*
X3538220Y2660446D01*
X3503218Y2660446D01*
X3503218Y2695194D01*
X3537102Y2695194D01*
X3542537Y2696057D01*
X3545128Y2701798D01*
X3545179Y2736900D01*
X3543096Y2741777D01*
X3538220Y2743809D01*
X3503218Y2743809D01*
X3503218Y2778556D01*
X3501136Y2783433D01*
X3496259Y2785465D01*
X3373831Y2785465D01*
X3373831Y2695194D01*
X3411270Y2695194D01*
X3416655Y2696057D01*
X3419246Y2701798D01*
X3419297Y2778556D01*
X3453892Y2778150D01*
X3454247Y2660446D01*
X3373831Y2660446D01*
X3373831Y2611882D01*
X3411931Y2611475D01*
X3412073Y2570175D01*
X3495294Y2570175D01*
X3496208Y2569260D01*
X3496208Y2493772D01*
X3461258Y2493772D01*
X3461258Y2570175D01*
X3412073Y2570175D01*
X3412286Y2493772D01*
X3373831Y2493772D01*
X3373831Y2448661D01*
X3419297Y2448661D01*
X3419297Y2486863D01*
X3453892Y2486507D01*
X3454298Y2448661D01*
X3545179Y2448661D01*
X3545179Y2528519D01*
X3621735Y2528163D01*
X3622090Y2493772D01*
X3671062Y2493772D01*
X3671062Y2528519D01*
X3746906Y2528519D01*
X3752342Y2529433D01*
X3754932Y2535123D01*
X3754932Y2570175D01*
X3788968Y2570175D01*
X3789934Y2569260D01*
X3789934Y2493772D01*
X3586784Y2493772D01*
X3581044Y2491181D01*
X3580129Y2485796D01*
X3580129Y2448661D01*
X3629101Y2448661D01*
X3629101Y2486863D01*
X3663696Y2486507D01*
X3664051Y2448661D01*
X3796893Y2448661D01*
X3796893Y2486863D01*
X3831539Y2486507D01*
X3831894Y2448661D01*
X3880815Y2448661D01*
X3880815Y2570226D01*
X3878783Y2575102D01*
X3873906Y2577134D01*
X3838854Y2577134D01*
X3838854Y2611882D01*
X4074566Y2611831D01*
X4075176Y2610104D01*
X4075582Y2573680D01*
X4078782Y2570530D01*
X4116832Y2569819D01*
X4117187Y2493772D01*
X4040276Y2493772D01*
X4040276Y2611831D01*
X3848430Y2611831D01*
X3915460Y2611475D01*
X3915538Y2570175D01*
X3998772Y2570175D01*
X3999687Y2569260D01*
X3999687Y2535478D01*
X3964736Y2535478D01*
X3964736Y2570175D01*
X3915538Y2570175D01*
X3915816Y2448661D01*
X4208119Y2448661D01*
X4208119Y2528519D01*
X4242714Y2528163D01*
X4243070Y2448661D01*
X4291990Y2448661D01*
X4291990Y2736850D01*
X4573828Y2736850D01*
X4573828Y2785465D01*
X4543755Y2785465D01*
X4543755Y2820162D01*
X4573828Y2820162D01*
X4573828Y2868777D01*
X4543755Y2868777D01*
X4543755Y2903524D01*
X4573828Y2903524D01*
X4573828Y2952140D01*
X4543755Y2952140D01*
X4543755Y2986887D01*
X4541723Y2991764D01*
X4536795Y2993796D01*
X4459833Y2993796D01*
X4459833Y3028492D01*
X4493768Y3028543D01*
X4499152Y3029407D01*
X4501794Y3035096D01*
X4501794Y3103524D01*
X4535728Y3103524D01*
X4541113Y3104438D01*
X4543755Y3110128D01*
X4543755Y3145180D01*
X4573828Y3145180D01*
X4573828Y3277108D01*
X4543399Y3277108D01*
X4537659Y3274517D01*
X4536795Y3269132D01*
X4536795Y3235452D01*
X4501438Y3235401D01*
X4495698Y3232861D01*
X4494834Y3227476D01*
X4494834Y3193796D01*
X4459478Y3193745D01*
X4453788Y3191154D01*
X4453049Y3186836D01*
X4535830Y3186836D01*
X4536795Y3185922D01*
X4536795Y3152140D01*
X4501794Y3152140D01*
X4501794Y3186836D01*
X4453049Y3186836D01*
X4452874Y3185820D01*
X4452874Y3152140D01*
X4375912Y3152140D01*
X4375912Y3186887D01*
X4373880Y3191764D01*
X4369003Y3193796D01*
X4291685Y3193745D01*
X4285843Y3191154D01*
X4284929Y3183737D01*
X4285386Y3148685D01*
X4288536Y3145536D01*
X4307586Y3145180D01*
X4493869Y3145180D01*
X4494834Y3144266D01*
X4494834Y3110433D01*
X4459833Y3110433D01*
X4459833Y3145180D01*
X4307586Y3145180D01*
X4326636Y3144824D01*
X4326991Y3110433D01*
X4249724Y3110433D01*
X4243882Y3107791D01*
X4243356Y3103524D01*
X4451908Y3103524D01*
X4452874Y3102559D01*
X4452874Y3077108D01*
X4417872Y3077108D01*
X4417872Y3103524D01*
X4243356Y3103524D01*
X4242917Y3100273D01*
X4243425Y3073704D01*
X4246626Y3070504D01*
X4286605Y3070199D01*
X4409948Y3070199D01*
X4410913Y3069234D01*
X4410913Y3035452D01*
X4375912Y3035452D01*
X4375912Y3070199D01*
X4286605Y3070199D01*
X4326636Y3069844D01*
X4326991Y3035452D01*
X4249724Y3035452D01*
X4243984Y3032861D01*
X4243242Y3028492D01*
X4367987Y3028492D01*
X4368952Y3027578D01*
X4368952Y2993796D01*
X4333951Y2993796D01*
X4333951Y3028492D01*
X4243242Y3028492D01*
X4243070Y3027476D01*
X4243070Y2993796D01*
X4208119Y2993796D01*
X4208119Y3145180D01*
X4242003Y3145180D01*
X4247438Y3146094D01*
X4250029Y3151784D01*
X4250080Y3228543D01*
X4247997Y3233420D01*
X4243120Y3235452D01*
X4166158Y3235452D01*
X4166158Y3270199D01*
X4242003Y3270199D01*
X4247438Y3271062D01*
X4250029Y3276752D01*
X4250080Y3311855D01*
X4451908Y3311855D01*
X4452874Y3310940D01*
X4452874Y3277108D01*
X4417872Y3277108D01*
X4417872Y3311855D01*
X4250080Y3311855D01*
X4326636Y3311499D01*
X4326991Y3277108D01*
X4291685Y3277108D01*
X4285843Y3274466D01*
X4284929Y3267049D01*
X4285386Y3231997D01*
X4288536Y3228848D01*
X4323842Y3228390D01*
X4331309Y3229305D01*
X4333951Y3235096D01*
X4333951Y3270199D01*
X4410557Y3269843D01*
X4411268Y3231997D01*
X4414418Y3228848D01*
X4449724Y3228390D01*
X4457192Y3229305D01*
X4459833Y3235096D01*
X4459833Y3270199D01*
X4493768Y3270199D01*
X4499152Y3271062D01*
X4501794Y3276752D01*
X4501794Y3311855D01*
X4573828Y3311855D01*
X4573828Y3360470D01*
X4291990Y3360470D01*
X4291990Y3648659D01*
X4159046Y3648659D01*
X4159504Y3607003D01*
X4162704Y3603853D01*
X4242714Y3603142D01*
X4243070Y3527145D01*
X4208119Y3527145D01*
X4208119Y3561892D01*
X4206036Y3566769D01*
X4201160Y3568801D01*
X4165803Y3568750D01*
X4160062Y3566160D01*
X4159148Y3560826D01*
X4159148Y3527145D01*
X4123842Y3527094D01*
X4118101Y3524504D01*
X4117368Y3520186D01*
X4200448Y3520186D01*
X4201058Y3518458D01*
X4201464Y3482035D01*
X4204665Y3478834D01*
X4242714Y3478174D01*
X4243070Y3318764D01*
X4208119Y3318764D01*
X4208119Y3436874D01*
X4206036Y3441750D01*
X4201160Y3443782D01*
X4166158Y3443782D01*
X4166158Y3520186D01*
X4117368Y3520186D01*
X4117187Y3519119D01*
X4117187Y3485438D01*
X4040276Y3485438D01*
X4040276Y3520186D01*
X4074160Y3520186D01*
X4079595Y3521100D01*
X4082186Y3526790D01*
X4082237Y3561892D01*
X4080154Y3566769D01*
X4075277Y3568801D01*
X4040276Y3568801D01*
X4040276Y3648659D01*
X3999687Y3648659D01*
X3999687Y3568801D01*
X3964736Y3568801D01*
X3964736Y3648659D01*
X3915816Y3648659D01*
X3915816Y3610457D01*
X3880815Y3610457D01*
X3880815Y3648659D01*
G37*
G36*
X4333646Y3610406D02*
G01*
X4327804Y3607815D01*
X4326890Y3600399D01*
X4326987Y3561842D01*
X4493869Y3561842D01*
X4494834Y3560927D01*
X4494834Y3443782D01*
X4375912Y3443782D01*
X4375912Y3561842D01*
X4326987Y3561842D01*
X4327347Y3398672D01*
X4330496Y3395522D01*
X4533646Y3395116D01*
X4541113Y3395979D01*
X4543755Y3401771D01*
X4543755Y3603548D01*
X4541723Y3608425D01*
X4537100Y3610406D01*
G37*
G36*
X3418941Y3610406D02*
G01*
X3413099Y3607815D01*
X3412236Y3600399D01*
X3412313Y3561842D01*
X3579215Y3561842D01*
X3580129Y3560927D01*
X3580129Y3443782D01*
X3461258Y3443782D01*
X3461258Y3561842D01*
X3412313Y3561842D01*
X3412642Y3398672D01*
X3415842Y3395522D01*
X3618941Y3395116D01*
X3626408Y3395979D01*
X3629050Y3401771D01*
X3629101Y3603548D01*
X3627018Y3608425D01*
X3622446Y3610406D01*
G37*
G36*
X3880459Y3527094D02*
G01*
X3874770Y3524504D01*
X3873855Y3519119D01*
X3873855Y3485438D01*
X3838498Y3485438D01*
X3832707Y3482797D01*
X3831742Y3475380D01*
X3832250Y3440328D01*
X3835400Y3437178D01*
X3912666Y3436772D01*
X3920134Y3437636D01*
X3922776Y3443427D01*
X3922776Y3520236D01*
X3920744Y3525062D01*
X3916121Y3527044D01*
G37*
G36*
X4543399Y3077108D02*
G01*
X4537608Y3074466D01*
X4536643Y3067050D01*
X4537100Y3031998D01*
X4540300Y3028848D01*
X4573828Y3028391D01*
X4573828Y3077108D01*
G37*
G36*
X4165803Y2785414D02*
G01*
X4159961Y2782773D01*
X4159046Y2775407D01*
X4159504Y2740355D01*
X4162704Y2737205D01*
X4197959Y2736748D01*
X4205427Y2737662D01*
X4208068Y2743454D01*
X4208119Y2778556D01*
X4206036Y2783433D01*
X4201464Y2785414D01*
G37*
G36*
X3586784Y2785414D02*
G01*
X3580942Y2782773D01*
X3580028Y2775407D01*
X3580193Y2736850D01*
X3663086Y2736850D01*
X3664051Y2735935D01*
X3664051Y2702102D01*
X3629101Y2702102D01*
X3629101Y2736850D01*
X3580193Y2736850D01*
X3580485Y2657043D01*
X3583686Y2653842D01*
X3702862Y2653436D01*
X3710330Y2654300D01*
X3712972Y2660091D01*
X3712972Y2778556D01*
X3710940Y2783433D01*
X3706368Y2785414D01*
G37*
G36*
X4333646Y2702102D02*
G01*
X4327804Y2699461D01*
X4326890Y2692044D01*
X4326986Y2653538D01*
X4493869Y2653538D01*
X4494834Y2652572D01*
X4494834Y2535478D01*
X4375912Y2535478D01*
X4375912Y2653538D01*
X4326986Y2653538D01*
X4327347Y2490368D01*
X4330496Y2487168D01*
X4533646Y2486761D01*
X4541113Y2487676D01*
X4543755Y2493467D01*
X4543755Y2695244D01*
X4541723Y2700070D01*
X4537100Y2702052D01*
G37*
D10*
X242570Y4499355D02*
G01*
X433578Y4572000D01*
X242570Y4499355D02*
G01*
X433578Y4426457D01*
X370078Y4544821D02*
G01*
X370078Y4453889D01*
X242570Y4303013D02*
G01*
X433578Y4303013D01*
X242570Y4366513D02*
G01*
X242570Y4239260D01*
X288036Y4170171D02*
G01*
X279145Y4170171D01*
X260857Y4161028D01*
X251713Y4151884D01*
X242570Y4133850D01*
X242570Y4097528D01*
X251713Y4079239D01*
X260857Y4070095D01*
X279145Y4061205D01*
X297179Y4061205D01*
X315468Y4070095D01*
X342645Y4088384D01*
X433578Y4179315D01*
X433578Y4052062D01*
X242570Y3946652D02*
G01*
X251713Y3973829D01*
X270002Y3982973D01*
X288036Y3982973D01*
X306323Y3973829D01*
X315468Y3955542D01*
X324612Y3919220D01*
X333502Y3892042D01*
X351789Y3873754D01*
X370078Y3864610D01*
X397255Y3864610D01*
X415289Y3873754D01*
X424434Y3882897D01*
X433578Y3910076D01*
X433578Y3946652D01*
X424434Y3973829D01*
X415289Y3982973D01*
X397255Y3992118D01*
X370078Y3992118D01*
X351789Y3982973D01*
X333502Y3964686D01*
X324612Y3937507D01*
X315468Y3901186D01*
X306323Y3882897D01*
X288036Y3873754D01*
X270002Y3873754D01*
X251713Y3882897D01*
X242570Y3910076D01*
X242570Y3946652D01*
X288036Y3668268D02*
G01*
X270002Y3677412D01*
X251713Y3695700D01*
X242570Y3713734D01*
X242570Y3750310D01*
X251713Y3768344D01*
X270002Y3786631D01*
X288036Y3795521D01*
X315468Y3804665D01*
X360934Y3804665D01*
X388112Y3795521D01*
X406400Y3786631D01*
X424434Y3768344D01*
X433578Y3750310D01*
X433578Y3713734D01*
X424434Y3695700D01*
X406400Y3677412D01*
X388112Y3668268D01*
X351789Y3608323D02*
G01*
X351789Y3444747D01*
X242570Y3384804D02*
G01*
X433578Y3384804D01*
X242570Y3384804D02*
G01*
X242570Y3266439D01*
X333502Y3384804D02*
G01*
X333502Y3311905D01*
X433578Y3384804D02*
G01*
X433578Y3266439D01*
X242570Y3206495D02*
G01*
X433578Y3206495D01*
X242570Y3206495D02*
G01*
X242570Y3088386D01*
X333502Y3206495D02*
G01*
X333502Y3133852D01*
X433578Y3206495D02*
G01*
X433578Y3088386D01*
X242570Y3028442D02*
G01*
X433578Y3028442D01*
X242570Y3028442D02*
G01*
X242570Y2946654D01*
X251713Y2919221D01*
X260857Y2910078D01*
X279145Y2901187D01*
X306323Y2901187D01*
X324612Y2910078D01*
X333502Y2919221D01*
X342645Y2946654D01*
X342645Y3028442D01*
X242570Y2840989D02*
G01*
X433578Y2840989D01*
X242570Y2840989D02*
G01*
X242570Y2759202D01*
X251713Y2732023D01*
X260857Y2722879D01*
X279145Y2713736D01*
X297179Y2713736D01*
X315468Y2722879D01*
X324612Y2732023D01*
X333502Y2759202D01*
X333502Y2840989D01*
X333502Y2777489D02*
G01*
X433578Y2713736D01*
X242570Y2599181D02*
G01*
X251713Y2617470D01*
X270002Y2635757D01*
X288036Y2644647D01*
X315468Y2653792D01*
X360934Y2653792D01*
X388112Y2644647D01*
X406400Y2635757D01*
X424434Y2617470D01*
X433578Y2599181D01*
X433578Y2562860D01*
X424434Y2544826D01*
X406400Y2526537D01*
X388112Y2517394D01*
X360934Y2508250D01*
X315468Y2508250D01*
X288036Y2517394D01*
X270002Y2526537D01*
X251713Y2544826D01*
X242570Y2562860D01*
X242570Y2599181D01*
X242570Y2448305D02*
G01*
X433578Y2448305D01*
X242570Y2448305D02*
G01*
X433578Y2375662D01*
X242570Y2303018D02*
G01*
X433578Y2375662D01*
X242570Y2303018D02*
G01*
X433578Y2303018D01*
X544321Y4572000D02*
G01*
X735076Y4572000D01*
X544321Y4572000D02*
G01*
X544321Y4490212D01*
X553465Y4463034D01*
X562355Y4453889D01*
X580644Y4444745D01*
X607821Y4444745D01*
X626110Y4453889D01*
X635254Y4463034D01*
X644397Y4490212D01*
X644397Y4572000D01*
X607821Y4384802D02*
G01*
X735076Y4384802D01*
X662431Y4384802D02*
G01*
X635254Y4375657D01*
X616965Y4357370D01*
X607821Y4339336D01*
X607821Y4311904D01*
X607821Y4206494D02*
G01*
X616965Y4224781D01*
X635254Y4242815D01*
X662431Y4251960D01*
X680720Y4251960D01*
X707897Y4242815D01*
X726186Y4224781D01*
X735076Y4206494D01*
X735076Y4179315D01*
X726186Y4161028D01*
X707897Y4142994D01*
X680720Y4133850D01*
X662431Y4133850D01*
X635254Y4142994D01*
X616965Y4161028D01*
X607821Y4179315D01*
X607821Y4206494D01*
X607821Y3964686D02*
G01*
X753363Y3964686D01*
X780542Y3973829D01*
X789686Y3982973D01*
X798829Y4001007D01*
X798829Y4028439D01*
X789686Y4046473D01*
X635254Y3964686D02*
G01*
X616965Y3982973D01*
X607821Y4001007D01*
X607821Y4028439D01*
X616965Y4046473D01*
X635254Y4064762D01*
X662431Y4073905D01*
X680720Y4073905D01*
X707897Y4064762D01*
X726186Y4046473D01*
X735076Y4028439D01*
X735076Y4001007D01*
X726186Y3982973D01*
X707897Y3964686D01*
X607821Y3904742D02*
G01*
X735076Y3904742D01*
X662431Y3904742D02*
G01*
X635254Y3895597D01*
X616965Y3877563D01*
X607821Y3859276D01*
X607821Y3832097D01*
X607821Y3662934D02*
G01*
X735076Y3662934D01*
X635254Y3662934D02*
G01*
X616965Y3680968D01*
X607821Y3699255D01*
X607821Y3726434D01*
X616965Y3744721D01*
X635254Y3763010D01*
X662431Y3771900D01*
X680720Y3771900D01*
X707897Y3763010D01*
X726186Y3744721D01*
X735076Y3726434D01*
X735076Y3699255D01*
X726186Y3680968D01*
X707897Y3662934D01*
X607821Y3602989D02*
G01*
X735076Y3602989D01*
X644397Y3602989D02*
G01*
X616965Y3575557D01*
X607821Y3557523D01*
X607821Y3530092D01*
X616965Y3512057D01*
X644397Y3502913D01*
X735076Y3502913D01*
X644397Y3502913D02*
G01*
X616965Y3475736D01*
X607821Y3457447D01*
X607821Y3430270D01*
X616965Y3411981D01*
X644397Y3402837D01*
X735076Y3402837D01*
X607821Y3342894D02*
G01*
X735076Y3342894D01*
X644397Y3342894D02*
G01*
X616965Y3315715D01*
X607821Y3297428D01*
X607821Y3270250D01*
X616965Y3251962D01*
X644397Y3242818D01*
X735076Y3242818D01*
X644397Y3242818D02*
G01*
X616965Y3215639D01*
X607821Y3197352D01*
X607821Y3170173D01*
X616965Y3151886D01*
X644397Y3142995D01*
X735076Y3142995D01*
X662431Y3082797D02*
G01*
X662431Y2973831D01*
X644397Y2973831D01*
X626110Y2982976D01*
X616965Y2992120D01*
X607821Y3010154D01*
X607821Y3037331D01*
X616965Y3055620D01*
X635254Y3073907D01*
X662431Y3082797D01*
X680720Y3082797D01*
X707897Y3073907D01*
X726186Y3055620D01*
X735076Y3037331D01*
X735076Y3010154D01*
X726186Y2992120D01*
X707897Y2973831D01*
X607821Y2913887D02*
G01*
X735076Y2913887D01*
X662431Y2913887D02*
G01*
X635254Y2904744D01*
X616965Y2886455D01*
X607821Y2868421D01*
X607821Y2840989D01*
X571500Y2513837D02*
G01*
X553465Y2532126D01*
X544321Y2559304D01*
X544321Y2595626D01*
X553465Y2622804D01*
X571500Y2641092D01*
X589787Y2641092D01*
X607821Y2631947D01*
X616965Y2622804D01*
X626110Y2604770D01*
X644397Y2550160D01*
X653287Y2532126D01*
X662431Y2522981D01*
X680720Y2513837D01*
X707897Y2513837D01*
X726186Y2532126D01*
X735076Y2559304D01*
X735076Y2595626D01*
X726186Y2622804D01*
X707897Y2641092D01*
X544321Y2453894D02*
G01*
X735076Y2453894D01*
X644397Y2453894D02*
G01*
X616965Y2426462D01*
X607821Y2408428D01*
X607821Y2380995D01*
X616965Y2362962D01*
X644397Y2353818D01*
X735076Y2353818D01*
X544321Y2293873D02*
G01*
X553465Y2284729D01*
X544321Y2275586D01*
X535178Y2284729D01*
X544321Y2293873D01*
X607821Y2284729D02*
G01*
X735076Y2284729D01*
X662431Y2215642D02*
G01*
X662431Y2106676D01*
X644397Y2106676D01*
X626110Y2115565D01*
X616965Y2124710D01*
X607821Y2142997D01*
X607821Y2170176D01*
X616965Y2188463D01*
X635254Y2206497D01*
X662431Y2215642D01*
X680720Y2215642D01*
X707897Y2206497D01*
X726186Y2188463D01*
X735076Y2170176D01*
X735076Y2142997D01*
X726186Y2124710D01*
X707897Y2106676D01*
X544321Y2046478D02*
G01*
X735076Y2046478D01*
X544321Y1877568D02*
G01*
X735076Y1877568D01*
X635254Y1877568D02*
G01*
X616965Y1895602D01*
X607821Y1913889D01*
X607821Y1941068D01*
X616965Y1959355D01*
X635254Y1977389D01*
X662431Y1986534D01*
X680720Y1986534D01*
X707897Y1977389D01*
X726186Y1959355D01*
X735076Y1941068D01*
X735076Y1913889D01*
X726186Y1895602D01*
X707897Y1877568D01*
M02*
