G04 Layer: BottomSolderMaskLayer*
G04 EasyEDA v6.5.40, 2024-05-12 15:51:58*
G04 49c0d29adba348579b594a98eefbc0f5,633559c1653544b899bb7edc1c986e09,10*
G04 Gerber Generator version 0.2*
G04 Scale: 100 percent, Rotated: No, Reflected: No *
G04 Dimensions in millimeters *
G04 leading zeros omitted , absolute positions ,4 integer and 5 decimal *
%FSLAX45Y45*%
%MOMM*%

%AMMACRO1*1,1,$1,$2,$3*1,1,$1,$4,$5*1,1,$1,0-$2,0-$3*1,1,$1,0-$4,0-$5*20,1,$1,$2,$3,$4,$5,0*20,1,$1,$4,$5,0-$2,0-$3,0*20,1,$1,0-$2,0-$3,0-$4,0-$5,0*20,1,$1,0-$4,0-$5,$2,$3,0*4,1,4,$2,$3,$4,$5,0-$2,0-$3,0-$4,0-$5,$2,$3,0*%
%ADD10C,2.0828*%
%ADD11MACRO1,0.1016X0.7874X-0.7874X-0.7874X-0.7874*%
%ADD12C,1.6764*%
%ADD13MACRO1,0.1016X-0.7874X0.7874X0.7874X0.7874*%
%ADD14MACRO1,0.1016X0.85X0.85X0.85X-0.85*%
%ADD15C,1.8016*%

%LPD*%
D10*
G01*
X1155700Y2286000D03*
G01*
X1409700Y2286000D03*
G01*
X1663700Y2286000D03*
G01*
X1917700Y2286000D03*
G01*
X2171700Y2286000D03*
G01*
X2425700Y2286000D03*
G01*
X2679700Y2286000D03*
G01*
X2933700Y2286000D03*
G01*
X3187700Y2286000D03*
G01*
X3441700Y2286000D03*
G01*
X3695700Y2286000D03*
G01*
X3949700Y2286000D03*
G01*
X4203700Y2286000D03*
G01*
X4457700Y2286000D03*
G01*
X4457700Y3810000D03*
G01*
X4203700Y3810000D03*
G01*
X3695700Y3810000D03*
G01*
X3441700Y3810000D03*
G01*
X3187700Y3810000D03*
G01*
X2933700Y3810000D03*
G01*
X2679700Y3810000D03*
G01*
X2425700Y3810000D03*
G01*
X2171700Y3810000D03*
G01*
X1917700Y3810000D03*
G01*
X1663700Y3810000D03*
G01*
X1409700Y3810000D03*
G01*
X1155700Y3810000D03*
G01*
X3949700Y3810000D03*
D11*
G01*
X5245100Y5092700D03*
D12*
G01*
X4991100Y5092700D03*
G01*
X4737100Y5092700D03*
G01*
X4483100Y5092700D03*
G01*
X4229100Y5092700D03*
G01*
X3975100Y5092700D03*
G01*
X3721100Y5092700D03*
G01*
X3467100Y5092700D03*
G01*
X3060700Y5092700D03*
G01*
X2806700Y5092700D03*
G01*
X2552700Y5092700D03*
G01*
X2298700Y5092700D03*
G01*
X2044700Y5092700D03*
G01*
X1790700Y5092700D03*
G01*
X1536700Y5092700D03*
G01*
X1282700Y5092700D03*
G01*
X1028700Y5092700D03*
D13*
G01*
X774700Y5092700D03*
D12*
G01*
X5245100Y266700D03*
G01*
X4991100Y266700D03*
G01*
X4737100Y266700D03*
G01*
X4483100Y266700D03*
G01*
X4229100Y266700D03*
D13*
G01*
X3975100Y266700D03*
G01*
X1689100Y266700D03*
D12*
G01*
X1943100Y266700D03*
G01*
X2197100Y266700D03*
G01*
X2451100Y266700D03*
G01*
X2705100Y266700D03*
G01*
X2959100Y266700D03*
G01*
X3213100Y266700D03*
G01*
X3467100Y266700D03*
D14*
G01*
X4427091Y1535703D03*
D15*
G01*
X4173093Y1535704D03*
G01*
X2903093Y1535704D03*
G01*
X2649093Y1535704D03*
G01*
X3919093Y1535704D03*
G01*
X3665093Y1535704D03*
G01*
X3157093Y1535704D03*
G01*
X3411093Y1535704D03*
G01*
X2649093Y775685D03*
G01*
X2903093Y775685D03*
G01*
X3157093Y775685D03*
G01*
X3411093Y775685D03*
G01*
X3665093Y775685D03*
G01*
X3919093Y775685D03*
G01*
X4173093Y775685D03*
G01*
X4427093Y775685D03*
D14*
G01*
X2141091Y1523003D03*
D15*
G01*
X1887093Y1523004D03*
G01*
X617093Y1523004D03*
G01*
X363093Y1523004D03*
G01*
X1633093Y1523004D03*
G01*
X1379093Y1523004D03*
G01*
X871093Y1523004D03*
G01*
X1125093Y1523004D03*
G01*
X363093Y762985D03*
G01*
X617093Y762985D03*
G01*
X871093Y762985D03*
G01*
X1125093Y762985D03*
G01*
X1379093Y762985D03*
G01*
X1633093Y762985D03*
G01*
X1887093Y762985D03*
G01*
X2141093Y762985D03*
M02*
