G04 Layer: BottomLayer*
G04 EasyEDA v6.5.40, 2024-05-12 15:51:58*
G04 49c0d29adba348579b594a98eefbc0f5,633559c1653544b899bb7edc1c986e09,10*
G04 Gerber Generator version 0.2*
G04 Scale: 100 percent, Rotated: No, Reflected: No *
G04 Dimensions in millimeters *
G04 leading zeros omitted , absolute positions ,4 integer and 5 decimal *
%FSLAX45Y45*%
%MOMM*%

%ADD10C,0.2540*%
%ADD11C,1.8796*%
%ADD12R,1.5748X1.5748*%
%ADD13C,1.5748*%
%ADD14R,1.7000X1.7000*%
%ADD15C,1.7000*%
%ADD16C,0.0137*%

%LPD*%
G36*
X48768Y38608D02*
G01*
X44856Y39370D01*
X41605Y41605D01*
X39370Y44856D01*
X38608Y48768D01*
X38608Y5310632D01*
X39370Y5314543D01*
X41605Y5317794D01*
X44856Y5320030D01*
X48768Y5320792D01*
X5331764Y5320792D01*
X5335625Y5320030D01*
X5338927Y5317794D01*
X5470194Y5186527D01*
X5472430Y5183225D01*
X5473192Y5179364D01*
X5473192Y4051706D01*
X5473496Y4047896D01*
X5475528Y4040835D01*
X5478272Y4035958D01*
X5481066Y4032707D01*
X5724194Y3789527D01*
X5726430Y3786225D01*
X5727192Y3782364D01*
X5727192Y535635D01*
X5726430Y531774D01*
X5724194Y528472D01*
X5481066Y285292D01*
X5478576Y282397D01*
X5475020Y275945D01*
X5473496Y270560D01*
X5473192Y266293D01*
X5473192Y48768D01*
X5472430Y44856D01*
X5470194Y41605D01*
X5466943Y39370D01*
X5463032Y38608D01*
G37*

%LPC*%
G36*
X285699Y77012D02*
G01*
X304495Y77012D01*
X323240Y78943D01*
X341680Y82702D01*
X359664Y88341D01*
X376986Y95808D01*
X393446Y104952D01*
X408889Y115671D01*
X423164Y127965D01*
X436168Y141579D01*
X447649Y156514D01*
X457657Y172466D01*
X465937Y189382D01*
X472490Y207060D01*
X477164Y225247D01*
X480059Y243890D01*
X480974Y262686D01*
X480059Y281482D01*
X477164Y300126D01*
X472490Y318312D01*
X465937Y335991D01*
X457657Y352907D01*
X447649Y368858D01*
X436168Y383794D01*
X423164Y397408D01*
X408889Y409701D01*
X393446Y420420D01*
X376986Y429564D01*
X359664Y437032D01*
X341680Y442671D01*
X323240Y446430D01*
X304495Y448360D01*
X285699Y448360D01*
X266954Y446430D01*
X248513Y442671D01*
X230530Y437032D01*
X213207Y429564D01*
X196748Y420420D01*
X181305Y409701D01*
X167030Y397408D01*
X154025Y383794D01*
X142544Y368858D01*
X132537Y352907D01*
X124256Y335991D01*
X117703Y318312D01*
X113030Y300126D01*
X110134Y281482D01*
X109220Y262686D01*
X110134Y243890D01*
X113030Y225247D01*
X117703Y207060D01*
X124256Y189382D01*
X132537Y172466D01*
X142544Y156514D01*
X154025Y141579D01*
X167030Y127965D01*
X181305Y115671D01*
X196748Y104952D01*
X213207Y95808D01*
X230530Y88341D01*
X248513Y82702D01*
X266954Y78943D01*
G37*
G36*
X1943100Y162052D02*
G01*
X1956765Y162966D01*
X1970176Y165658D01*
X1983130Y170027D01*
X1995424Y176072D01*
X2006803Y183692D01*
X2017064Y192735D01*
X2026107Y202996D01*
X2033727Y214375D01*
X2039772Y226669D01*
X2044141Y239623D01*
X2046833Y253034D01*
X2047748Y266700D01*
X2046833Y280365D01*
X2044141Y293776D01*
X2039772Y306730D01*
X2033727Y319024D01*
X2026107Y330403D01*
X2017064Y340664D01*
X2006803Y349707D01*
X1995424Y357327D01*
X1983130Y363372D01*
X1970176Y367741D01*
X1956765Y370433D01*
X1943100Y371348D01*
X1929434Y370433D01*
X1916023Y367741D01*
X1903069Y363372D01*
X1890775Y357327D01*
X1879396Y349707D01*
X1869135Y340664D01*
X1860092Y330403D01*
X1852472Y319024D01*
X1846427Y306730D01*
X1842058Y293776D01*
X1839366Y280365D01*
X1838452Y266700D01*
X1839366Y253034D01*
X1842058Y239623D01*
X1846427Y226669D01*
X1852472Y214375D01*
X1860092Y202996D01*
X1869135Y192735D01*
X1879396Y183692D01*
X1890775Y176072D01*
X1903069Y170027D01*
X1916023Y165658D01*
X1929434Y162966D01*
G37*
G36*
X3467100Y162052D02*
G01*
X3480765Y162966D01*
X3494176Y165658D01*
X3507130Y170027D01*
X3519424Y176072D01*
X3530803Y183692D01*
X3541064Y192735D01*
X3550107Y202996D01*
X3557727Y214375D01*
X3563772Y226669D01*
X3568141Y239623D01*
X3570833Y253034D01*
X3571748Y266700D01*
X3570833Y280365D01*
X3568141Y293776D01*
X3563772Y306730D01*
X3557727Y319024D01*
X3550107Y330403D01*
X3541064Y340664D01*
X3530803Y349707D01*
X3519424Y357327D01*
X3507130Y363372D01*
X3494176Y367741D01*
X3480765Y370433D01*
X3467100Y371348D01*
X3453434Y370433D01*
X3440023Y367741D01*
X3427069Y363372D01*
X3414776Y357327D01*
X3403396Y349707D01*
X3393135Y340664D01*
X3384092Y330403D01*
X3376472Y319024D01*
X3370427Y306730D01*
X3366058Y293776D01*
X3363366Y280365D01*
X3362451Y266700D01*
X3363366Y253034D01*
X3366058Y239623D01*
X3370427Y226669D01*
X3376472Y214375D01*
X3384092Y202996D01*
X3393135Y192735D01*
X3403396Y183692D01*
X3414776Y176072D01*
X3427069Y170027D01*
X3440023Y165658D01*
X3453434Y162966D01*
G37*
G36*
X4229100Y162052D02*
G01*
X4242765Y162966D01*
X4256176Y165658D01*
X4269130Y170027D01*
X4281424Y176072D01*
X4292803Y183692D01*
X4303064Y192735D01*
X4312107Y202996D01*
X4319727Y214375D01*
X4325772Y226669D01*
X4330141Y239623D01*
X4332833Y253034D01*
X4333748Y266700D01*
X4332833Y280365D01*
X4330141Y293776D01*
X4325772Y306730D01*
X4319727Y319024D01*
X4312107Y330403D01*
X4303064Y340664D01*
X4292803Y349707D01*
X4281424Y357327D01*
X4269130Y363372D01*
X4256176Y367741D01*
X4242765Y370433D01*
X4229100Y371348D01*
X4215434Y370433D01*
X4202023Y367741D01*
X4189069Y363372D01*
X4176776Y357327D01*
X4165396Y349707D01*
X4155135Y340664D01*
X4146092Y330403D01*
X4138472Y319024D01*
X4132427Y306730D01*
X4128058Y293776D01*
X4125366Y280365D01*
X4124451Y266700D01*
X4125366Y253034D01*
X4128058Y239623D01*
X4132427Y226669D01*
X4138472Y214375D01*
X4146092Y202996D01*
X4155135Y192735D01*
X4165396Y183692D01*
X4176776Y176072D01*
X4189069Y170027D01*
X4202023Y165658D01*
X4215434Y162966D01*
G37*
G36*
X4483100Y162052D02*
G01*
X4496765Y162966D01*
X4510176Y165658D01*
X4523130Y170027D01*
X4535424Y176072D01*
X4546803Y183692D01*
X4557064Y192735D01*
X4566107Y202996D01*
X4573727Y214375D01*
X4579772Y226669D01*
X4584141Y239623D01*
X4586833Y253034D01*
X4587748Y266700D01*
X4586833Y280365D01*
X4584141Y293776D01*
X4579772Y306730D01*
X4573727Y319024D01*
X4566107Y330403D01*
X4557064Y340664D01*
X4546803Y349707D01*
X4535424Y357327D01*
X4523130Y363372D01*
X4510176Y367741D01*
X4496765Y370433D01*
X4483100Y371348D01*
X4469434Y370433D01*
X4456023Y367741D01*
X4443069Y363372D01*
X4430776Y357327D01*
X4419396Y349707D01*
X4409135Y340664D01*
X4400092Y330403D01*
X4392472Y319024D01*
X4386427Y306730D01*
X4382058Y293776D01*
X4379366Y280365D01*
X4378452Y266700D01*
X4379366Y253034D01*
X4382058Y239623D01*
X4386427Y226669D01*
X4392472Y214375D01*
X4400092Y202996D01*
X4409135Y192735D01*
X4419396Y183692D01*
X4430776Y176072D01*
X4443069Y170027D01*
X4456023Y165658D01*
X4469434Y162966D01*
G37*
G36*
X2451100Y162052D02*
G01*
X2464765Y162966D01*
X2478176Y165658D01*
X2491130Y170027D01*
X2503424Y176072D01*
X2514803Y183692D01*
X2525064Y192735D01*
X2534107Y202996D01*
X2541727Y214375D01*
X2547772Y226669D01*
X2552141Y239623D01*
X2554833Y253034D01*
X2555748Y266700D01*
X2554833Y280365D01*
X2552141Y293776D01*
X2547772Y306730D01*
X2541727Y319024D01*
X2534107Y330403D01*
X2525064Y340664D01*
X2514803Y349707D01*
X2503424Y357327D01*
X2491130Y363372D01*
X2478176Y367741D01*
X2464765Y370433D01*
X2451100Y371348D01*
X2437434Y370433D01*
X2424023Y367741D01*
X2411069Y363372D01*
X2398776Y357327D01*
X2387396Y349707D01*
X2377135Y340664D01*
X2368092Y330403D01*
X2360472Y319024D01*
X2354427Y306730D01*
X2350058Y293776D01*
X2347366Y280365D01*
X2346452Y266700D01*
X2347366Y253034D01*
X2350058Y239623D01*
X2354427Y226669D01*
X2360472Y214375D01*
X2368092Y202996D01*
X2377135Y192735D01*
X2387396Y183692D01*
X2398776Y176072D01*
X2411069Y170027D01*
X2424023Y165658D01*
X2437434Y162966D01*
G37*
G36*
X2705100Y162052D02*
G01*
X2718765Y162966D01*
X2732176Y165658D01*
X2745130Y170027D01*
X2757424Y176072D01*
X2768803Y183692D01*
X2779064Y192735D01*
X2788107Y202996D01*
X2795727Y214375D01*
X2801772Y226669D01*
X2806141Y239623D01*
X2808833Y253034D01*
X2809748Y266700D01*
X2808833Y280365D01*
X2806141Y293776D01*
X2801772Y306730D01*
X2795727Y319024D01*
X2788107Y330403D01*
X2779064Y340664D01*
X2768803Y349707D01*
X2757424Y357327D01*
X2745130Y363372D01*
X2732176Y367741D01*
X2718765Y370433D01*
X2705100Y371348D01*
X2691434Y370433D01*
X2678023Y367741D01*
X2665069Y363372D01*
X2652776Y357327D01*
X2641396Y349707D01*
X2631135Y340664D01*
X2622092Y330403D01*
X2614472Y319024D01*
X2608427Y306730D01*
X2604058Y293776D01*
X2601366Y280365D01*
X2600452Y266700D01*
X2601366Y253034D01*
X2604058Y239623D01*
X2608427Y226669D01*
X2614472Y214375D01*
X2622092Y202996D01*
X2631135Y192735D01*
X2641396Y183692D01*
X2652776Y176072D01*
X2665069Y170027D01*
X2678023Y165658D01*
X2691434Y162966D01*
G37*
G36*
X4991100Y162052D02*
G01*
X5004765Y162966D01*
X5018176Y165658D01*
X5031130Y170027D01*
X5043424Y176072D01*
X5054803Y183692D01*
X5065064Y192735D01*
X5074107Y202996D01*
X5081727Y214375D01*
X5087772Y226669D01*
X5092141Y239623D01*
X5094833Y253034D01*
X5095748Y266700D01*
X5094833Y280365D01*
X5092141Y293776D01*
X5087772Y306730D01*
X5081727Y319024D01*
X5074107Y330403D01*
X5065064Y340664D01*
X5054803Y349707D01*
X5043424Y357327D01*
X5031130Y363372D01*
X5018176Y367741D01*
X5004765Y370433D01*
X4991100Y371348D01*
X4977434Y370433D01*
X4964023Y367741D01*
X4951069Y363372D01*
X4938776Y357327D01*
X4927396Y349707D01*
X4917135Y340664D01*
X4908092Y330403D01*
X4900472Y319024D01*
X4894427Y306730D01*
X4890058Y293776D01*
X4887366Y280365D01*
X4886452Y266700D01*
X4887366Y253034D01*
X4890058Y239623D01*
X4894427Y226669D01*
X4900472Y214375D01*
X4908092Y202996D01*
X4917135Y192735D01*
X4927396Y183692D01*
X4938776Y176072D01*
X4951069Y170027D01*
X4964023Y165658D01*
X4977434Y162966D01*
G37*
G36*
X4737100Y162052D02*
G01*
X4750765Y162966D01*
X4764176Y165658D01*
X4777130Y170027D01*
X4789424Y176072D01*
X4800803Y183692D01*
X4811064Y192735D01*
X4820107Y202996D01*
X4827727Y214375D01*
X4833772Y226669D01*
X4838141Y239623D01*
X4840833Y253034D01*
X4841748Y266700D01*
X4840833Y280365D01*
X4838141Y293776D01*
X4833772Y306730D01*
X4827727Y319024D01*
X4820107Y330403D01*
X4811064Y340664D01*
X4800803Y349707D01*
X4789424Y357327D01*
X4777130Y363372D01*
X4764176Y367741D01*
X4750765Y370433D01*
X4737100Y371348D01*
X4723434Y370433D01*
X4710023Y367741D01*
X4697069Y363372D01*
X4684776Y357327D01*
X4673396Y349707D01*
X4663135Y340664D01*
X4654092Y330403D01*
X4646472Y319024D01*
X4640427Y306730D01*
X4636058Y293776D01*
X4633366Y280365D01*
X4632452Y266700D01*
X4633366Y253034D01*
X4636058Y239623D01*
X4640427Y226669D01*
X4646472Y214375D01*
X4654092Y202996D01*
X4663135Y192735D01*
X4673396Y183692D01*
X4684776Y176072D01*
X4697069Y170027D01*
X4710023Y165658D01*
X4723434Y162966D01*
G37*
G36*
X5245100Y162052D02*
G01*
X5258765Y162966D01*
X5272176Y165658D01*
X5285130Y170027D01*
X5297424Y176072D01*
X5308803Y183692D01*
X5319064Y192735D01*
X5328107Y202996D01*
X5335727Y214375D01*
X5341772Y226669D01*
X5346141Y239623D01*
X5348833Y253034D01*
X5349748Y266700D01*
X5348833Y280365D01*
X5346141Y293776D01*
X5341772Y306730D01*
X5335727Y319024D01*
X5328107Y330403D01*
X5319064Y340664D01*
X5308803Y349707D01*
X5297424Y357327D01*
X5285130Y363372D01*
X5272176Y367741D01*
X5258765Y370433D01*
X5245100Y371348D01*
X5231434Y370433D01*
X5218023Y367741D01*
X5205069Y363372D01*
X5192776Y357327D01*
X5181396Y349707D01*
X5171135Y340664D01*
X5162092Y330403D01*
X5154472Y319024D01*
X5148427Y306730D01*
X5144058Y293776D01*
X5141366Y280365D01*
X5140452Y266700D01*
X5141366Y253034D01*
X5144058Y239623D01*
X5148427Y226669D01*
X5154472Y214375D01*
X5162092Y202996D01*
X5171135Y192735D01*
X5181396Y183692D01*
X5192776Y176072D01*
X5205069Y170027D01*
X5218023Y165658D01*
X5231434Y162966D01*
G37*
G36*
X1610918Y162052D02*
G01*
X1767281Y162052D01*
X1773580Y162763D01*
X1779066Y164693D01*
X1783943Y167741D01*
X1788058Y171856D01*
X1791106Y176733D01*
X1793036Y182219D01*
X1793748Y188518D01*
X1793748Y344881D01*
X1793036Y351180D01*
X1791106Y356666D01*
X1788058Y361543D01*
X1783943Y365658D01*
X1779066Y368706D01*
X1773580Y370636D01*
X1767281Y371348D01*
X1610918Y371348D01*
X1604619Y370636D01*
X1599133Y368706D01*
X1594256Y365658D01*
X1590141Y361543D01*
X1587093Y356666D01*
X1585163Y351180D01*
X1584452Y344881D01*
X1584452Y188518D01*
X1585163Y182219D01*
X1587093Y176733D01*
X1590141Y171856D01*
X1594256Y167741D01*
X1599133Y164693D01*
X1604619Y162763D01*
G37*
G36*
X3896918Y162052D02*
G01*
X4053281Y162052D01*
X4059580Y162763D01*
X4065066Y164693D01*
X4069943Y167741D01*
X4074058Y171856D01*
X4077106Y176733D01*
X4079036Y182219D01*
X4079748Y188518D01*
X4079748Y344881D01*
X4079036Y351180D01*
X4077106Y356666D01*
X4074058Y361543D01*
X4069943Y365658D01*
X4065066Y368706D01*
X4059580Y370636D01*
X4053281Y371348D01*
X3896918Y371348D01*
X3890619Y370636D01*
X3885133Y368706D01*
X3880256Y365658D01*
X3876141Y361543D01*
X3873093Y356666D01*
X3871163Y351180D01*
X3870451Y344881D01*
X3870451Y188518D01*
X3871163Y182219D01*
X3873093Y176733D01*
X3876141Y171856D01*
X3880256Y167741D01*
X3885133Y164693D01*
X3890619Y162763D01*
G37*
G36*
X2197100Y162052D02*
G01*
X2210765Y162966D01*
X2224176Y165658D01*
X2237130Y170027D01*
X2249424Y176072D01*
X2260803Y183692D01*
X2271064Y192735D01*
X2280107Y202996D01*
X2287727Y214375D01*
X2293772Y226669D01*
X2298141Y239623D01*
X2300833Y253034D01*
X2301748Y266700D01*
X2300833Y280365D01*
X2298141Y293776D01*
X2293772Y306730D01*
X2287727Y319024D01*
X2280107Y330403D01*
X2271064Y340664D01*
X2260803Y349707D01*
X2249424Y357327D01*
X2237130Y363372D01*
X2224176Y367741D01*
X2210765Y370433D01*
X2197100Y371348D01*
X2190546Y370890D01*
X2186432Y371449D01*
X2182926Y373634D01*
X2180539Y376986D01*
X2179675Y381050D01*
X2179675Y652373D01*
X2180386Y656082D01*
X2182418Y659282D01*
X2185466Y661517D01*
X2195525Y666394D01*
X2207412Y674116D01*
X2218232Y683310D01*
X2227783Y693826D01*
X2235911Y705510D01*
X2242464Y718108D01*
X2247392Y731418D01*
X2250541Y745286D01*
X2251913Y759409D01*
X2251456Y773633D01*
X2249220Y787654D01*
X2245156Y801268D01*
X2239416Y814273D01*
X2232050Y826414D01*
X2223160Y837539D01*
X2212949Y847445D01*
X2201570Y855929D01*
X2189226Y862888D01*
X2176018Y868222D01*
X2162302Y871829D01*
X2148179Y873658D01*
X2134006Y873658D01*
X2119884Y871829D01*
X2106168Y868222D01*
X2092960Y862888D01*
X2080615Y855929D01*
X2069236Y847445D01*
X2059025Y837539D01*
X2050135Y826414D01*
X2042769Y814273D01*
X2037029Y801268D01*
X2032965Y787654D01*
X2030730Y773633D01*
X2030272Y759409D01*
X2031644Y745286D01*
X2034793Y731418D01*
X2039721Y718108D01*
X2046274Y705510D01*
X2054402Y693826D01*
X2063953Y683310D01*
X2074773Y674116D01*
X2086660Y666394D01*
X2096719Y661517D01*
X2099767Y659282D01*
X2101799Y656082D01*
X2102459Y652373D01*
X2102459Y323189D01*
X2103221Y315823D01*
X2103120Y313029D01*
X2102205Y310337D01*
X2100427Y306730D01*
X2096058Y293776D01*
X2093366Y280365D01*
X2092452Y266700D01*
X2093366Y253034D01*
X2096058Y239623D01*
X2100427Y226669D01*
X2106472Y214375D01*
X2114092Y202996D01*
X2123135Y192735D01*
X2133396Y183692D01*
X2144776Y176072D01*
X2157069Y170027D01*
X2170023Y165658D01*
X2183434Y162966D01*
G37*
G36*
X3167380Y172821D02*
G01*
X3167380Y220979D01*
X3119221Y220979D01*
X3122472Y214375D01*
X3130092Y202996D01*
X3139135Y192735D01*
X3149396Y183692D01*
X3160776Y176072D01*
G37*
G36*
X2913380Y172821D02*
G01*
X2913380Y220979D01*
X2865221Y220979D01*
X2868472Y214375D01*
X2876092Y202996D01*
X2885135Y192735D01*
X2895396Y183692D01*
X2906776Y176072D01*
G37*
G36*
X3004820Y172821D02*
G01*
X3011424Y176072D01*
X3022803Y183692D01*
X3033064Y192735D01*
X3042107Y202996D01*
X3049727Y214375D01*
X3052978Y220979D01*
X3004820Y220979D01*
G37*
G36*
X3258820Y172821D02*
G01*
X3265424Y176072D01*
X3276803Y183692D01*
X3287064Y192735D01*
X3296107Y202996D01*
X3303727Y214375D01*
X3306978Y220979D01*
X3258820Y220979D01*
G37*
G36*
X2865221Y312420D02*
G01*
X2913380Y312420D01*
X2913380Y360578D01*
X2906776Y357327D01*
X2895396Y349707D01*
X2885135Y340664D01*
X2876092Y330403D01*
X2868472Y319024D01*
G37*
G36*
X3119221Y312420D02*
G01*
X3167380Y312420D01*
X3167380Y360578D01*
X3160776Y357327D01*
X3149396Y349707D01*
X3139135Y340664D01*
X3130092Y330403D01*
X3122472Y319024D01*
G37*
G36*
X3258820Y312420D02*
G01*
X3306978Y312420D01*
X3303727Y319024D01*
X3296107Y330403D01*
X3287064Y340664D01*
X3276803Y349707D01*
X3265424Y357327D01*
X3258820Y360578D01*
G37*
G36*
X3004820Y312420D02*
G01*
X3052978Y312420D01*
X3049727Y319024D01*
X3042107Y330403D01*
X3033064Y340664D01*
X3022803Y349707D01*
X3011424Y357327D01*
X3004820Y360578D01*
G37*
G36*
X5495696Y587044D02*
G01*
X5514492Y587044D01*
X5533237Y588924D01*
X5551678Y592734D01*
X5569661Y598373D01*
X5586984Y605790D01*
X5603443Y614934D01*
X5618886Y625703D01*
X5633161Y637946D01*
X5646166Y651611D01*
X5657646Y666496D01*
X5667654Y682498D01*
X5675934Y699363D01*
X5682488Y717042D01*
X5687161Y735279D01*
X5690057Y753872D01*
X5690971Y772668D01*
X5690057Y791514D01*
X5687161Y810107D01*
X5682488Y828344D01*
X5675934Y846023D01*
X5667654Y862888D01*
X5657646Y878890D01*
X5646166Y893775D01*
X5633161Y907440D01*
X5618886Y919683D01*
X5603443Y930452D01*
X5586984Y939596D01*
X5569661Y947013D01*
X5551678Y952652D01*
X5533237Y956462D01*
X5514492Y958342D01*
X5495696Y958342D01*
X5476951Y956462D01*
X5458510Y952652D01*
X5440527Y947013D01*
X5423204Y939596D01*
X5406745Y930452D01*
X5391302Y919683D01*
X5377027Y907440D01*
X5364022Y893775D01*
X5352542Y878890D01*
X5342534Y862888D01*
X5334254Y846023D01*
X5327700Y828344D01*
X5323027Y810107D01*
X5320131Y791514D01*
X5319217Y772668D01*
X5320131Y753872D01*
X5323027Y735279D01*
X5327700Y717042D01*
X5334254Y699363D01*
X5342534Y682498D01*
X5352542Y666496D01*
X5364022Y651611D01*
X5377027Y637946D01*
X5391302Y625703D01*
X5406745Y614934D01*
X5423204Y605790D01*
X5440527Y598373D01*
X5458510Y592734D01*
X5476951Y588924D01*
G37*
G36*
X1125118Y652119D02*
G01*
X1139291Y653034D01*
X1153210Y655726D01*
X1166723Y660196D01*
X1179525Y666394D01*
X1191412Y674116D01*
X1202232Y683310D01*
X1211783Y693826D01*
X1219911Y705510D01*
X1226464Y718108D01*
X1231392Y731418D01*
X1234541Y745286D01*
X1235913Y759409D01*
X1235456Y773633D01*
X1233220Y787654D01*
X1229156Y801268D01*
X1223416Y814273D01*
X1216050Y826414D01*
X1207160Y837539D01*
X1196949Y847445D01*
X1185570Y855929D01*
X1173226Y862888D01*
X1160018Y868222D01*
X1146302Y871829D01*
X1132179Y873658D01*
X1118006Y873658D01*
X1103884Y871829D01*
X1090168Y868222D01*
X1076960Y862888D01*
X1064615Y855929D01*
X1053236Y847445D01*
X1043025Y837539D01*
X1034135Y826414D01*
X1026769Y814273D01*
X1021029Y801268D01*
X1016965Y787654D01*
X1014730Y773633D01*
X1014272Y759409D01*
X1015644Y745286D01*
X1018794Y731418D01*
X1023721Y718108D01*
X1030274Y705510D01*
X1038402Y693826D01*
X1047953Y683310D01*
X1058773Y674116D01*
X1070660Y666394D01*
X1083462Y660196D01*
X1096975Y655726D01*
X1110894Y653034D01*
G37*
G36*
X871118Y652119D02*
G01*
X885291Y653034D01*
X899210Y655726D01*
X912723Y660196D01*
X925525Y666394D01*
X937412Y674116D01*
X948232Y683310D01*
X957783Y693826D01*
X965911Y705510D01*
X972464Y718108D01*
X977392Y731418D01*
X980541Y745286D01*
X981913Y759409D01*
X981456Y773633D01*
X979220Y787654D01*
X975156Y801268D01*
X969416Y814273D01*
X962050Y826414D01*
X953160Y837539D01*
X942949Y847445D01*
X931570Y855929D01*
X919226Y862888D01*
X906018Y868222D01*
X892302Y871829D01*
X878179Y873658D01*
X864006Y873658D01*
X849884Y871829D01*
X836168Y868222D01*
X822960Y862888D01*
X810615Y855929D01*
X799236Y847445D01*
X789025Y837539D01*
X780135Y826414D01*
X772769Y814273D01*
X767029Y801268D01*
X762965Y787654D01*
X760730Y773633D01*
X760272Y759409D01*
X761644Y745286D01*
X764794Y731418D01*
X769721Y718108D01*
X776274Y705510D01*
X784402Y693826D01*
X793953Y683310D01*
X804773Y674116D01*
X816660Y666394D01*
X829462Y660196D01*
X842975Y655726D01*
X856894Y653034D01*
G37*
G36*
X1633118Y652119D02*
G01*
X1647291Y653034D01*
X1661210Y655726D01*
X1674723Y660196D01*
X1687525Y666394D01*
X1699412Y674116D01*
X1710232Y683310D01*
X1719783Y693826D01*
X1727911Y705510D01*
X1734464Y718108D01*
X1739392Y731418D01*
X1742541Y745286D01*
X1743913Y759409D01*
X1743456Y773633D01*
X1741220Y787654D01*
X1737156Y801268D01*
X1731416Y814273D01*
X1724050Y826414D01*
X1715160Y837539D01*
X1704949Y847445D01*
X1693570Y855929D01*
X1681225Y862888D01*
X1668018Y868222D01*
X1654302Y871829D01*
X1640179Y873658D01*
X1626006Y873658D01*
X1611884Y871829D01*
X1598168Y868222D01*
X1584960Y862888D01*
X1572615Y855929D01*
X1561236Y847445D01*
X1551025Y837539D01*
X1542135Y826414D01*
X1534769Y814273D01*
X1529029Y801268D01*
X1524965Y787654D01*
X1522730Y773633D01*
X1522272Y759409D01*
X1523644Y745286D01*
X1526794Y731418D01*
X1531721Y718108D01*
X1538274Y705510D01*
X1546402Y693826D01*
X1555953Y683310D01*
X1566773Y674116D01*
X1578660Y666394D01*
X1591462Y660196D01*
X1604975Y655726D01*
X1618894Y653034D01*
G37*
G36*
X363118Y652119D02*
G01*
X377291Y653034D01*
X391210Y655726D01*
X404723Y660196D01*
X417525Y666394D01*
X429412Y674116D01*
X440232Y683310D01*
X449783Y693826D01*
X457911Y705510D01*
X464464Y718108D01*
X469392Y731418D01*
X472541Y745286D01*
X473913Y759409D01*
X473456Y773633D01*
X471220Y787654D01*
X467156Y801268D01*
X461416Y814273D01*
X454050Y826414D01*
X445160Y837539D01*
X434949Y847445D01*
X423570Y855929D01*
X411226Y862888D01*
X398018Y868222D01*
X384302Y871829D01*
X370179Y873658D01*
X356006Y873658D01*
X341884Y871829D01*
X328168Y868222D01*
X314960Y862888D01*
X302615Y855929D01*
X291236Y847445D01*
X281025Y837539D01*
X272135Y826414D01*
X264769Y814273D01*
X259029Y801268D01*
X254965Y787654D01*
X252729Y773633D01*
X252272Y759409D01*
X253644Y745286D01*
X256794Y731418D01*
X261721Y718108D01*
X268274Y705510D01*
X276402Y693826D01*
X285953Y683310D01*
X296773Y674116D01*
X308660Y666394D01*
X321462Y660196D01*
X334975Y655726D01*
X348894Y653034D01*
G37*
G36*
X617118Y652119D02*
G01*
X631291Y653034D01*
X645210Y655726D01*
X658723Y660196D01*
X671525Y666394D01*
X683412Y674116D01*
X694232Y683310D01*
X703783Y693826D01*
X711911Y705510D01*
X718464Y718108D01*
X723392Y731418D01*
X726541Y745286D01*
X727913Y759409D01*
X727456Y773633D01*
X725220Y787654D01*
X721156Y801268D01*
X715416Y814273D01*
X708050Y826414D01*
X699160Y837539D01*
X688949Y847445D01*
X677570Y855929D01*
X665226Y862888D01*
X652018Y868222D01*
X638302Y871829D01*
X624179Y873658D01*
X610006Y873658D01*
X595884Y871829D01*
X582168Y868222D01*
X568960Y862888D01*
X556615Y855929D01*
X545236Y847445D01*
X535025Y837539D01*
X526135Y826414D01*
X518769Y814273D01*
X513029Y801268D01*
X508965Y787654D01*
X506730Y773633D01*
X506272Y759409D01*
X507644Y745286D01*
X510793Y731418D01*
X515721Y718108D01*
X522274Y705510D01*
X530402Y693826D01*
X539953Y683310D01*
X550773Y674116D01*
X562660Y666394D01*
X575462Y660196D01*
X588975Y655726D01*
X602894Y653034D01*
G37*
G36*
X1887118Y652119D02*
G01*
X1901291Y653034D01*
X1915210Y655726D01*
X1928723Y660196D01*
X1941525Y666394D01*
X1953412Y674116D01*
X1964232Y683310D01*
X1973783Y693826D01*
X1981911Y705510D01*
X1988464Y718108D01*
X1993392Y731418D01*
X1996541Y745286D01*
X1997913Y759409D01*
X1997456Y773633D01*
X1995220Y787654D01*
X1991156Y801268D01*
X1985416Y814273D01*
X1978050Y826414D01*
X1969160Y837539D01*
X1958949Y847445D01*
X1947570Y855929D01*
X1935225Y862888D01*
X1931924Y864209D01*
X1928571Y866394D01*
X1926336Y869746D01*
X1925574Y873658D01*
X1925574Y1351026D01*
X1924761Y1359052D01*
X1922576Y1366266D01*
X1919020Y1372971D01*
X1913889Y1379169D01*
X1897024Y1396085D01*
X1894687Y1399743D01*
X1894078Y1404061D01*
X1895348Y1408226D01*
X1898294Y1411478D01*
X1902256Y1413205D01*
X1915210Y1415745D01*
X1927707Y1419910D01*
X1931416Y1420418D01*
X1935022Y1419555D01*
X1938070Y1417421D01*
X1972868Y1382725D01*
X1979066Y1377645D01*
X1985772Y1374089D01*
X1992985Y1371904D01*
X2001012Y1371092D01*
X2247392Y1371092D01*
X2255418Y1371904D01*
X2262632Y1374089D01*
X2269337Y1377645D01*
X2275535Y1382776D01*
X2325624Y1432864D01*
X2330754Y1439062D01*
X2334310Y1445768D01*
X2336495Y1452981D01*
X2337308Y1461008D01*
X2337308Y2182368D01*
X2338273Y2186635D01*
X2340965Y2190140D01*
X2344877Y2192172D01*
X2349296Y2192324D01*
X2353360Y2190648D01*
X2362606Y2184095D01*
X2375611Y2177084D01*
X2389378Y2171750D01*
X2403652Y2168194D01*
X2418334Y2166366D01*
X2433066Y2166366D01*
X2447747Y2168194D01*
X2462022Y2171750D01*
X2475788Y2177084D01*
X2488793Y2184095D01*
X2500833Y2192629D01*
X2511755Y2202535D01*
X2521356Y2213762D01*
X2529484Y2226056D01*
X2536088Y2239264D01*
X2541016Y2253183D01*
X2542794Y2261362D01*
X2544318Y2264918D01*
X2547112Y2267661D01*
X2550769Y2269134D01*
X2554630Y2269134D01*
X2558288Y2267661D01*
X2561082Y2264918D01*
X2562606Y2261362D01*
X2564384Y2253183D01*
X2569311Y2239264D01*
X2575915Y2226056D01*
X2584043Y2213762D01*
X2593644Y2202535D01*
X2604566Y2192629D01*
X2616606Y2184095D01*
X2629611Y2177084D01*
X2643378Y2171750D01*
X2657652Y2168194D01*
X2672334Y2166366D01*
X2687066Y2166366D01*
X2701747Y2168194D01*
X2716022Y2171750D01*
X2729788Y2177084D01*
X2742793Y2184095D01*
X2754833Y2192629D01*
X2765755Y2202535D01*
X2775356Y2213762D01*
X2783484Y2226056D01*
X2790088Y2239264D01*
X2795016Y2253183D01*
X2796794Y2261362D01*
X2798318Y2264918D01*
X2801112Y2267661D01*
X2804769Y2269134D01*
X2808630Y2269134D01*
X2812288Y2267661D01*
X2815082Y2264918D01*
X2816606Y2261362D01*
X2818384Y2253183D01*
X2823311Y2239264D01*
X2829915Y2226056D01*
X2838043Y2213762D01*
X2847644Y2202535D01*
X2858566Y2192629D01*
X2870606Y2184095D01*
X2883611Y2177084D01*
X2897378Y2171750D01*
X2911652Y2168194D01*
X2926334Y2166366D01*
X2941066Y2166366D01*
X2955747Y2168194D01*
X2970022Y2171750D01*
X2983788Y2177084D01*
X2996793Y2184095D01*
X3008833Y2192629D01*
X3019755Y2202535D01*
X3029356Y2213762D01*
X3037484Y2226056D01*
X3044088Y2239264D01*
X3049016Y2253183D01*
X3050794Y2261362D01*
X3052318Y2264918D01*
X3055112Y2267661D01*
X3058769Y2269134D01*
X3062630Y2269134D01*
X3066288Y2267661D01*
X3069082Y2264918D01*
X3070606Y2261362D01*
X3072384Y2253183D01*
X3077311Y2239264D01*
X3083915Y2226056D01*
X3092043Y2213762D01*
X3101644Y2202535D01*
X3112566Y2192629D01*
X3124606Y2184095D01*
X3137611Y2177084D01*
X3151378Y2171750D01*
X3165652Y2168194D01*
X3180334Y2166366D01*
X3195066Y2166366D01*
X3209747Y2168194D01*
X3224174Y2171801D01*
X3228035Y2172512D01*
X3231845Y2171700D01*
X3235096Y2169464D01*
X3237230Y2166213D01*
X3237992Y2162352D01*
X3237992Y1633677D01*
X3237026Y1629308D01*
X3234283Y1625803D01*
X3230270Y1623822D01*
X3225850Y1623720D01*
X3221736Y1625498D01*
X3217570Y1628648D01*
X3205226Y1635607D01*
X3192018Y1640941D01*
X3178302Y1644548D01*
X3164179Y1646377D01*
X3150006Y1646377D01*
X3135884Y1644548D01*
X3122168Y1640941D01*
X3108960Y1635607D01*
X3096615Y1628648D01*
X3085236Y1620113D01*
X3075025Y1610258D01*
X3066135Y1599133D01*
X3058769Y1586992D01*
X3053029Y1573987D01*
X3048965Y1560372D01*
X3046730Y1546352D01*
X3046272Y1532128D01*
X3047644Y1518005D01*
X3050794Y1504137D01*
X3055721Y1490827D01*
X3062274Y1478229D01*
X3070402Y1466545D01*
X3079953Y1456029D01*
X3090773Y1446834D01*
X3102660Y1439062D01*
X3115462Y1432915D01*
X3128975Y1428445D01*
X3139998Y1426311D01*
X3144012Y1424584D01*
X3146907Y1421282D01*
X3148177Y1417116D01*
X3147568Y1412798D01*
X3145231Y1409141D01*
X3130042Y1393901D01*
X3124911Y1387703D01*
X3121355Y1380998D01*
X3119170Y1373784D01*
X3118358Y1365758D01*
X3118358Y886256D01*
X3117596Y882345D01*
X3115360Y878992D01*
X3112008Y876808D01*
X3108960Y875588D01*
X3096615Y868629D01*
X3085236Y860145D01*
X3075025Y850239D01*
X3066135Y839114D01*
X3058769Y826973D01*
X3053029Y813968D01*
X3048965Y800354D01*
X3046730Y786333D01*
X3046272Y772109D01*
X3047644Y757986D01*
X3050794Y744118D01*
X3055721Y730808D01*
X3062274Y718210D01*
X3070402Y706526D01*
X3079953Y696010D01*
X3090773Y686816D01*
X3102660Y679094D01*
X3115462Y672896D01*
X3128975Y668426D01*
X3142894Y665734D01*
X3157118Y664819D01*
X3171291Y665734D01*
X3185210Y668426D01*
X3198723Y672896D01*
X3211525Y679094D01*
X3223412Y686816D01*
X3234232Y696010D01*
X3243783Y706526D01*
X3251911Y718210D01*
X3258464Y730808D01*
X3263392Y744118D01*
X3266541Y757986D01*
X3267913Y772109D01*
X3267456Y786333D01*
X3265220Y800354D01*
X3261156Y813968D01*
X3255416Y826973D01*
X3248050Y839114D01*
X3239160Y850239D01*
X3228949Y860145D01*
X3217570Y868629D01*
X3205226Y875588D01*
X3201924Y876909D01*
X3198571Y879094D01*
X3196336Y882446D01*
X3195574Y886358D01*
X3195574Y1346047D01*
X3196336Y1349959D01*
X3198571Y1353261D01*
X3303524Y1458214D01*
X3309467Y1465580D01*
X3312820Y1468323D01*
X3317036Y1469339D01*
X3321354Y1468526D01*
X3324860Y1466037D01*
X3333953Y1456029D01*
X3344773Y1446834D01*
X3356660Y1439062D01*
X3369462Y1432915D01*
X3382975Y1428445D01*
X3393998Y1426311D01*
X3398012Y1424584D01*
X3400907Y1421282D01*
X3402177Y1417116D01*
X3401568Y1412798D01*
X3399231Y1409141D01*
X3384042Y1393901D01*
X3378911Y1387703D01*
X3375355Y1380998D01*
X3373170Y1373784D01*
X3372358Y1365758D01*
X3372358Y886256D01*
X3371596Y882345D01*
X3369360Y878992D01*
X3366008Y876808D01*
X3362960Y875588D01*
X3350615Y868629D01*
X3339236Y860145D01*
X3329025Y850239D01*
X3320135Y839114D01*
X3312769Y826973D01*
X3307029Y813968D01*
X3302965Y800354D01*
X3300729Y786333D01*
X3300272Y772109D01*
X3301644Y757986D01*
X3304794Y744118D01*
X3309721Y730808D01*
X3316274Y718210D01*
X3324402Y706526D01*
X3333953Y696010D01*
X3344773Y686816D01*
X3356660Y679094D01*
X3369462Y672896D01*
X3382975Y668426D01*
X3396894Y665734D01*
X3411118Y664819D01*
X3425291Y665734D01*
X3439210Y668426D01*
X3452723Y672896D01*
X3465525Y679094D01*
X3477412Y686816D01*
X3488232Y696010D01*
X3497783Y706526D01*
X3505911Y718210D01*
X3512464Y730808D01*
X3517392Y744118D01*
X3520541Y757986D01*
X3521913Y772109D01*
X3521456Y786333D01*
X3519220Y800354D01*
X3515156Y813968D01*
X3509416Y826973D01*
X3502050Y839114D01*
X3493160Y850239D01*
X3482949Y860145D01*
X3471570Y868629D01*
X3459226Y875588D01*
X3455924Y876909D01*
X3452571Y879094D01*
X3450336Y882446D01*
X3449574Y886358D01*
X3449574Y1346047D01*
X3450336Y1349959D01*
X3452571Y1353261D01*
X3564890Y1465580D01*
X3568293Y1467866D01*
X3572306Y1468577D01*
X3576320Y1467662D01*
X3579622Y1465224D01*
X3587953Y1456029D01*
X3598773Y1446834D01*
X3610660Y1439062D01*
X3623462Y1432915D01*
X3636975Y1428445D01*
X3650894Y1425702D01*
X3665118Y1424838D01*
X3679291Y1425702D01*
X3693210Y1428445D01*
X3706723Y1432915D01*
X3719525Y1439062D01*
X3731412Y1446834D01*
X3742232Y1456029D01*
X3750056Y1464665D01*
X3753561Y1467154D01*
X3757828Y1467967D01*
X3762044Y1466951D01*
X3765397Y1464259D01*
X3770376Y1458264D01*
X3877360Y1351229D01*
X3879596Y1347927D01*
X3880358Y1344015D01*
X3880358Y886256D01*
X3879596Y882345D01*
X3877360Y878992D01*
X3874008Y876808D01*
X3870960Y875588D01*
X3858615Y868629D01*
X3847236Y860145D01*
X3837025Y850239D01*
X3828135Y839114D01*
X3820769Y826973D01*
X3815029Y813968D01*
X3810965Y800354D01*
X3808729Y786333D01*
X3808272Y772109D01*
X3809644Y757986D01*
X3812794Y744118D01*
X3817721Y730808D01*
X3824274Y718210D01*
X3832402Y706526D01*
X3841953Y696010D01*
X3852773Y686816D01*
X3864660Y679094D01*
X3877462Y672896D01*
X3890975Y668426D01*
X3904894Y665734D01*
X3919118Y664819D01*
X3933291Y665734D01*
X3947210Y668426D01*
X3960723Y672896D01*
X3973525Y679094D01*
X3985412Y686816D01*
X3996232Y696010D01*
X4005783Y706526D01*
X4013911Y718210D01*
X4020464Y730808D01*
X4025392Y744118D01*
X4028541Y757986D01*
X4029913Y772109D01*
X4029456Y786333D01*
X4027220Y800354D01*
X4023156Y813968D01*
X4017416Y826973D01*
X4010050Y839114D01*
X4001160Y850239D01*
X3990949Y860145D01*
X3979570Y868629D01*
X3967226Y875588D01*
X3963924Y876909D01*
X3960571Y879094D01*
X3958336Y882446D01*
X3957574Y886358D01*
X3957574Y1363726D01*
X3956761Y1371752D01*
X3954576Y1378966D01*
X3951020Y1385671D01*
X3945890Y1391869D01*
X3929024Y1408785D01*
X3926687Y1412443D01*
X3926078Y1416761D01*
X3927348Y1420926D01*
X3930294Y1424178D01*
X3934256Y1425905D01*
X3947210Y1428445D01*
X3960723Y1432915D01*
X3973525Y1439062D01*
X3985412Y1446834D01*
X3996232Y1456029D01*
X4005783Y1466545D01*
X4013911Y1478229D01*
X4020464Y1490827D01*
X4025392Y1504137D01*
X4028541Y1518005D01*
X4029913Y1532128D01*
X4029456Y1546352D01*
X4027220Y1560372D01*
X4023156Y1573987D01*
X4017416Y1586992D01*
X4010050Y1599133D01*
X4001160Y1610258D01*
X3990949Y1620113D01*
X3979570Y1628648D01*
X3967226Y1635607D01*
X3954018Y1640941D01*
X3940301Y1644548D01*
X3926179Y1646377D01*
X3912006Y1646377D01*
X3897884Y1644548D01*
X3884168Y1640941D01*
X3870960Y1635607D01*
X3858615Y1628648D01*
X3852164Y1623822D01*
X3848049Y1621993D01*
X3843629Y1622094D01*
X3839616Y1624076D01*
X3836873Y1627632D01*
X3835908Y1631950D01*
X3835908Y2189581D01*
X3836670Y2193493D01*
X3838905Y2196795D01*
X3847134Y2205024D01*
X3850589Y2207310D01*
X3854704Y2207971D01*
X3858717Y2207006D01*
X3862019Y2204466D01*
X3863644Y2202535D01*
X3874566Y2192629D01*
X3886606Y2184095D01*
X3899611Y2177084D01*
X3913378Y2171750D01*
X3927652Y2168194D01*
X3942334Y2166366D01*
X3957065Y2166366D01*
X3971747Y2168194D01*
X3986022Y2171750D01*
X3999788Y2177084D01*
X4012793Y2184095D01*
X4024833Y2192629D01*
X4035755Y2202535D01*
X4045356Y2213762D01*
X4053484Y2226056D01*
X4060088Y2239264D01*
X4065015Y2253183D01*
X4066794Y2261362D01*
X4068318Y2264918D01*
X4071112Y2267661D01*
X4074769Y2269134D01*
X4078630Y2269134D01*
X4082287Y2267661D01*
X4085082Y2264918D01*
X4086606Y2261362D01*
X4088384Y2253183D01*
X4093311Y2239264D01*
X4099915Y2226056D01*
X4108043Y2213762D01*
X4117644Y2202535D01*
X4128566Y2192629D01*
X4140606Y2184095D01*
X4153611Y2177084D01*
X4167378Y2171750D01*
X4181652Y2168194D01*
X4196334Y2166366D01*
X4211066Y2166366D01*
X4225747Y2168194D01*
X4240022Y2171750D01*
X4253788Y2177084D01*
X4266793Y2184095D01*
X4278833Y2192629D01*
X4289755Y2202535D01*
X4299356Y2213762D01*
X4307484Y2226056D01*
X4314088Y2239264D01*
X4319016Y2253183D01*
X4322165Y2267610D01*
X4323486Y2282291D01*
X4323080Y2297074D01*
X4320743Y2311755D01*
X4316730Y2325827D01*
X4310989Y2339441D01*
X4303623Y2352192D01*
X4294733Y2363978D01*
X4284472Y2374595D01*
X4272940Y2383840D01*
X4260392Y2391613D01*
X4246981Y2397760D01*
X4232960Y2402230D01*
X4218432Y2404973D01*
X4203700Y2405888D01*
X4188968Y2404973D01*
X4174439Y2402230D01*
X4160418Y2397760D01*
X4147007Y2391613D01*
X4134459Y2383840D01*
X4122928Y2374595D01*
X4112666Y2363978D01*
X4103776Y2352192D01*
X4096410Y2339441D01*
X4090670Y2325827D01*
X4086453Y2311196D01*
X4084421Y2307336D01*
X4080967Y2304745D01*
X4076700Y2303780D01*
X4072432Y2304745D01*
X4068978Y2307336D01*
X4066946Y2311196D01*
X4062729Y2325827D01*
X4056989Y2339441D01*
X4049623Y2352192D01*
X4040733Y2363978D01*
X4030472Y2374595D01*
X4018940Y2383840D01*
X4006392Y2391613D01*
X3992981Y2397760D01*
X3978960Y2402230D01*
X3964432Y2404973D01*
X3949700Y2405888D01*
X3934968Y2404973D01*
X3920439Y2402230D01*
X3906418Y2397760D01*
X3893007Y2391613D01*
X3880459Y2383840D01*
X3877818Y2381758D01*
X3874515Y2379980D01*
X3870756Y2379522D01*
X3867099Y2380488D01*
X3864051Y2382723D01*
X3862019Y2385923D01*
X3861308Y2389682D01*
X3861308Y3706114D01*
X3862222Y3710381D01*
X3864864Y3713835D01*
X3868674Y3715918D01*
X3873042Y3716172D01*
X3877056Y3714597D01*
X3889756Y3706215D01*
X3902964Y3699611D01*
X3916883Y3694734D01*
X3931310Y3691534D01*
X3945991Y3690213D01*
X3960774Y3690620D01*
X3975354Y3692906D01*
X3989527Y3696970D01*
X4003141Y3702710D01*
X4015892Y3710076D01*
X4027678Y3718966D01*
X4038295Y3729228D01*
X4047540Y3740759D01*
X4055313Y3753307D01*
X4061460Y3766718D01*
X4065930Y3780790D01*
X4066743Y3784955D01*
X4068216Y3788613D01*
X4070959Y3791458D01*
X4074566Y3793032D01*
X4078528Y3793083D01*
X4082237Y3791610D01*
X4085082Y3788867D01*
X4086656Y3785260D01*
X4088384Y3777183D01*
X4093311Y3763264D01*
X4099915Y3750056D01*
X4108043Y3737762D01*
X4117644Y3726535D01*
X4128566Y3716629D01*
X4140606Y3708095D01*
X4153611Y3701084D01*
X4167378Y3695750D01*
X4181652Y3692194D01*
X4196334Y3690365D01*
X4211066Y3690365D01*
X4225747Y3692194D01*
X4240022Y3695750D01*
X4253788Y3701084D01*
X4266793Y3708095D01*
X4278833Y3716629D01*
X4289755Y3726535D01*
X4299356Y3737762D01*
X4307484Y3750056D01*
X4314088Y3763264D01*
X4319016Y3777183D01*
X4320794Y3785362D01*
X4322318Y3788918D01*
X4325112Y3791661D01*
X4328769Y3793134D01*
X4332630Y3793134D01*
X4336288Y3791661D01*
X4339082Y3788918D01*
X4340606Y3785362D01*
X4342384Y3777183D01*
X4347311Y3763264D01*
X4353915Y3750056D01*
X4362043Y3737762D01*
X4371644Y3726535D01*
X4382566Y3716629D01*
X4394606Y3708095D01*
X4407611Y3701084D01*
X4421378Y3695750D01*
X4435652Y3692194D01*
X4450334Y3690365D01*
X4465066Y3690365D01*
X4479747Y3692194D01*
X4494022Y3695750D01*
X4507788Y3701084D01*
X4520793Y3708095D01*
X4532833Y3716629D01*
X4543755Y3726535D01*
X4553356Y3737762D01*
X4561484Y3750056D01*
X4568088Y3763264D01*
X4573016Y3777183D01*
X4576165Y3791610D01*
X4577537Y3806291D01*
X4577080Y3821074D01*
X4574794Y3835654D01*
X4570730Y3849827D01*
X4564989Y3863441D01*
X4557623Y3876192D01*
X4548733Y3887978D01*
X4538472Y3898595D01*
X4526940Y3907840D01*
X4514392Y3915613D01*
X4500981Y3921760D01*
X4486960Y3926230D01*
X4472432Y3928973D01*
X4457700Y3929887D01*
X4442968Y3928973D01*
X4428439Y3926230D01*
X4414418Y3921760D01*
X4401007Y3915613D01*
X4388459Y3907840D01*
X4376928Y3898595D01*
X4366666Y3887978D01*
X4357776Y3876192D01*
X4350410Y3863441D01*
X4344670Y3849827D01*
X4340453Y3835196D01*
X4338421Y3831336D01*
X4334967Y3828745D01*
X4330700Y3827779D01*
X4326432Y3828745D01*
X4322978Y3831336D01*
X4320946Y3835196D01*
X4316730Y3849827D01*
X4310989Y3863441D01*
X4303623Y3876192D01*
X4294733Y3887978D01*
X4284472Y3898595D01*
X4272940Y3907840D01*
X4260392Y3915613D01*
X4246981Y3921760D01*
X4232960Y3926230D01*
X4218432Y3928973D01*
X4203700Y3929887D01*
X4188968Y3928973D01*
X4174439Y3926230D01*
X4160418Y3921760D01*
X4147007Y3915613D01*
X4134459Y3907840D01*
X4122928Y3898595D01*
X4112666Y3887978D01*
X4103776Y3876192D01*
X4096410Y3863441D01*
X4090670Y3849878D01*
X4086402Y3834739D01*
X4084218Y3830777D01*
X4080611Y3828135D01*
X4076141Y3827322D01*
X4071823Y3828542D01*
X4068419Y3831488D01*
X4066641Y3835603D01*
X4065930Y3839260D01*
X4061460Y3853281D01*
X4055313Y3866692D01*
X4047540Y3879240D01*
X4038295Y3890772D01*
X4027678Y3901033D01*
X4015892Y3909923D01*
X4003141Y3917289D01*
X3989527Y3923080D01*
X3975354Y3927094D01*
X3960774Y3929379D01*
X3945991Y3929837D01*
X3931310Y3928465D01*
X3916883Y3925315D01*
X3902964Y3920388D01*
X3889756Y3913835D01*
X3877056Y3905402D01*
X3873042Y3903827D01*
X3868674Y3904081D01*
X3864864Y3906164D01*
X3862222Y3909618D01*
X3861308Y3913886D01*
X3861308Y4076192D01*
X3860495Y4084218D01*
X3858310Y4091432D01*
X3854754Y4098137D01*
X3849624Y4104335D01*
X2907334Y5046675D01*
X2905201Y5049774D01*
X2904337Y5053431D01*
X2904896Y5057140D01*
X2907741Y5065623D01*
X2910433Y5079034D01*
X2911348Y5092700D01*
X2910433Y5106365D01*
X2907741Y5119776D01*
X2903372Y5132730D01*
X2897327Y5145024D01*
X2889707Y5156403D01*
X2880664Y5166664D01*
X2870403Y5175707D01*
X2859024Y5183327D01*
X2846730Y5189372D01*
X2833776Y5193741D01*
X2820365Y5196433D01*
X2806700Y5197348D01*
X2793034Y5196433D01*
X2779623Y5193741D01*
X2766669Y5189372D01*
X2754376Y5183327D01*
X2742996Y5175707D01*
X2732735Y5166664D01*
X2723692Y5156403D01*
X2716072Y5145024D01*
X2710027Y5132730D01*
X2705658Y5119776D01*
X2702966Y5106365D01*
X2702052Y5092700D01*
X2702966Y5079034D01*
X2705658Y5065623D01*
X2710027Y5052669D01*
X2716072Y5040376D01*
X2723692Y5028996D01*
X2732735Y5018735D01*
X2742996Y5009692D01*
X2754376Y5002072D01*
X2766669Y4996027D01*
X2779623Y4991658D01*
X2793034Y4988966D01*
X2806700Y4988052D01*
X2820365Y4988966D01*
X2833776Y4991658D01*
X2842260Y4994503D01*
X2845968Y4995062D01*
X2849626Y4994198D01*
X2852724Y4992065D01*
X3781094Y4063695D01*
X3783329Y4060393D01*
X3784092Y4056481D01*
X3784092Y3913581D01*
X3783126Y3909212D01*
X3780332Y3905707D01*
X3776370Y3903726D01*
X3771900Y3903624D01*
X3767785Y3905453D01*
X3761892Y3909923D01*
X3749141Y3917289D01*
X3735527Y3923080D01*
X3721354Y3927094D01*
X3706774Y3929379D01*
X3691991Y3929837D01*
X3677310Y3928465D01*
X3662883Y3925315D01*
X3648964Y3920388D01*
X3635756Y3913835D01*
X3623056Y3905402D01*
X3619042Y3903827D01*
X3614674Y3904081D01*
X3610864Y3906164D01*
X3608222Y3909618D01*
X3607308Y3913886D01*
X3607308Y4076192D01*
X3606495Y4084218D01*
X3604310Y4091432D01*
X3600754Y4098137D01*
X3595624Y4104335D01*
X2653334Y5046675D01*
X2651201Y5049774D01*
X2650337Y5053431D01*
X2650896Y5057140D01*
X2653741Y5065623D01*
X2656433Y5079034D01*
X2657348Y5092700D01*
X2656433Y5106365D01*
X2653741Y5119776D01*
X2649372Y5132730D01*
X2643327Y5145024D01*
X2635707Y5156403D01*
X2626664Y5166664D01*
X2616403Y5175707D01*
X2605024Y5183327D01*
X2592730Y5189372D01*
X2579776Y5193741D01*
X2566365Y5196433D01*
X2552700Y5197348D01*
X2539034Y5196433D01*
X2525623Y5193741D01*
X2512669Y5189372D01*
X2500376Y5183327D01*
X2488996Y5175707D01*
X2478735Y5166664D01*
X2469692Y5156403D01*
X2462072Y5145024D01*
X2456027Y5132730D01*
X2451658Y5119776D01*
X2448966Y5106365D01*
X2448052Y5092700D01*
X2448966Y5079034D01*
X2451658Y5065623D01*
X2456027Y5052669D01*
X2462072Y5040376D01*
X2469692Y5028996D01*
X2478735Y5018735D01*
X2488996Y5009692D01*
X2500376Y5002072D01*
X2512669Y4996027D01*
X2525623Y4991658D01*
X2539034Y4988966D01*
X2552700Y4988052D01*
X2566365Y4988966D01*
X2579776Y4991658D01*
X2588260Y4994503D01*
X2591968Y4995062D01*
X2595626Y4994198D01*
X2598724Y4992065D01*
X3527094Y4063695D01*
X3529329Y4060393D01*
X3530092Y4056481D01*
X3530092Y3913581D01*
X3529126Y3909212D01*
X3526332Y3905707D01*
X3522370Y3903726D01*
X3517900Y3903624D01*
X3513785Y3905453D01*
X3507892Y3909923D01*
X3495141Y3917289D01*
X3481527Y3923080D01*
X3467354Y3927094D01*
X3452774Y3929379D01*
X3437991Y3929837D01*
X3423310Y3928465D01*
X3408883Y3925315D01*
X3394964Y3920388D01*
X3381756Y3913835D01*
X3369056Y3905402D01*
X3365042Y3903827D01*
X3360674Y3904081D01*
X3356864Y3906164D01*
X3354222Y3909618D01*
X3353308Y3913886D01*
X3353308Y4076192D01*
X3352495Y4084218D01*
X3350310Y4091432D01*
X3346754Y4098137D01*
X3341624Y4104335D01*
X2399334Y5046675D01*
X2397201Y5049774D01*
X2396337Y5053431D01*
X2396896Y5057140D01*
X2399741Y5065623D01*
X2402433Y5079034D01*
X2403348Y5092700D01*
X2402433Y5106365D01*
X2399741Y5119776D01*
X2395372Y5132730D01*
X2389327Y5145024D01*
X2381707Y5156403D01*
X2372664Y5166664D01*
X2362403Y5175707D01*
X2351024Y5183327D01*
X2338730Y5189372D01*
X2325776Y5193741D01*
X2312365Y5196433D01*
X2298700Y5197348D01*
X2285034Y5196433D01*
X2271623Y5193741D01*
X2258669Y5189372D01*
X2246376Y5183327D01*
X2234996Y5175707D01*
X2224735Y5166664D01*
X2215692Y5156403D01*
X2208072Y5145024D01*
X2202027Y5132730D01*
X2197658Y5119776D01*
X2194966Y5106365D01*
X2194052Y5092700D01*
X2194966Y5079034D01*
X2197658Y5065623D01*
X2202027Y5052669D01*
X2208072Y5040376D01*
X2215692Y5028996D01*
X2224735Y5018735D01*
X2234996Y5009692D01*
X2246376Y5002072D01*
X2258669Y4996027D01*
X2271623Y4991658D01*
X2285034Y4988966D01*
X2298700Y4988052D01*
X2312365Y4988966D01*
X2325776Y4991658D01*
X2334260Y4994503D01*
X2337968Y4995062D01*
X2341626Y4994198D01*
X2344724Y4992065D01*
X3273094Y4063695D01*
X3275329Y4060393D01*
X3276092Y4056481D01*
X3276092Y3913581D01*
X3275126Y3909212D01*
X3272332Y3905707D01*
X3268370Y3903726D01*
X3263900Y3903624D01*
X3259785Y3905453D01*
X3253892Y3909923D01*
X3241040Y3917340D01*
X3241040Y3863340D01*
X3265932Y3863340D01*
X3269843Y3862578D01*
X3273094Y3860342D01*
X3275329Y3857091D01*
X3276092Y3853179D01*
X3276092Y3766820D01*
X3275329Y3762959D01*
X3273094Y3759657D01*
X3269843Y3757422D01*
X3265932Y3756660D01*
X3241040Y3756660D01*
X3241040Y3702659D01*
X3253892Y3710076D01*
X3259785Y3714546D01*
X3263900Y3716375D01*
X3268370Y3716274D01*
X3272332Y3714292D01*
X3275126Y3710787D01*
X3276092Y3706418D01*
X3276092Y2389682D01*
X3275380Y2385923D01*
X3273348Y2382723D01*
X3270300Y2380488D01*
X3266643Y2379522D01*
X3262884Y2379980D01*
X3259582Y2381758D01*
X3256940Y2383840D01*
X3244392Y2391613D01*
X3230981Y2397760D01*
X3216960Y2402230D01*
X3202432Y2404973D01*
X3187700Y2405888D01*
X3172968Y2404973D01*
X3158439Y2402230D01*
X3144418Y2397760D01*
X3131007Y2391613D01*
X3118459Y2383840D01*
X3106928Y2374595D01*
X3096666Y2363978D01*
X3087776Y2352192D01*
X3080410Y2339441D01*
X3074670Y2325827D01*
X3070453Y2311196D01*
X3068421Y2307336D01*
X3064967Y2304745D01*
X3060700Y2303780D01*
X3056432Y2304745D01*
X3052978Y2307336D01*
X3050946Y2311196D01*
X3046730Y2325827D01*
X3040989Y2339441D01*
X3033623Y2352192D01*
X3024733Y2363978D01*
X3014472Y2374595D01*
X3002940Y2383840D01*
X2990392Y2391613D01*
X2976981Y2397760D01*
X2962960Y2402230D01*
X2948432Y2404973D01*
X2933700Y2405888D01*
X2918968Y2404973D01*
X2904439Y2402230D01*
X2890418Y2397760D01*
X2877007Y2391613D01*
X2864459Y2383840D01*
X2852928Y2374595D01*
X2842666Y2363978D01*
X2833776Y2352192D01*
X2826410Y2339441D01*
X2820670Y2325827D01*
X2816453Y2311196D01*
X2814421Y2307336D01*
X2810967Y2304745D01*
X2806700Y2303780D01*
X2802432Y2304745D01*
X2798978Y2307336D01*
X2796946Y2311196D01*
X2792730Y2325827D01*
X2786989Y2339441D01*
X2779623Y2352192D01*
X2770733Y2363978D01*
X2760472Y2374595D01*
X2748940Y2383840D01*
X2736392Y2391613D01*
X2722981Y2397760D01*
X2708960Y2402230D01*
X2694432Y2404973D01*
X2679700Y2405888D01*
X2664968Y2404973D01*
X2650439Y2402230D01*
X2636418Y2397760D01*
X2623007Y2391613D01*
X2610459Y2383840D01*
X2598928Y2374595D01*
X2588666Y2363978D01*
X2579776Y2352192D01*
X2572410Y2339441D01*
X2566670Y2325827D01*
X2562453Y2311196D01*
X2560421Y2307336D01*
X2556967Y2304745D01*
X2552700Y2303780D01*
X2548432Y2304745D01*
X2544978Y2307336D01*
X2542946Y2311196D01*
X2538730Y2325827D01*
X2532989Y2339441D01*
X2525623Y2352192D01*
X2516733Y2363978D01*
X2506472Y2374595D01*
X2494940Y2383840D01*
X2482392Y2391613D01*
X2468981Y2397760D01*
X2454960Y2402230D01*
X2440432Y2404973D01*
X2425700Y2405888D01*
X2410968Y2404973D01*
X2396439Y2402230D01*
X2382418Y2397760D01*
X2369007Y2391613D01*
X2356459Y2383840D01*
X2353665Y2381605D01*
X2349754Y2379675D01*
X2345436Y2379522D01*
X2341422Y2381199D01*
X2338527Y2384399D01*
X2337155Y2388514D01*
X2336495Y2395118D01*
X2334310Y2402332D01*
X2330754Y2409037D01*
X2325624Y2415235D01*
X2240838Y2500020D01*
X2238654Y2503322D01*
X2237892Y2507234D01*
X2238654Y2511094D01*
X2240838Y2514396D01*
X2244140Y2516632D01*
X2248052Y2517394D01*
X3221939Y2517394D01*
X3228238Y2518105D01*
X3233724Y2520035D01*
X3238601Y2523083D01*
X3242716Y2527198D01*
X3245764Y2532075D01*
X3247694Y2537561D01*
X3248406Y2543860D01*
X3248406Y3542741D01*
X3247694Y3549040D01*
X3245764Y3554526D01*
X3242716Y3559403D01*
X3238601Y3563518D01*
X3233724Y3566566D01*
X3228238Y3568496D01*
X3221939Y3569208D01*
X2264054Y3569208D01*
X2260142Y3569970D01*
X2256840Y3572205D01*
X2254656Y3575456D01*
X2253894Y3579368D01*
X2254656Y3583279D01*
X2256840Y3586530D01*
X2311704Y3641394D01*
X2315006Y3643629D01*
X2318918Y3644392D01*
X2806192Y3644392D01*
X2814218Y3645204D01*
X2821432Y3647389D01*
X2828137Y3650945D01*
X2834335Y3656076D01*
X2875737Y3697478D01*
X2878886Y3699611D01*
X2882595Y3700424D01*
X2886303Y3699865D01*
X2900883Y3694684D01*
X2915310Y3691534D01*
X2929991Y3690213D01*
X2944774Y3690620D01*
X2959354Y3692906D01*
X2973527Y3696970D01*
X2987141Y3702710D01*
X2999892Y3710076D01*
X3011678Y3718966D01*
X3022295Y3729228D01*
X3031540Y3740759D01*
X3039313Y3753307D01*
X3045460Y3766718D01*
X3049930Y3780790D01*
X3052673Y3795268D01*
X3053588Y3810000D01*
X3052673Y3824732D01*
X3049930Y3839260D01*
X3045460Y3853281D01*
X3039313Y3866692D01*
X3031540Y3879240D01*
X3022295Y3890772D01*
X3011678Y3901033D01*
X2999892Y3909923D01*
X2987141Y3917289D01*
X2973527Y3923080D01*
X2959354Y3927094D01*
X2944774Y3929379D01*
X2929991Y3929837D01*
X2915310Y3928465D01*
X2900883Y3925315D01*
X2886964Y3920388D01*
X2873756Y3913835D01*
X2861462Y3905656D01*
X2850235Y3896055D01*
X2840329Y3885133D01*
X2831795Y3873093D01*
X2824784Y3860088D01*
X2819450Y3846322D01*
X2816555Y3834637D01*
X2814878Y3831132D01*
X2811983Y3828491D01*
X2808325Y3827119D01*
X2804414Y3827221D01*
X2800858Y3828796D01*
X2798114Y3831640D01*
X2796692Y3835247D01*
X2795930Y3839260D01*
X2791460Y3853281D01*
X2785313Y3866692D01*
X2777540Y3879240D01*
X2768295Y3890772D01*
X2757678Y3901033D01*
X2745892Y3909923D01*
X2733141Y3917289D01*
X2719527Y3923080D01*
X2705354Y3927094D01*
X2690774Y3929379D01*
X2675991Y3929837D01*
X2661310Y3928465D01*
X2646883Y3925315D01*
X2632303Y3920134D01*
X2628595Y3919575D01*
X2624886Y3920388D01*
X2621737Y3922522D01*
X2580335Y3963924D01*
X2574137Y3969054D01*
X2567432Y3972610D01*
X2560218Y3974795D01*
X2552192Y3975608D01*
X1283208Y3975608D01*
X1275181Y3974795D01*
X1267968Y3972610D01*
X1261262Y3969054D01*
X1255064Y3963924D01*
X1213459Y3922369D01*
X1210157Y3920134D01*
X1206246Y3919372D01*
X1202334Y3920185D01*
X1195527Y3923080D01*
X1181354Y3927094D01*
X1166774Y3929379D01*
X1151991Y3929837D01*
X1137310Y3928465D01*
X1122883Y3925315D01*
X1108964Y3920388D01*
X1095756Y3913835D01*
X1083462Y3905656D01*
X1072235Y3896055D01*
X1062329Y3885133D01*
X1053795Y3873093D01*
X1046784Y3860088D01*
X1041450Y3846322D01*
X1037894Y3832047D01*
X1036066Y3817365D01*
X1036066Y3802634D01*
X1037894Y3787952D01*
X1041450Y3773678D01*
X1046784Y3759911D01*
X1053795Y3746906D01*
X1062329Y3734866D01*
X1072235Y3723944D01*
X1083462Y3714343D01*
X1095756Y3706215D01*
X1108964Y3699611D01*
X1122883Y3694734D01*
X1137310Y3691534D01*
X1151991Y3690213D01*
X1166774Y3690620D01*
X1181354Y3692906D01*
X1195527Y3696970D01*
X1209141Y3702710D01*
X1221892Y3710076D01*
X1233678Y3718966D01*
X1244295Y3729228D01*
X1253540Y3740759D01*
X1261313Y3753307D01*
X1267460Y3766718D01*
X1271930Y3780790D01*
X1272692Y3784752D01*
X1274114Y3788359D01*
X1276858Y3791204D01*
X1280414Y3792778D01*
X1284325Y3792880D01*
X1287983Y3791559D01*
X1290878Y3788867D01*
X1292555Y3785362D01*
X1295450Y3773678D01*
X1300784Y3759911D01*
X1307795Y3746906D01*
X1316329Y3734866D01*
X1326235Y3723944D01*
X1337462Y3714343D01*
X1349756Y3706215D01*
X1362964Y3699611D01*
X1376883Y3694734D01*
X1391310Y3691534D01*
X1405991Y3690213D01*
X1420774Y3690620D01*
X1435354Y3692906D01*
X1449527Y3696970D01*
X1463141Y3702710D01*
X1475892Y3710076D01*
X1487678Y3718966D01*
X1498295Y3729228D01*
X1507540Y3740759D01*
X1515313Y3753307D01*
X1521460Y3766718D01*
X1525930Y3780790D01*
X1526692Y3784752D01*
X1528114Y3788359D01*
X1530858Y3791204D01*
X1534414Y3792778D01*
X1538325Y3792880D01*
X1541983Y3791559D01*
X1544878Y3788867D01*
X1546555Y3785362D01*
X1549450Y3773678D01*
X1554784Y3759911D01*
X1561795Y3746906D01*
X1570329Y3734866D01*
X1580235Y3723944D01*
X1591462Y3714343D01*
X1603756Y3706215D01*
X1616964Y3699611D01*
X1630883Y3694734D01*
X1645310Y3691534D01*
X1659991Y3690213D01*
X1674774Y3690620D01*
X1689354Y3692906D01*
X1703527Y3696970D01*
X1717141Y3702710D01*
X1729892Y3710076D01*
X1741678Y3718966D01*
X1752295Y3729228D01*
X1761540Y3740759D01*
X1769313Y3753307D01*
X1775460Y3766718D01*
X1779930Y3780790D01*
X1780692Y3784752D01*
X1782114Y3788359D01*
X1784857Y3791204D01*
X1788414Y3792778D01*
X1792325Y3792880D01*
X1795983Y3791559D01*
X1798878Y3788867D01*
X1800555Y3785362D01*
X1803450Y3773678D01*
X1807565Y3763060D01*
X1808276Y3759200D01*
X1807464Y3755440D01*
X1805279Y3752189D01*
X1763775Y3710635D01*
X1758645Y3704437D01*
X1755089Y3697732D01*
X1752904Y3690518D01*
X1752092Y3682492D01*
X1752092Y2389682D01*
X1751380Y2385923D01*
X1749348Y2382723D01*
X1746300Y2380488D01*
X1742643Y2379522D01*
X1738884Y2379980D01*
X1735582Y2381758D01*
X1732940Y2383840D01*
X1720392Y2391613D01*
X1706981Y2397760D01*
X1692960Y2402230D01*
X1678432Y2404973D01*
X1663700Y2405888D01*
X1648968Y2404973D01*
X1634439Y2402230D01*
X1620418Y2397760D01*
X1607007Y2391613D01*
X1594459Y2383840D01*
X1582928Y2374595D01*
X1572666Y2363978D01*
X1563776Y2352192D01*
X1556410Y2339441D01*
X1550670Y2325827D01*
X1546453Y2311196D01*
X1544421Y2307336D01*
X1540967Y2304745D01*
X1536700Y2303780D01*
X1532432Y2304745D01*
X1528978Y2307336D01*
X1526946Y2311196D01*
X1522730Y2325827D01*
X1516989Y2339441D01*
X1509623Y2352192D01*
X1500733Y2363978D01*
X1490472Y2374595D01*
X1478940Y2383840D01*
X1466392Y2391613D01*
X1452981Y2397760D01*
X1438960Y2402230D01*
X1424432Y2404973D01*
X1409700Y2405888D01*
X1394968Y2404973D01*
X1380439Y2402230D01*
X1366418Y2397760D01*
X1353007Y2391613D01*
X1340459Y2383840D01*
X1328928Y2374595D01*
X1318666Y2363978D01*
X1309776Y2352192D01*
X1302410Y2339441D01*
X1296670Y2325827D01*
X1292453Y2311196D01*
X1290421Y2307336D01*
X1286967Y2304745D01*
X1282700Y2303780D01*
X1278432Y2304745D01*
X1274978Y2307336D01*
X1272946Y2311196D01*
X1268730Y2325827D01*
X1262989Y2339441D01*
X1255623Y2352192D01*
X1246733Y2363978D01*
X1236472Y2374595D01*
X1224940Y2383840D01*
X1212392Y2391613D01*
X1198981Y2397760D01*
X1184960Y2402230D01*
X1170432Y2404973D01*
X1155700Y2405888D01*
X1140968Y2404973D01*
X1126439Y2402230D01*
X1112418Y2397760D01*
X1099007Y2391613D01*
X1086459Y2383840D01*
X1074928Y2374595D01*
X1064666Y2363978D01*
X1055776Y2352192D01*
X1048410Y2339441D01*
X1042669Y2325827D01*
X1038606Y2311654D01*
X1036319Y2297074D01*
X1035913Y2282291D01*
X1037234Y2267610D01*
X1040384Y2253183D01*
X1045311Y2239264D01*
X1051915Y2226056D01*
X1060043Y2213762D01*
X1069644Y2202535D01*
X1080566Y2192629D01*
X1092606Y2184095D01*
X1105611Y2177084D01*
X1119378Y2171750D01*
X1133652Y2168194D01*
X1148334Y2166366D01*
X1163066Y2166366D01*
X1177747Y2168194D01*
X1192022Y2171750D01*
X1205788Y2177084D01*
X1218793Y2184095D01*
X1230833Y2192629D01*
X1241755Y2202535D01*
X1251356Y2213762D01*
X1259484Y2226056D01*
X1266088Y2239264D01*
X1271016Y2253183D01*
X1272794Y2261362D01*
X1274318Y2264918D01*
X1277112Y2267661D01*
X1280769Y2269134D01*
X1284630Y2269134D01*
X1288288Y2267661D01*
X1291082Y2264918D01*
X1292606Y2261362D01*
X1294384Y2253183D01*
X1299311Y2239264D01*
X1305915Y2226056D01*
X1314043Y2213762D01*
X1323644Y2202535D01*
X1334566Y2192629D01*
X1346606Y2184095D01*
X1359611Y2177084D01*
X1373378Y2171750D01*
X1387652Y2168194D01*
X1402334Y2166366D01*
X1417066Y2166366D01*
X1431747Y2168194D01*
X1446022Y2171750D01*
X1459788Y2177084D01*
X1472793Y2184095D01*
X1484833Y2192629D01*
X1495755Y2202535D01*
X1505356Y2213762D01*
X1513484Y2226056D01*
X1520088Y2239264D01*
X1525016Y2253183D01*
X1526794Y2261362D01*
X1528318Y2264918D01*
X1531112Y2267661D01*
X1534769Y2269134D01*
X1538630Y2269134D01*
X1542288Y2267661D01*
X1545082Y2264918D01*
X1546606Y2261362D01*
X1548384Y2253183D01*
X1553311Y2239264D01*
X1559915Y2226056D01*
X1568043Y2213762D01*
X1577644Y2202535D01*
X1588566Y2192629D01*
X1600606Y2184095D01*
X1613611Y2177084D01*
X1627378Y2171750D01*
X1641652Y2168194D01*
X1656334Y2166366D01*
X1671066Y2166366D01*
X1685747Y2168194D01*
X1700174Y2171801D01*
X1704035Y2172512D01*
X1707845Y2171700D01*
X1711096Y2169464D01*
X1713230Y2166213D01*
X1713992Y2162352D01*
X1713992Y1620977D01*
X1713026Y1616608D01*
X1710283Y1613103D01*
X1706270Y1611122D01*
X1701850Y1611020D01*
X1697736Y1612798D01*
X1693570Y1615948D01*
X1681225Y1622907D01*
X1668018Y1628241D01*
X1654302Y1631848D01*
X1640179Y1633677D01*
X1626006Y1633677D01*
X1611884Y1631848D01*
X1598168Y1628241D01*
X1584960Y1622907D01*
X1572615Y1615948D01*
X1561236Y1607413D01*
X1551025Y1597558D01*
X1542135Y1586433D01*
X1534769Y1574292D01*
X1529029Y1561287D01*
X1524965Y1547672D01*
X1522730Y1533652D01*
X1522272Y1519428D01*
X1523644Y1505305D01*
X1526794Y1491437D01*
X1531721Y1478127D01*
X1538274Y1465529D01*
X1546402Y1453845D01*
X1555953Y1443329D01*
X1566773Y1434134D01*
X1578660Y1426362D01*
X1591462Y1420215D01*
X1604975Y1415745D01*
X1618894Y1413002D01*
X1633118Y1412138D01*
X1647291Y1413002D01*
X1661210Y1415745D01*
X1674723Y1420215D01*
X1687525Y1426362D01*
X1699412Y1434134D01*
X1710232Y1443329D01*
X1717497Y1451356D01*
X1720799Y1453743D01*
X1724761Y1454658D01*
X1728774Y1453946D01*
X1732178Y1451711D01*
X1845360Y1338529D01*
X1847596Y1335227D01*
X1848357Y1331315D01*
X1848357Y873556D01*
X1847596Y869645D01*
X1845360Y866292D01*
X1842007Y864108D01*
X1838960Y862888D01*
X1826615Y855929D01*
X1815236Y847445D01*
X1805025Y837539D01*
X1796135Y826414D01*
X1788769Y814273D01*
X1783029Y801268D01*
X1778965Y787654D01*
X1776730Y773633D01*
X1776272Y759409D01*
X1777644Y745286D01*
X1780793Y731418D01*
X1785721Y718108D01*
X1792274Y705510D01*
X1800402Y693826D01*
X1809953Y683310D01*
X1820773Y674116D01*
X1832660Y666394D01*
X1845462Y660196D01*
X1858975Y655726D01*
X1872894Y653034D01*
G37*
G36*
X1427937Y663702D02*
G01*
X1433525Y666394D01*
X1445412Y674116D01*
X1456232Y683310D01*
X1465783Y693826D01*
X1473911Y705510D01*
X1478432Y714146D01*
X1427937Y714146D01*
G37*
G36*
X1330248Y663702D02*
G01*
X1330248Y714146D01*
X1279753Y714146D01*
X1284274Y705510D01*
X1292402Y693826D01*
X1301953Y683310D01*
X1312773Y674116D01*
X1324660Y666394D01*
G37*
G36*
X2649118Y664819D02*
G01*
X2663291Y665734D01*
X2677210Y668426D01*
X2690723Y672896D01*
X2703525Y679094D01*
X2715412Y686816D01*
X2726232Y696010D01*
X2735783Y706526D01*
X2743911Y718210D01*
X2750464Y730808D01*
X2755392Y744118D01*
X2758541Y757986D01*
X2759913Y772109D01*
X2759456Y786333D01*
X2757220Y800354D01*
X2753156Y813968D01*
X2747416Y826973D01*
X2740050Y839114D01*
X2731160Y850239D01*
X2720949Y860145D01*
X2709570Y868629D01*
X2697226Y875588D01*
X2684018Y880922D01*
X2670302Y884529D01*
X2656179Y886358D01*
X2642006Y886358D01*
X2627884Y884529D01*
X2614168Y880922D01*
X2600960Y875588D01*
X2588615Y868629D01*
X2577236Y860145D01*
X2567025Y850239D01*
X2558135Y839114D01*
X2550769Y826973D01*
X2545029Y813968D01*
X2540965Y800354D01*
X2538730Y786333D01*
X2538272Y772109D01*
X2539644Y757986D01*
X2542794Y744118D01*
X2547721Y730808D01*
X2554274Y718210D01*
X2562402Y706526D01*
X2571953Y696010D01*
X2582773Y686816D01*
X2594660Y679094D01*
X2607462Y672896D01*
X2620975Y668426D01*
X2634894Y665734D01*
G37*
G36*
X4427118Y664819D02*
G01*
X4441291Y665734D01*
X4455210Y668426D01*
X4468723Y672896D01*
X4481525Y679094D01*
X4493412Y686816D01*
X4504232Y696010D01*
X4513783Y706526D01*
X4521911Y718210D01*
X4528464Y730808D01*
X4533392Y744118D01*
X4536541Y757986D01*
X4537913Y772109D01*
X4537456Y786333D01*
X4535220Y800354D01*
X4531156Y813968D01*
X4525416Y826973D01*
X4518050Y839114D01*
X4509160Y850239D01*
X4498949Y860145D01*
X4487570Y868629D01*
X4475226Y875588D01*
X4462018Y880922D01*
X4448302Y884529D01*
X4434179Y886358D01*
X4420006Y886358D01*
X4405884Y884529D01*
X4392168Y880922D01*
X4378960Y875588D01*
X4366615Y868629D01*
X4355236Y860145D01*
X4345025Y850239D01*
X4336135Y839114D01*
X4328769Y826973D01*
X4323029Y813968D01*
X4318965Y800354D01*
X4316730Y786333D01*
X4316272Y772109D01*
X4317644Y757986D01*
X4320794Y744118D01*
X4325721Y730808D01*
X4332274Y718210D01*
X4340402Y706526D01*
X4349953Y696010D01*
X4360773Y686816D01*
X4372660Y679094D01*
X4385462Y672896D01*
X4398975Y668426D01*
X4412894Y665734D01*
G37*
G36*
X4173118Y664819D02*
G01*
X4187291Y665734D01*
X4201210Y668426D01*
X4214723Y672896D01*
X4227525Y679094D01*
X4239412Y686816D01*
X4250232Y696010D01*
X4259783Y706526D01*
X4267911Y718210D01*
X4274464Y730808D01*
X4279392Y744118D01*
X4282541Y757986D01*
X4283913Y772109D01*
X4283456Y786333D01*
X4281220Y800354D01*
X4277156Y813968D01*
X4271416Y826973D01*
X4264050Y839114D01*
X4255160Y850239D01*
X4244949Y860145D01*
X4233570Y868629D01*
X4221226Y875588D01*
X4208018Y880922D01*
X4194301Y884529D01*
X4180179Y886358D01*
X4166006Y886358D01*
X4151884Y884529D01*
X4138168Y880922D01*
X4124960Y875588D01*
X4112615Y868629D01*
X4101236Y860145D01*
X4091025Y850239D01*
X4082135Y839114D01*
X4074769Y826973D01*
X4069029Y813968D01*
X4064965Y800354D01*
X4062729Y786333D01*
X4062272Y772109D01*
X4063644Y757986D01*
X4066794Y744118D01*
X4071721Y730808D01*
X4078274Y718210D01*
X4086402Y706526D01*
X4095953Y696010D01*
X4106773Y686816D01*
X4118660Y679094D01*
X4131462Y672896D01*
X4144975Y668426D01*
X4158894Y665734D01*
G37*
G36*
X2903118Y664819D02*
G01*
X2917291Y665734D01*
X2931210Y668426D01*
X2944723Y672896D01*
X2957525Y679094D01*
X2969412Y686816D01*
X2980232Y696010D01*
X2989783Y706526D01*
X2997911Y718210D01*
X3004464Y730808D01*
X3009392Y744118D01*
X3012541Y757986D01*
X3013913Y772109D01*
X3013456Y786333D01*
X3011220Y800354D01*
X3007156Y813968D01*
X3001416Y826973D01*
X2994050Y839114D01*
X2985160Y850239D01*
X2974949Y860145D01*
X2963570Y868629D01*
X2951226Y875588D01*
X2938018Y880922D01*
X2924302Y884529D01*
X2910179Y886358D01*
X2896006Y886358D01*
X2881884Y884529D01*
X2868168Y880922D01*
X2854960Y875588D01*
X2842615Y868629D01*
X2831236Y860145D01*
X2821025Y850239D01*
X2812135Y839114D01*
X2804769Y826973D01*
X2799029Y813968D01*
X2794965Y800354D01*
X2792730Y786333D01*
X2792272Y772109D01*
X2793644Y757986D01*
X2796794Y744118D01*
X2801721Y730808D01*
X2808274Y718210D01*
X2816402Y706526D01*
X2825953Y696010D01*
X2836773Y686816D01*
X2848660Y679094D01*
X2861462Y672896D01*
X2874975Y668426D01*
X2888894Y665734D01*
G37*
G36*
X3616248Y676402D02*
G01*
X3616248Y726846D01*
X3565753Y726846D01*
X3570274Y718210D01*
X3578402Y706526D01*
X3587953Y696010D01*
X3598773Y686816D01*
X3610660Y679094D01*
G37*
G36*
X3713937Y676402D02*
G01*
X3719525Y679094D01*
X3731412Y686816D01*
X3742232Y696010D01*
X3751783Y706526D01*
X3759911Y718210D01*
X3764432Y726846D01*
X3713937Y726846D01*
G37*
G36*
X1427937Y811834D02*
G01*
X1478483Y811834D01*
X1477416Y814273D01*
X1470050Y826414D01*
X1461160Y837539D01*
X1450949Y847445D01*
X1439570Y855929D01*
X1427937Y862482D01*
G37*
G36*
X1279702Y811834D02*
G01*
X1330248Y811834D01*
X1330248Y862482D01*
X1318615Y855929D01*
X1307236Y847445D01*
X1297025Y837539D01*
X1288135Y826414D01*
X1280769Y814273D01*
G37*
G36*
X3565702Y824534D02*
G01*
X3616248Y824534D01*
X3616248Y875182D01*
X3604615Y868629D01*
X3593236Y860145D01*
X3583025Y850239D01*
X3574135Y839114D01*
X3566769Y826973D01*
G37*
G36*
X3713937Y824534D02*
G01*
X3764483Y824534D01*
X3763416Y826973D01*
X3756050Y839114D01*
X3747160Y850239D01*
X3736949Y860145D01*
X3725570Y868629D01*
X3713937Y875182D01*
G37*
G36*
X1125118Y1412138D02*
G01*
X1139291Y1413002D01*
X1153210Y1415745D01*
X1166723Y1420215D01*
X1179525Y1426362D01*
X1191412Y1434134D01*
X1202232Y1443329D01*
X1211783Y1453845D01*
X1219911Y1465529D01*
X1226464Y1478127D01*
X1231392Y1491437D01*
X1234541Y1505305D01*
X1235913Y1519428D01*
X1235456Y1533652D01*
X1233220Y1547672D01*
X1229156Y1561287D01*
X1223416Y1574292D01*
X1216050Y1586433D01*
X1207160Y1597558D01*
X1196949Y1607413D01*
X1185570Y1615948D01*
X1173226Y1622907D01*
X1160018Y1628241D01*
X1146302Y1631848D01*
X1132179Y1633677D01*
X1118006Y1633677D01*
X1103884Y1631848D01*
X1090168Y1628241D01*
X1076960Y1622907D01*
X1064615Y1615948D01*
X1053236Y1607413D01*
X1043025Y1597558D01*
X1034135Y1586433D01*
X1026769Y1574292D01*
X1021029Y1561287D01*
X1016965Y1547672D01*
X1014730Y1533652D01*
X1014272Y1519428D01*
X1015644Y1505305D01*
X1018794Y1491437D01*
X1023721Y1478127D01*
X1030274Y1465529D01*
X1038402Y1453845D01*
X1047953Y1443329D01*
X1058773Y1434134D01*
X1070660Y1426362D01*
X1083462Y1420215D01*
X1096975Y1415745D01*
X1110894Y1413002D01*
G37*
G36*
X1379118Y1412138D02*
G01*
X1393291Y1413002D01*
X1407210Y1415745D01*
X1420723Y1420215D01*
X1433525Y1426362D01*
X1445412Y1434134D01*
X1456232Y1443329D01*
X1465783Y1453845D01*
X1473911Y1465529D01*
X1480464Y1478127D01*
X1485392Y1491437D01*
X1488541Y1505305D01*
X1489913Y1519428D01*
X1489456Y1533652D01*
X1487220Y1547672D01*
X1483156Y1561287D01*
X1477416Y1574292D01*
X1470050Y1586433D01*
X1461160Y1597558D01*
X1450949Y1607413D01*
X1439570Y1615948D01*
X1427226Y1622907D01*
X1414018Y1628241D01*
X1400302Y1631848D01*
X1386179Y1633677D01*
X1372006Y1633677D01*
X1357884Y1631848D01*
X1344168Y1628241D01*
X1330960Y1622907D01*
X1318615Y1615948D01*
X1307236Y1607413D01*
X1297025Y1597558D01*
X1288135Y1586433D01*
X1280769Y1574292D01*
X1275029Y1561287D01*
X1270965Y1547672D01*
X1268730Y1533652D01*
X1268272Y1519428D01*
X1269644Y1505305D01*
X1272794Y1491437D01*
X1277721Y1478127D01*
X1284274Y1465529D01*
X1292402Y1453845D01*
X1301953Y1443329D01*
X1312773Y1434134D01*
X1324660Y1426362D01*
X1337462Y1420215D01*
X1350975Y1415745D01*
X1364894Y1413002D01*
G37*
G36*
X871118Y1412138D02*
G01*
X885291Y1413002D01*
X899210Y1415745D01*
X912723Y1420215D01*
X925525Y1426362D01*
X937412Y1434134D01*
X948232Y1443329D01*
X957783Y1453845D01*
X965911Y1465529D01*
X972464Y1478127D01*
X977392Y1491437D01*
X980541Y1505305D01*
X981913Y1519428D01*
X981456Y1533652D01*
X979220Y1547672D01*
X975156Y1561287D01*
X969416Y1574292D01*
X962050Y1586433D01*
X953160Y1597558D01*
X942949Y1607413D01*
X931570Y1615948D01*
X919226Y1622907D01*
X906018Y1628241D01*
X892302Y1631848D01*
X878179Y1633677D01*
X864006Y1633677D01*
X849884Y1631848D01*
X836168Y1628241D01*
X822960Y1622907D01*
X810615Y1615948D01*
X799236Y1607413D01*
X789025Y1597558D01*
X780135Y1586433D01*
X772769Y1574292D01*
X767029Y1561287D01*
X762965Y1547672D01*
X760730Y1533652D01*
X760272Y1519428D01*
X761644Y1505305D01*
X764794Y1491437D01*
X769721Y1478127D01*
X776274Y1465529D01*
X784402Y1453845D01*
X793953Y1443329D01*
X804773Y1434134D01*
X816660Y1426362D01*
X829462Y1420215D01*
X842975Y1415745D01*
X856894Y1413002D01*
G37*
G36*
X617118Y1412138D02*
G01*
X631291Y1413002D01*
X645210Y1415745D01*
X658723Y1420215D01*
X671525Y1426362D01*
X683412Y1434134D01*
X694232Y1443329D01*
X703783Y1453845D01*
X711911Y1465529D01*
X718464Y1478127D01*
X723392Y1491437D01*
X726541Y1505305D01*
X727913Y1519428D01*
X727456Y1533652D01*
X725220Y1547672D01*
X721156Y1561287D01*
X715416Y1574292D01*
X708050Y1586433D01*
X699160Y1597558D01*
X688949Y1607413D01*
X677570Y1615948D01*
X665226Y1622907D01*
X652018Y1628241D01*
X638302Y1631848D01*
X624179Y1633677D01*
X610006Y1633677D01*
X595884Y1631848D01*
X582168Y1628241D01*
X568960Y1622907D01*
X556615Y1615948D01*
X545236Y1607413D01*
X535025Y1597558D01*
X526135Y1586433D01*
X518769Y1574292D01*
X513029Y1561287D01*
X508965Y1547672D01*
X506730Y1533652D01*
X506272Y1519428D01*
X507644Y1505305D01*
X510793Y1491437D01*
X515721Y1478127D01*
X522274Y1465529D01*
X530402Y1453845D01*
X539953Y1443329D01*
X550773Y1434134D01*
X562660Y1426362D01*
X575462Y1420215D01*
X588975Y1415745D01*
X602894Y1413002D01*
G37*
G36*
X411937Y1423720D02*
G01*
X417525Y1426362D01*
X429412Y1434134D01*
X440232Y1443329D01*
X449783Y1453845D01*
X457911Y1465529D01*
X462432Y1474165D01*
X411937Y1474165D01*
G37*
G36*
X314248Y1423720D02*
G01*
X314248Y1474165D01*
X263753Y1474165D01*
X268274Y1465529D01*
X276402Y1453845D01*
X285953Y1443329D01*
X296773Y1434134D01*
X308660Y1426362D01*
G37*
G36*
X4342688Y1424787D02*
G01*
X4511497Y1424787D01*
X4517847Y1425498D01*
X4523282Y1427429D01*
X4528210Y1430477D01*
X4532274Y1434592D01*
X4535373Y1439468D01*
X4537303Y1444955D01*
X4538014Y1451254D01*
X4538014Y1620113D01*
X4537303Y1626463D01*
X4535373Y1631899D01*
X4532274Y1636826D01*
X4528210Y1640890D01*
X4523282Y1643989D01*
X4517847Y1645920D01*
X4511497Y1646631D01*
X4342688Y1646631D01*
X4336338Y1645920D01*
X4330903Y1643989D01*
X4325975Y1640890D01*
X4321911Y1636826D01*
X4318812Y1631899D01*
X4316882Y1626463D01*
X4316171Y1620113D01*
X4316171Y1451254D01*
X4316882Y1444955D01*
X4318812Y1439468D01*
X4321911Y1434592D01*
X4325975Y1430477D01*
X4330903Y1427429D01*
X4336338Y1425498D01*
G37*
G36*
X4173118Y1424838D02*
G01*
X4187291Y1425702D01*
X4201210Y1428445D01*
X4214723Y1432915D01*
X4227525Y1439062D01*
X4239412Y1446834D01*
X4250232Y1456029D01*
X4259783Y1466545D01*
X4267911Y1478229D01*
X4274464Y1490827D01*
X4279392Y1504137D01*
X4282541Y1518005D01*
X4283913Y1532128D01*
X4283456Y1546352D01*
X4281220Y1560372D01*
X4277156Y1573987D01*
X4271416Y1586992D01*
X4264050Y1599133D01*
X4255160Y1610258D01*
X4244949Y1620113D01*
X4233570Y1628648D01*
X4221226Y1635607D01*
X4208018Y1640941D01*
X4194301Y1644548D01*
X4180179Y1646377D01*
X4166006Y1646377D01*
X4151884Y1644548D01*
X4138168Y1640941D01*
X4124960Y1635607D01*
X4112615Y1628648D01*
X4101236Y1620113D01*
X4091025Y1610258D01*
X4082135Y1599133D01*
X4074769Y1586992D01*
X4069029Y1573987D01*
X4064965Y1560372D01*
X4062729Y1546352D01*
X4062272Y1532128D01*
X4063644Y1518005D01*
X4066794Y1504137D01*
X4071721Y1490827D01*
X4078274Y1478229D01*
X4086402Y1466545D01*
X4095953Y1456029D01*
X4106773Y1446834D01*
X4118660Y1439062D01*
X4131462Y1432915D01*
X4144975Y1428445D01*
X4158894Y1425702D01*
G37*
G36*
X2903118Y1424838D02*
G01*
X2917291Y1425702D01*
X2931210Y1428445D01*
X2944723Y1432915D01*
X2957525Y1439062D01*
X2969412Y1446834D01*
X2980232Y1456029D01*
X2989783Y1466545D01*
X2997911Y1478229D01*
X3004464Y1490827D01*
X3009392Y1504137D01*
X3012541Y1518005D01*
X3013913Y1532128D01*
X3013456Y1546352D01*
X3011220Y1560372D01*
X3007156Y1573987D01*
X3001416Y1586992D01*
X2994050Y1599133D01*
X2985160Y1610258D01*
X2974949Y1620113D01*
X2963570Y1628648D01*
X2951226Y1635607D01*
X2938018Y1640941D01*
X2924302Y1644548D01*
X2910179Y1646377D01*
X2896006Y1646377D01*
X2881884Y1644548D01*
X2868168Y1640941D01*
X2854960Y1635607D01*
X2842615Y1628648D01*
X2831236Y1620113D01*
X2821025Y1610258D01*
X2812135Y1599133D01*
X2804769Y1586992D01*
X2799029Y1573987D01*
X2794965Y1560372D01*
X2792730Y1546352D01*
X2792272Y1532128D01*
X2793644Y1518005D01*
X2796794Y1504137D01*
X2801721Y1490827D01*
X2808274Y1478229D01*
X2816402Y1466545D01*
X2825953Y1456029D01*
X2836773Y1446834D01*
X2848660Y1439062D01*
X2861462Y1432915D01*
X2874975Y1428445D01*
X2888894Y1425702D01*
G37*
G36*
X2600248Y1436420D02*
G01*
X2600248Y1486865D01*
X2549753Y1486865D01*
X2554274Y1478229D01*
X2562402Y1466545D01*
X2571953Y1456029D01*
X2582773Y1446834D01*
X2594660Y1439062D01*
G37*
G36*
X2697937Y1436420D02*
G01*
X2703525Y1439062D01*
X2715412Y1446834D01*
X2726232Y1456029D01*
X2735783Y1466545D01*
X2743911Y1478229D01*
X2748432Y1486865D01*
X2697937Y1486865D01*
G37*
G36*
X411937Y1571853D02*
G01*
X462483Y1571853D01*
X461416Y1574292D01*
X454050Y1586433D01*
X445160Y1597558D01*
X434949Y1607413D01*
X423570Y1615948D01*
X411937Y1622501D01*
G37*
G36*
X263702Y1571853D02*
G01*
X314248Y1571853D01*
X314248Y1622501D01*
X302615Y1615948D01*
X291236Y1607413D01*
X281025Y1597558D01*
X272135Y1586433D01*
X264769Y1574292D01*
G37*
G36*
X2549702Y1584553D02*
G01*
X2600248Y1584553D01*
X2600248Y1635201D01*
X2588615Y1628648D01*
X2577236Y1620113D01*
X2567025Y1610258D01*
X2558135Y1599133D01*
X2550769Y1586992D01*
G37*
G36*
X2697937Y1584553D02*
G01*
X2748483Y1584553D01*
X2747416Y1586992D01*
X2740050Y1599133D01*
X2731160Y1610258D01*
X2720949Y1620113D01*
X2709570Y1628648D01*
X2697937Y1635201D01*
G37*
G36*
X4404360Y2178862D02*
G01*
X4404360Y2232660D01*
X4350613Y2232660D01*
X4353915Y2226056D01*
X4362043Y2213762D01*
X4371644Y2202535D01*
X4382566Y2192629D01*
X4394606Y2184095D01*
G37*
G36*
X4511040Y2178862D02*
G01*
X4520793Y2184095D01*
X4532833Y2192629D01*
X4543755Y2202535D01*
X4553356Y2213762D01*
X4561484Y2226056D01*
X4564786Y2232660D01*
X4511040Y2232660D01*
G37*
G36*
X4511040Y2339340D02*
G01*
X4565040Y2339340D01*
X4557623Y2352192D01*
X4548733Y2363978D01*
X4538472Y2374595D01*
X4526940Y2383840D01*
X4514392Y2391613D01*
X4511040Y2393137D01*
G37*
G36*
X4350359Y2339340D02*
G01*
X4404360Y2339340D01*
X4404360Y2393137D01*
X4401007Y2391613D01*
X4388459Y2383840D01*
X4376928Y2374595D01*
X4366666Y2363978D01*
X4357776Y2352192D01*
G37*
G36*
X5495696Y3377031D02*
G01*
X5514492Y3377031D01*
X5533237Y3378962D01*
X5551678Y3382721D01*
X5569661Y3388360D01*
X5586984Y3395827D01*
X5603443Y3404971D01*
X5618886Y3415690D01*
X5633161Y3427984D01*
X5646166Y3441598D01*
X5657646Y3456533D01*
X5667654Y3472484D01*
X5675934Y3489401D01*
X5682488Y3507079D01*
X5687161Y3525265D01*
X5690057Y3543909D01*
X5690971Y3562705D01*
X5690057Y3581501D01*
X5687161Y3600145D01*
X5682488Y3618331D01*
X5675934Y3636010D01*
X5667654Y3652926D01*
X5657646Y3668877D01*
X5646166Y3683812D01*
X5633161Y3697427D01*
X5618886Y3709720D01*
X5603443Y3720439D01*
X5586984Y3729583D01*
X5569661Y3737051D01*
X5551678Y3742690D01*
X5533237Y3746449D01*
X5514492Y3748379D01*
X5495696Y3748379D01*
X5476951Y3746449D01*
X5458510Y3742690D01*
X5440527Y3737051D01*
X5423204Y3729583D01*
X5406745Y3720439D01*
X5391302Y3709720D01*
X5377027Y3697427D01*
X5364022Y3683812D01*
X5352542Y3668877D01*
X5342534Y3652926D01*
X5334254Y3636010D01*
X5327700Y3618331D01*
X5323027Y3600145D01*
X5320131Y3581501D01*
X5319217Y3562705D01*
X5320131Y3543909D01*
X5323027Y3525265D01*
X5327700Y3507079D01*
X5334254Y3489401D01*
X5342534Y3472484D01*
X5352542Y3456533D01*
X5364022Y3441598D01*
X5377027Y3427984D01*
X5391302Y3415690D01*
X5406745Y3404971D01*
X5423204Y3395827D01*
X5440527Y3388360D01*
X5458510Y3382721D01*
X5476951Y3378962D01*
G37*
G36*
X3134360Y3702913D02*
G01*
X3134360Y3756660D01*
X3080562Y3756660D01*
X3085795Y3746906D01*
X3094329Y3734866D01*
X3104235Y3723944D01*
X3115462Y3714343D01*
X3127756Y3706215D01*
G37*
G36*
X3080562Y3863340D02*
G01*
X3134360Y3863340D01*
X3134360Y3917086D01*
X3127756Y3913835D01*
X3115462Y3905656D01*
X3104235Y3896055D01*
X3094329Y3885133D01*
X3085795Y3873093D01*
G37*
G36*
X428396Y4911039D02*
G01*
X447192Y4911039D01*
X465937Y4912918D01*
X484378Y4916728D01*
X502361Y4922367D01*
X519684Y4929784D01*
X536143Y4938928D01*
X551586Y4949698D01*
X565861Y4961940D01*
X578866Y4975606D01*
X590346Y4990490D01*
X600354Y5006492D01*
X608634Y5023358D01*
X615188Y5041036D01*
X619861Y5059273D01*
X622757Y5077866D01*
X623671Y5096662D01*
X622757Y5115509D01*
X619861Y5134102D01*
X615188Y5152339D01*
X608634Y5170017D01*
X600354Y5186883D01*
X590346Y5202885D01*
X578866Y5217769D01*
X565861Y5231434D01*
X551586Y5243677D01*
X536143Y5254447D01*
X519684Y5263591D01*
X502361Y5271008D01*
X484378Y5276646D01*
X465937Y5280456D01*
X447192Y5282336D01*
X428396Y5282336D01*
X409651Y5280456D01*
X391210Y5276646D01*
X373227Y5271008D01*
X355904Y5263591D01*
X339445Y5254447D01*
X324002Y5243677D01*
X309727Y5231434D01*
X296722Y5217769D01*
X285242Y5202885D01*
X275234Y5186883D01*
X266954Y5170017D01*
X260400Y5152339D01*
X255727Y5134102D01*
X252831Y5115509D01*
X251917Y5096662D01*
X252831Y5077866D01*
X255727Y5059273D01*
X260400Y5041036D01*
X266954Y5023358D01*
X275234Y5006492D01*
X285242Y4990490D01*
X296722Y4975606D01*
X309727Y4961940D01*
X324002Y4949698D01*
X339445Y4938928D01*
X355904Y4929784D01*
X373227Y4922367D01*
X391210Y4916728D01*
X409651Y4912918D01*
G37*
G36*
X1028700Y4988052D02*
G01*
X1042365Y4988966D01*
X1055776Y4991658D01*
X1068730Y4996027D01*
X1081024Y5002072D01*
X1092403Y5009692D01*
X1102664Y5018735D01*
X1111707Y5028996D01*
X1119327Y5040376D01*
X1125372Y5052669D01*
X1129741Y5065623D01*
X1132433Y5079034D01*
X1133348Y5092700D01*
X1132433Y5106365D01*
X1129741Y5119776D01*
X1125372Y5132730D01*
X1119327Y5145024D01*
X1111707Y5156403D01*
X1102664Y5166664D01*
X1092403Y5175707D01*
X1081024Y5183327D01*
X1068730Y5189372D01*
X1055776Y5193741D01*
X1042365Y5196433D01*
X1028700Y5197348D01*
X1015034Y5196433D01*
X1001623Y5193741D01*
X988669Y5189372D01*
X976376Y5183327D01*
X964996Y5175707D01*
X954735Y5166664D01*
X945692Y5156403D01*
X938072Y5145024D01*
X932027Y5132730D01*
X927658Y5119776D01*
X924966Y5106365D01*
X924052Y5092700D01*
X924966Y5079034D01*
X927658Y5065623D01*
X932027Y5052669D01*
X938072Y5040376D01*
X945692Y5028996D01*
X954735Y5018735D01*
X964996Y5009692D01*
X976376Y5002072D01*
X988669Y4996027D01*
X1001623Y4991658D01*
X1015034Y4988966D01*
G37*
G36*
X1790700Y4988052D02*
G01*
X1804365Y4988966D01*
X1817776Y4991658D01*
X1830730Y4996027D01*
X1843024Y5002072D01*
X1854403Y5009692D01*
X1864664Y5018735D01*
X1873707Y5028996D01*
X1881327Y5040376D01*
X1887372Y5052669D01*
X1891741Y5065623D01*
X1894433Y5079034D01*
X1895348Y5092700D01*
X1894433Y5106365D01*
X1891741Y5119776D01*
X1887372Y5132730D01*
X1881327Y5145024D01*
X1873707Y5156403D01*
X1864664Y5166664D01*
X1854403Y5175707D01*
X1843024Y5183327D01*
X1830730Y5189372D01*
X1817776Y5193741D01*
X1804365Y5196433D01*
X1790700Y5197348D01*
X1777034Y5196433D01*
X1763623Y5193741D01*
X1750669Y5189372D01*
X1738375Y5183327D01*
X1726996Y5175707D01*
X1716735Y5166664D01*
X1707692Y5156403D01*
X1700072Y5145024D01*
X1694027Y5132730D01*
X1689658Y5119776D01*
X1686966Y5106365D01*
X1686052Y5092700D01*
X1686966Y5079034D01*
X1689658Y5065623D01*
X1694027Y5052669D01*
X1700072Y5040376D01*
X1707692Y5028996D01*
X1716735Y5018735D01*
X1726996Y5009692D01*
X1738375Y5002072D01*
X1750669Y4996027D01*
X1763623Y4991658D01*
X1777034Y4988966D01*
G37*
G36*
X1282700Y4988052D02*
G01*
X1296365Y4988966D01*
X1309776Y4991658D01*
X1322730Y4996027D01*
X1335024Y5002072D01*
X1346403Y5009692D01*
X1356664Y5018735D01*
X1365707Y5028996D01*
X1373327Y5040376D01*
X1379372Y5052669D01*
X1383741Y5065623D01*
X1386433Y5079034D01*
X1387348Y5092700D01*
X1386433Y5106365D01*
X1383741Y5119776D01*
X1379372Y5132730D01*
X1373327Y5145024D01*
X1365707Y5156403D01*
X1356664Y5166664D01*
X1346403Y5175707D01*
X1335024Y5183327D01*
X1322730Y5189372D01*
X1309776Y5193741D01*
X1296365Y5196433D01*
X1282700Y5197348D01*
X1269034Y5196433D01*
X1255623Y5193741D01*
X1242669Y5189372D01*
X1230376Y5183327D01*
X1218996Y5175707D01*
X1208735Y5166664D01*
X1199692Y5156403D01*
X1192072Y5145024D01*
X1186027Y5132730D01*
X1181658Y5119776D01*
X1178966Y5106365D01*
X1178052Y5092700D01*
X1178966Y5079034D01*
X1181658Y5065623D01*
X1186027Y5052669D01*
X1192072Y5040376D01*
X1199692Y5028996D01*
X1208735Y5018735D01*
X1218996Y5009692D01*
X1230376Y5002072D01*
X1242669Y4996027D01*
X1255623Y4991658D01*
X1269034Y4988966D01*
G37*
G36*
X2044700Y4988052D02*
G01*
X2058365Y4988966D01*
X2071776Y4991658D01*
X2084730Y4996027D01*
X2097024Y5002072D01*
X2108403Y5009692D01*
X2118664Y5018735D01*
X2127707Y5028996D01*
X2135327Y5040376D01*
X2141372Y5052669D01*
X2145741Y5065623D01*
X2148433Y5079034D01*
X2149348Y5092700D01*
X2148433Y5106365D01*
X2145741Y5119776D01*
X2141372Y5132730D01*
X2135327Y5145024D01*
X2127707Y5156403D01*
X2118664Y5166664D01*
X2108403Y5175707D01*
X2097024Y5183327D01*
X2084730Y5189372D01*
X2071776Y5193741D01*
X2058365Y5196433D01*
X2044700Y5197348D01*
X2031034Y5196433D01*
X2017623Y5193741D01*
X2004669Y5189372D01*
X1992375Y5183327D01*
X1980996Y5175707D01*
X1970735Y5166664D01*
X1961692Y5156403D01*
X1954072Y5145024D01*
X1948027Y5132730D01*
X1943658Y5119776D01*
X1940966Y5106365D01*
X1940052Y5092700D01*
X1940966Y5079034D01*
X1943658Y5065623D01*
X1948027Y5052669D01*
X1954072Y5040376D01*
X1961692Y5028996D01*
X1970735Y5018735D01*
X1980996Y5009692D01*
X1992375Y5002072D01*
X2004669Y4996027D01*
X2017623Y4991658D01*
X2031034Y4988966D01*
G37*
G36*
X4737100Y4988052D02*
G01*
X4750765Y4988966D01*
X4764176Y4991658D01*
X4777130Y4996027D01*
X4789424Y5002072D01*
X4800803Y5009692D01*
X4811064Y5018735D01*
X4820107Y5028996D01*
X4827727Y5040376D01*
X4833772Y5052669D01*
X4838141Y5065623D01*
X4840833Y5079034D01*
X4841748Y5092700D01*
X4840833Y5106365D01*
X4838141Y5119776D01*
X4833772Y5132730D01*
X4827727Y5145024D01*
X4820107Y5156403D01*
X4811064Y5166664D01*
X4800803Y5175707D01*
X4789424Y5183327D01*
X4777130Y5189372D01*
X4764176Y5193741D01*
X4750765Y5196433D01*
X4737100Y5197348D01*
X4723434Y5196433D01*
X4710023Y5193741D01*
X4697069Y5189372D01*
X4684776Y5183327D01*
X4673396Y5175707D01*
X4663135Y5166664D01*
X4654092Y5156403D01*
X4646472Y5145024D01*
X4640427Y5132730D01*
X4636058Y5119776D01*
X4633366Y5106365D01*
X4632452Y5092700D01*
X4633366Y5079034D01*
X4636058Y5065623D01*
X4640427Y5052669D01*
X4646472Y5040376D01*
X4654092Y5028996D01*
X4663135Y5018735D01*
X4673396Y5009692D01*
X4684776Y5002072D01*
X4697069Y4996027D01*
X4710023Y4991658D01*
X4723434Y4988966D01*
G37*
G36*
X3975100Y4988052D02*
G01*
X3988765Y4988966D01*
X4002176Y4991658D01*
X4015130Y4996027D01*
X4027424Y5002072D01*
X4038803Y5009692D01*
X4049064Y5018735D01*
X4058107Y5028996D01*
X4065727Y5040376D01*
X4071772Y5052669D01*
X4076141Y5065623D01*
X4078833Y5079034D01*
X4079748Y5092700D01*
X4078833Y5106365D01*
X4076141Y5119776D01*
X4071772Y5132730D01*
X4065727Y5145024D01*
X4058107Y5156403D01*
X4049064Y5166664D01*
X4038803Y5175707D01*
X4027424Y5183327D01*
X4015130Y5189372D01*
X4002176Y5193741D01*
X3988765Y5196433D01*
X3975100Y5197348D01*
X3961434Y5196433D01*
X3948023Y5193741D01*
X3935069Y5189372D01*
X3922776Y5183327D01*
X3911396Y5175707D01*
X3901135Y5166664D01*
X3892092Y5156403D01*
X3884472Y5145024D01*
X3878427Y5132730D01*
X3874058Y5119776D01*
X3871366Y5106365D01*
X3870451Y5092700D01*
X3871366Y5079034D01*
X3874058Y5065623D01*
X3878427Y5052669D01*
X3884472Y5040376D01*
X3892092Y5028996D01*
X3901135Y5018735D01*
X3911396Y5009692D01*
X3922776Y5002072D01*
X3935069Y4996027D01*
X3948023Y4991658D01*
X3961434Y4988966D01*
G37*
G36*
X3467100Y4988052D02*
G01*
X3480765Y4988966D01*
X3494176Y4991658D01*
X3507130Y4996027D01*
X3519424Y5002072D01*
X3530803Y5009692D01*
X3541064Y5018735D01*
X3550107Y5028996D01*
X3557727Y5040376D01*
X3563772Y5052669D01*
X3568141Y5065623D01*
X3570833Y5079034D01*
X3571748Y5092700D01*
X3570833Y5106365D01*
X3568141Y5119776D01*
X3563772Y5132730D01*
X3557727Y5145024D01*
X3550107Y5156403D01*
X3541064Y5166664D01*
X3530803Y5175707D01*
X3519424Y5183327D01*
X3507130Y5189372D01*
X3494176Y5193741D01*
X3480765Y5196433D01*
X3467100Y5197348D01*
X3453434Y5196433D01*
X3440023Y5193741D01*
X3427069Y5189372D01*
X3414776Y5183327D01*
X3403396Y5175707D01*
X3393135Y5166664D01*
X3384092Y5156403D01*
X3376472Y5145024D01*
X3370427Y5132730D01*
X3366058Y5119776D01*
X3363366Y5106365D01*
X3362451Y5092700D01*
X3363366Y5079034D01*
X3366058Y5065623D01*
X3370427Y5052669D01*
X3376472Y5040376D01*
X3384092Y5028996D01*
X3393135Y5018735D01*
X3403396Y5009692D01*
X3414776Y5002072D01*
X3427069Y4996027D01*
X3440023Y4991658D01*
X3453434Y4988966D01*
G37*
G36*
X3721100Y4988052D02*
G01*
X3734765Y4988966D01*
X3748176Y4991658D01*
X3761130Y4996027D01*
X3773424Y5002072D01*
X3784803Y5009692D01*
X3795064Y5018735D01*
X3804107Y5028996D01*
X3811727Y5040376D01*
X3817772Y5052669D01*
X3822141Y5065623D01*
X3824833Y5079034D01*
X3825748Y5092700D01*
X3824833Y5106365D01*
X3822141Y5119776D01*
X3817772Y5132730D01*
X3811727Y5145024D01*
X3804107Y5156403D01*
X3795064Y5166664D01*
X3784803Y5175707D01*
X3773424Y5183327D01*
X3761130Y5189372D01*
X3748176Y5193741D01*
X3734765Y5196433D01*
X3721100Y5197348D01*
X3707434Y5196433D01*
X3694023Y5193741D01*
X3681069Y5189372D01*
X3668776Y5183327D01*
X3657396Y5175707D01*
X3647135Y5166664D01*
X3638092Y5156403D01*
X3630472Y5145024D01*
X3624427Y5132730D01*
X3620058Y5119776D01*
X3617366Y5106365D01*
X3616451Y5092700D01*
X3617366Y5079034D01*
X3620058Y5065623D01*
X3624427Y5052669D01*
X3630472Y5040376D01*
X3638092Y5028996D01*
X3647135Y5018735D01*
X3657396Y5009692D01*
X3668776Y5002072D01*
X3681069Y4996027D01*
X3694023Y4991658D01*
X3707434Y4988966D01*
G37*
G36*
X4483100Y4988052D02*
G01*
X4496765Y4988966D01*
X4510176Y4991658D01*
X4523130Y4996027D01*
X4535424Y5002072D01*
X4546803Y5009692D01*
X4557064Y5018735D01*
X4566107Y5028996D01*
X4573727Y5040376D01*
X4579772Y5052669D01*
X4584141Y5065623D01*
X4586833Y5079034D01*
X4587748Y5092700D01*
X4586833Y5106365D01*
X4584141Y5119776D01*
X4579772Y5132730D01*
X4573727Y5145024D01*
X4566107Y5156403D01*
X4557064Y5166664D01*
X4546803Y5175707D01*
X4535424Y5183327D01*
X4523130Y5189372D01*
X4510176Y5193741D01*
X4496765Y5196433D01*
X4483100Y5197348D01*
X4469434Y5196433D01*
X4456023Y5193741D01*
X4443069Y5189372D01*
X4430776Y5183327D01*
X4419396Y5175707D01*
X4409135Y5166664D01*
X4400092Y5156403D01*
X4392472Y5145024D01*
X4386427Y5132730D01*
X4382058Y5119776D01*
X4379366Y5106365D01*
X4378452Y5092700D01*
X4379366Y5079034D01*
X4382058Y5065623D01*
X4386427Y5052669D01*
X4392472Y5040376D01*
X4400092Y5028996D01*
X4409135Y5018735D01*
X4419396Y5009692D01*
X4430776Y5002072D01*
X4443069Y4996027D01*
X4456023Y4991658D01*
X4469434Y4988966D01*
G37*
G36*
X4229100Y4988052D02*
G01*
X4242765Y4988966D01*
X4256176Y4991658D01*
X4269130Y4996027D01*
X4281424Y5002072D01*
X4292803Y5009692D01*
X4303064Y5018735D01*
X4312107Y5028996D01*
X4319727Y5040376D01*
X4325772Y5052669D01*
X4330141Y5065623D01*
X4332833Y5079034D01*
X4333748Y5092700D01*
X4332833Y5106365D01*
X4330141Y5119776D01*
X4325772Y5132730D01*
X4319727Y5145024D01*
X4312107Y5156403D01*
X4303064Y5166664D01*
X4292803Y5175707D01*
X4281424Y5183327D01*
X4269130Y5189372D01*
X4256176Y5193741D01*
X4242765Y5196433D01*
X4229100Y5197348D01*
X4215434Y5196433D01*
X4202023Y5193741D01*
X4189069Y5189372D01*
X4176776Y5183327D01*
X4165396Y5175707D01*
X4155135Y5166664D01*
X4146092Y5156403D01*
X4138472Y5145024D01*
X4132427Y5132730D01*
X4128058Y5119776D01*
X4125366Y5106365D01*
X4124451Y5092700D01*
X4125366Y5079034D01*
X4128058Y5065623D01*
X4132427Y5052669D01*
X4138472Y5040376D01*
X4146092Y5028996D01*
X4155135Y5018735D01*
X4165396Y5009692D01*
X4176776Y5002072D01*
X4189069Y4996027D01*
X4202023Y4991658D01*
X4215434Y4988966D01*
G37*
G36*
X3060700Y4988052D02*
G01*
X3074365Y4988966D01*
X3087776Y4991658D01*
X3100730Y4996027D01*
X3113024Y5002072D01*
X3124403Y5009692D01*
X3134664Y5018735D01*
X3143707Y5028996D01*
X3151327Y5040376D01*
X3157372Y5052669D01*
X3161741Y5065623D01*
X3164433Y5079034D01*
X3165348Y5092700D01*
X3164433Y5106365D01*
X3161741Y5119776D01*
X3157372Y5132730D01*
X3151327Y5145024D01*
X3143707Y5156403D01*
X3134664Y5166664D01*
X3124403Y5175707D01*
X3113024Y5183327D01*
X3100730Y5189372D01*
X3087776Y5193741D01*
X3074365Y5196433D01*
X3060700Y5197348D01*
X3047034Y5196433D01*
X3033623Y5193741D01*
X3020669Y5189372D01*
X3008376Y5183327D01*
X2996996Y5175707D01*
X2986735Y5166664D01*
X2977692Y5156403D01*
X2970072Y5145024D01*
X2964027Y5132730D01*
X2959658Y5119776D01*
X2956966Y5106365D01*
X2956052Y5092700D01*
X2956966Y5079034D01*
X2959658Y5065623D01*
X2964027Y5052669D01*
X2970072Y5040376D01*
X2977692Y5028996D01*
X2986735Y5018735D01*
X2996996Y5009692D01*
X3008376Y5002072D01*
X3020669Y4996027D01*
X3033623Y4991658D01*
X3047034Y4988966D01*
G37*
G36*
X4991100Y4988052D02*
G01*
X5004765Y4988966D01*
X5018176Y4991658D01*
X5031130Y4996027D01*
X5043424Y5002072D01*
X5054803Y5009692D01*
X5065064Y5018735D01*
X5074107Y5028996D01*
X5081727Y5040376D01*
X5087772Y5052669D01*
X5092141Y5065623D01*
X5094833Y5079034D01*
X5095748Y5092700D01*
X5094833Y5106365D01*
X5092141Y5119776D01*
X5087772Y5132730D01*
X5081727Y5145024D01*
X5074107Y5156403D01*
X5065064Y5166664D01*
X5054803Y5175707D01*
X5043424Y5183327D01*
X5031130Y5189372D01*
X5018176Y5193741D01*
X5004765Y5196433D01*
X4991100Y5197348D01*
X4977434Y5196433D01*
X4964023Y5193741D01*
X4951069Y5189372D01*
X4938776Y5183327D01*
X4927396Y5175707D01*
X4917135Y5166664D01*
X4908092Y5156403D01*
X4900472Y5145024D01*
X4894427Y5132730D01*
X4890058Y5119776D01*
X4887366Y5106365D01*
X4886452Y5092700D01*
X4887366Y5079034D01*
X4890058Y5065623D01*
X4894427Y5052669D01*
X4900472Y5040376D01*
X4908092Y5028996D01*
X4917135Y5018735D01*
X4927396Y5009692D01*
X4938776Y5002072D01*
X4951069Y4996027D01*
X4964023Y4991658D01*
X4977434Y4988966D01*
G37*
G36*
X696518Y4988052D02*
G01*
X852881Y4988052D01*
X859180Y4988763D01*
X864666Y4990693D01*
X869543Y4993741D01*
X873658Y4997856D01*
X876706Y5002733D01*
X878636Y5008219D01*
X879348Y5014518D01*
X879348Y5170881D01*
X878636Y5177180D01*
X876706Y5182666D01*
X873658Y5187543D01*
X869543Y5191658D01*
X864666Y5194706D01*
X859180Y5196636D01*
X852881Y5197348D01*
X696518Y5197348D01*
X690219Y5196636D01*
X684733Y5194706D01*
X679856Y5191658D01*
X675741Y5187543D01*
X672693Y5182666D01*
X670763Y5177180D01*
X670052Y5170881D01*
X670052Y5014518D01*
X670763Y5008219D01*
X672693Y5002733D01*
X675741Y4997856D01*
X679856Y4993741D01*
X684733Y4990693D01*
X690219Y4988763D01*
G37*
G36*
X5166918Y4988052D02*
G01*
X5323281Y4988052D01*
X5329580Y4988763D01*
X5335066Y4990693D01*
X5339943Y4993741D01*
X5344058Y4997856D01*
X5347106Y5002733D01*
X5349036Y5008219D01*
X5349748Y5014518D01*
X5349748Y5170881D01*
X5349036Y5177180D01*
X5347106Y5182666D01*
X5344058Y5187543D01*
X5339943Y5191658D01*
X5335066Y5194706D01*
X5329580Y5196636D01*
X5323281Y5197348D01*
X5166918Y5197348D01*
X5160619Y5196636D01*
X5155133Y5194706D01*
X5150256Y5191658D01*
X5146141Y5187543D01*
X5143093Y5182666D01*
X5141163Y5177180D01*
X5140452Y5170881D01*
X5140452Y5014518D01*
X5141163Y5008219D01*
X5143093Y5002733D01*
X5146141Y4997856D01*
X5150256Y4993741D01*
X5155133Y4990693D01*
X5160619Y4988763D01*
G37*
G36*
X1490980Y4998821D02*
G01*
X1490980Y5046980D01*
X1442821Y5046980D01*
X1446072Y5040376D01*
X1453692Y5028996D01*
X1462735Y5018735D01*
X1472996Y5009692D01*
X1484376Y5002072D01*
G37*
G36*
X1582420Y4998821D02*
G01*
X1589024Y5002072D01*
X1600403Y5009692D01*
X1610664Y5018735D01*
X1619707Y5028996D01*
X1627327Y5040376D01*
X1630578Y5046980D01*
X1582420Y5046980D01*
G37*
G36*
X1582420Y5138420D02*
G01*
X1630578Y5138420D01*
X1627327Y5145024D01*
X1619707Y5156403D01*
X1610664Y5166664D01*
X1600403Y5175707D01*
X1589024Y5183327D01*
X1582420Y5186578D01*
G37*
G36*
X1442821Y5138420D02*
G01*
X1490980Y5138420D01*
X1490980Y5186578D01*
X1484376Y5183327D01*
X1472996Y5175707D01*
X1462735Y5166664D01*
X1453692Y5156403D01*
X1446072Y5145024D01*
G37*

%LPD*%
G36*
X2300325Y3827119D02*
G01*
X2296414Y3827221D01*
X2292858Y3828796D01*
X2290114Y3831640D01*
X2288692Y3835247D01*
X2287930Y3839260D01*
X2283460Y3853281D01*
X2277313Y3866692D01*
X2269540Y3879240D01*
X2267458Y3881882D01*
X2265680Y3885184D01*
X2265222Y3888943D01*
X2266188Y3892600D01*
X2268423Y3895648D01*
X2271623Y3897680D01*
X2275382Y3898392D01*
X2322068Y3898392D01*
X2326335Y3897426D01*
X2329840Y3894734D01*
X2331872Y3890822D01*
X2332024Y3886403D01*
X2330348Y3882339D01*
X2323795Y3873093D01*
X2316784Y3860088D01*
X2311450Y3846322D01*
X2308555Y3834637D01*
X2306878Y3831132D01*
X2303983Y3828491D01*
G37*

%LPD*%
G36*
X2554325Y3827119D02*
G01*
X2550414Y3827221D01*
X2546858Y3828796D01*
X2544114Y3831640D01*
X2542692Y3835247D01*
X2541930Y3839260D01*
X2537460Y3853281D01*
X2531313Y3866692D01*
X2523540Y3879240D01*
X2521458Y3881882D01*
X2519680Y3885184D01*
X2519222Y3888943D01*
X2520188Y3892600D01*
X2522423Y3895648D01*
X2525623Y3897680D01*
X2529382Y3898392D01*
X2532481Y3898392D01*
X2536393Y3897629D01*
X2539695Y3895394D01*
X2567279Y3867810D01*
X2569464Y3864559D01*
X2570276Y3860800D01*
X2569565Y3856939D01*
X2565450Y3846322D01*
X2562555Y3834637D01*
X2560878Y3831132D01*
X2557983Y3828491D01*
G37*

%LPD*%
G36*
X2046325Y3827119D02*
G01*
X2042414Y3827221D01*
X2038857Y3828796D01*
X2036114Y3831640D01*
X2034692Y3835247D01*
X2033930Y3839260D01*
X2029460Y3853281D01*
X2023313Y3866692D01*
X2015540Y3879240D01*
X2013457Y3881882D01*
X2011680Y3885184D01*
X2011222Y3888943D01*
X2012188Y3892600D01*
X2014423Y3895648D01*
X2017623Y3897680D01*
X2021382Y3898392D01*
X2068068Y3898392D01*
X2072335Y3897426D01*
X2075840Y3894734D01*
X2077872Y3890822D01*
X2078024Y3886403D01*
X2076348Y3882339D01*
X2069795Y3873093D01*
X2062784Y3860088D01*
X2057450Y3846322D01*
X2054555Y3834637D01*
X2052878Y3831132D01*
X2049983Y3828491D01*
G37*

%LPD*%
G36*
X1538325Y3827119D02*
G01*
X1534414Y3827221D01*
X1530858Y3828796D01*
X1528114Y3831640D01*
X1526692Y3835247D01*
X1525930Y3839260D01*
X1521460Y3853281D01*
X1515313Y3866692D01*
X1507540Y3879240D01*
X1505458Y3881882D01*
X1503680Y3885184D01*
X1503222Y3888943D01*
X1504188Y3892600D01*
X1506423Y3895648D01*
X1509623Y3897680D01*
X1513382Y3898392D01*
X1560068Y3898392D01*
X1564335Y3897426D01*
X1567840Y3894734D01*
X1569872Y3890822D01*
X1570024Y3886403D01*
X1568348Y3882339D01*
X1561795Y3873093D01*
X1554784Y3860088D01*
X1549450Y3846322D01*
X1546555Y3834637D01*
X1544878Y3831132D01*
X1541983Y3828491D01*
G37*

%LPD*%
G36*
X1792325Y3827119D02*
G01*
X1788414Y3827221D01*
X1784857Y3828796D01*
X1782114Y3831640D01*
X1780692Y3835247D01*
X1779930Y3839260D01*
X1775460Y3853281D01*
X1769313Y3866692D01*
X1761540Y3879240D01*
X1759457Y3881882D01*
X1757680Y3885184D01*
X1757222Y3888943D01*
X1758188Y3892600D01*
X1760423Y3895648D01*
X1763623Y3897680D01*
X1767382Y3898392D01*
X1814068Y3898392D01*
X1818335Y3897426D01*
X1821840Y3894734D01*
X1823872Y3890822D01*
X1824024Y3886403D01*
X1822348Y3882339D01*
X1815795Y3873093D01*
X1808784Y3860088D01*
X1803450Y3846322D01*
X1800555Y3834637D01*
X1798878Y3831132D01*
X1795983Y3828491D01*
G37*

%LPD*%
G36*
X1284325Y3827119D02*
G01*
X1280414Y3827221D01*
X1276858Y3828796D01*
X1274114Y3831640D01*
X1272692Y3835247D01*
X1271930Y3839260D01*
X1267460Y3853281D01*
X1266037Y3856380D01*
X1265123Y3860342D01*
X1265834Y3864406D01*
X1268120Y3867810D01*
X1295704Y3895394D01*
X1299006Y3897629D01*
X1302918Y3898392D01*
X1306068Y3898392D01*
X1310335Y3897426D01*
X1313840Y3894734D01*
X1315872Y3890822D01*
X1316024Y3886403D01*
X1314348Y3882339D01*
X1307795Y3873093D01*
X1300784Y3860088D01*
X1295450Y3846322D01*
X1292555Y3834637D01*
X1290878Y3831132D01*
X1287983Y3828491D01*
G37*

%LPD*%
G36*
X2783332Y3721608D02*
G01*
X2779623Y3722319D01*
X2776423Y3724351D01*
X2774188Y3727399D01*
X2773222Y3731056D01*
X2773680Y3734815D01*
X2775458Y3738118D01*
X2777540Y3740759D01*
X2785313Y3753307D01*
X2791460Y3766718D01*
X2795930Y3780790D01*
X2796692Y3784752D01*
X2798114Y3788359D01*
X2800858Y3791204D01*
X2804414Y3792778D01*
X2808325Y3792880D01*
X2811983Y3791559D01*
X2814878Y3788867D01*
X2816555Y3785362D01*
X2819450Y3773678D01*
X2823565Y3763060D01*
X2824276Y3759200D01*
X2823464Y3755440D01*
X2821279Y3752189D01*
X2793695Y3724605D01*
X2790393Y3722370D01*
X2786481Y3721608D01*
G37*

%LPD*%
G36*
X2529332Y3721608D02*
G01*
X2525623Y3722319D01*
X2522423Y3724351D01*
X2520188Y3727399D01*
X2519222Y3731056D01*
X2519680Y3734815D01*
X2521458Y3738118D01*
X2523540Y3740759D01*
X2531313Y3753307D01*
X2537460Y3766718D01*
X2541930Y3780790D01*
X2542692Y3784752D01*
X2544114Y3788359D01*
X2546858Y3791204D01*
X2550414Y3792778D01*
X2554325Y3792880D01*
X2557983Y3791559D01*
X2560878Y3788867D01*
X2562555Y3785362D01*
X2565450Y3773678D01*
X2570784Y3759911D01*
X2577795Y3746906D01*
X2584348Y3737660D01*
X2586024Y3733596D01*
X2585872Y3729177D01*
X2583840Y3725265D01*
X2580335Y3722573D01*
X2576068Y3721608D01*
G37*

%LPD*%
G36*
X3616756Y2379522D02*
G01*
X3613099Y2380488D01*
X3610051Y2382723D01*
X3608019Y2385923D01*
X3607308Y2389682D01*
X3607308Y3706114D01*
X3608222Y3710381D01*
X3610864Y3713835D01*
X3614674Y3715918D01*
X3619042Y3716172D01*
X3623056Y3714597D01*
X3635756Y3706215D01*
X3648964Y3699611D01*
X3662883Y3694734D01*
X3677310Y3691534D01*
X3691991Y3690213D01*
X3706774Y3690620D01*
X3721354Y3692906D01*
X3735527Y3696970D01*
X3749141Y3702710D01*
X3761892Y3710076D01*
X3767785Y3714546D01*
X3771900Y3716375D01*
X3776370Y3716274D01*
X3780332Y3714292D01*
X3783126Y3710787D01*
X3784092Y3706418D01*
X3784092Y2389682D01*
X3783380Y2385923D01*
X3781348Y2382723D01*
X3778300Y2380488D01*
X3774643Y2379522D01*
X3770884Y2379980D01*
X3767582Y2381758D01*
X3764940Y2383840D01*
X3752392Y2391613D01*
X3738981Y2397760D01*
X3724960Y2402230D01*
X3710432Y2404973D01*
X3695700Y2405888D01*
X3680968Y2404973D01*
X3666439Y2402230D01*
X3652418Y2397760D01*
X3639007Y2391613D01*
X3626459Y2383840D01*
X3623818Y2381758D01*
X3620515Y2379980D01*
G37*

%LPD*%
G36*
X3362756Y2379522D02*
G01*
X3359099Y2380488D01*
X3356051Y2382723D01*
X3354019Y2385923D01*
X3353308Y2389682D01*
X3353308Y3706114D01*
X3354222Y3710381D01*
X3356864Y3713835D01*
X3360674Y3715918D01*
X3365042Y3716172D01*
X3369056Y3714597D01*
X3381756Y3706215D01*
X3394964Y3699611D01*
X3408883Y3694734D01*
X3423310Y3691534D01*
X3437991Y3690213D01*
X3452774Y3690620D01*
X3467354Y3692906D01*
X3481527Y3696970D01*
X3495141Y3702710D01*
X3507892Y3710076D01*
X3513785Y3714546D01*
X3517900Y3716375D01*
X3522370Y3716274D01*
X3526332Y3714292D01*
X3529126Y3710787D01*
X3530092Y3706418D01*
X3530092Y2389682D01*
X3529380Y2385923D01*
X3527348Y2382723D01*
X3524300Y2380488D01*
X3520643Y2379522D01*
X3516884Y2379980D01*
X3513582Y2381758D01*
X3510940Y2383840D01*
X3498392Y2391613D01*
X3484981Y2397760D01*
X3470960Y2402230D01*
X3456432Y2404973D01*
X3441700Y2405888D01*
X3426968Y2404973D01*
X3412439Y2402230D01*
X3398418Y2397760D01*
X3385007Y2391613D01*
X3372459Y2383840D01*
X3369818Y2381758D01*
X3366515Y2379980D01*
G37*

%LPD*%
G36*
X2092756Y2379522D02*
G01*
X2089099Y2380488D01*
X2086051Y2382723D01*
X2084019Y2385923D01*
X2083307Y2389682D01*
X2083307Y3662781D01*
X2084070Y3666693D01*
X2086305Y3669995D01*
X2113737Y3697478D01*
X2116886Y3699611D01*
X2120595Y3700424D01*
X2124303Y3699865D01*
X2138883Y3694684D01*
X2153310Y3691534D01*
X2167991Y3690213D01*
X2182774Y3690620D01*
X2197354Y3692906D01*
X2211527Y3696970D01*
X2225141Y3702710D01*
X2237892Y3710076D01*
X2249678Y3718966D01*
X2260295Y3729228D01*
X2269540Y3740759D01*
X2277313Y3753307D01*
X2283460Y3766718D01*
X2287930Y3780790D01*
X2288692Y3784752D01*
X2290114Y3788359D01*
X2292858Y3791204D01*
X2296414Y3792778D01*
X2300325Y3792880D01*
X2303983Y3791559D01*
X2306878Y3788867D01*
X2308555Y3785362D01*
X2311450Y3773678D01*
X2316784Y3759911D01*
X2323795Y3746906D01*
X2330348Y3737660D01*
X2332024Y3733596D01*
X2331872Y3729177D01*
X2329840Y3725265D01*
X2326335Y3722573D01*
X2322068Y3721608D01*
X2299208Y3721608D01*
X2291181Y3720795D01*
X2283968Y3718610D01*
X2277262Y3715054D01*
X2271064Y3709924D01*
X2157476Y3596335D01*
X2152345Y3590137D01*
X2148789Y3583432D01*
X2146604Y3576218D01*
X2145792Y3568192D01*
X2145792Y2502408D01*
X2146604Y2494381D01*
X2148789Y2487168D01*
X2152345Y2480462D01*
X2157476Y2474264D01*
X2213203Y2418486D01*
X2215642Y2414676D01*
X2216150Y2410256D01*
X2214727Y2405989D01*
X2211628Y2402789D01*
X2207412Y2401214D01*
X2202942Y2401620D01*
X2200960Y2402230D01*
X2186432Y2404973D01*
X2171700Y2405888D01*
X2156968Y2404973D01*
X2142439Y2402230D01*
X2128418Y2397760D01*
X2115007Y2391613D01*
X2102459Y2383840D01*
X2099818Y2381758D01*
X2096516Y2379980D01*
G37*

%LPD*%
G36*
X1838756Y2379522D02*
G01*
X1835099Y2380488D01*
X1832051Y2382723D01*
X1830019Y2385923D01*
X1829307Y2389682D01*
X1829307Y3662781D01*
X1830070Y3666693D01*
X1832305Y3669995D01*
X1859737Y3697478D01*
X1862886Y3699611D01*
X1866595Y3700424D01*
X1870303Y3699865D01*
X1884883Y3694684D01*
X1899310Y3691534D01*
X1913991Y3690213D01*
X1928774Y3690620D01*
X1943354Y3692906D01*
X1957527Y3696970D01*
X1971141Y3702710D01*
X1983892Y3710076D01*
X1995678Y3718966D01*
X2006295Y3729228D01*
X2015540Y3740759D01*
X2023313Y3753307D01*
X2029460Y3766718D01*
X2033930Y3780790D01*
X2034692Y3784752D01*
X2036114Y3788359D01*
X2038857Y3791204D01*
X2042414Y3792778D01*
X2046325Y3792880D01*
X2049983Y3791559D01*
X2052878Y3788867D01*
X2054555Y3785362D01*
X2057450Y3773678D01*
X2061565Y3763060D01*
X2062276Y3759200D01*
X2061464Y3755440D01*
X2059279Y3752189D01*
X2017775Y3710635D01*
X2012645Y3704437D01*
X2009089Y3697732D01*
X2006904Y3690518D01*
X2006092Y3682492D01*
X2006092Y2389682D01*
X2005380Y2385923D01*
X2003348Y2382723D01*
X2000300Y2380488D01*
X1996643Y2379522D01*
X1992884Y2379980D01*
X1989582Y2381758D01*
X1986940Y2383840D01*
X1974392Y2391613D01*
X1960981Y2397760D01*
X1946960Y2402230D01*
X1932432Y2404973D01*
X1917700Y2405888D01*
X1902968Y2404973D01*
X1888439Y2402230D01*
X1874418Y2397760D01*
X1861007Y2391613D01*
X1848459Y2383840D01*
X1845818Y2381758D01*
X1842516Y2379980D01*
G37*

%LPD*%
G36*
X2249932Y1624685D02*
G01*
X2246020Y1625447D01*
X2242210Y1628190D01*
X2237282Y1631289D01*
X2231847Y1633220D01*
X2225497Y1633931D01*
X2189784Y1633931D01*
X2185873Y1634693D01*
X2182622Y1636877D01*
X2180386Y1640179D01*
X2179624Y1644091D01*
X2179828Y2138172D01*
X2179066Y2146198D01*
X2176627Y2154072D01*
X2176322Y2158441D01*
X2177846Y2162556D01*
X2180996Y2165654D01*
X2185111Y2167128D01*
X2193747Y2168194D01*
X2208022Y2171750D01*
X2221788Y2177084D01*
X2234793Y2184095D01*
X2244039Y2190648D01*
X2248103Y2192324D01*
X2252522Y2192172D01*
X2256434Y2190140D01*
X2259126Y2186635D01*
X2260092Y2182368D01*
X2260092Y1634845D01*
X2259330Y1630984D01*
X2257094Y1627682D01*
X2253843Y1625447D01*
G37*

%LPD*%
G36*
X3748633Y1612950D02*
G01*
X3744772Y1613662D01*
X3741470Y1615795D01*
X3736949Y1620113D01*
X3725570Y1628648D01*
X3713226Y1635607D01*
X3700018Y1640941D01*
X3686301Y1644548D01*
X3672179Y1646377D01*
X3658006Y1646377D01*
X3643884Y1644548D01*
X3630168Y1640941D01*
X3616960Y1635607D01*
X3604615Y1628648D01*
X3598164Y1623822D01*
X3594049Y1621993D01*
X3589629Y1622094D01*
X3585616Y1624076D01*
X3582873Y1627632D01*
X3581908Y1631950D01*
X3581908Y2189581D01*
X3582670Y2193493D01*
X3584905Y2196795D01*
X3593134Y2205024D01*
X3596589Y2207310D01*
X3600704Y2207971D01*
X3604717Y2207006D01*
X3608019Y2204466D01*
X3609644Y2202535D01*
X3620566Y2192629D01*
X3632606Y2184095D01*
X3645611Y2177084D01*
X3659378Y2171750D01*
X3673652Y2168194D01*
X3688334Y2166366D01*
X3703065Y2166366D01*
X3717747Y2168194D01*
X3732022Y2171750D01*
X3744874Y2176729D01*
X3748735Y2177440D01*
X3752545Y2176576D01*
X3755796Y2174392D01*
X3757929Y2171090D01*
X3758692Y2167280D01*
X3758692Y1623060D01*
X3757929Y1619199D01*
X3755745Y1615948D01*
X3752494Y1613712D01*
G37*

%LPD*%
G36*
X3325266Y1610715D02*
G01*
X3321405Y1611528D01*
X3318154Y1613712D01*
X3315970Y1617014D01*
X3315208Y1620875D01*
X3315208Y2176881D01*
X3315970Y2180793D01*
X3318205Y2184095D01*
X3339134Y2205024D01*
X3342589Y2207310D01*
X3346704Y2207971D01*
X3350717Y2207006D01*
X3354019Y2204466D01*
X3355644Y2202535D01*
X3366566Y2192629D01*
X3378606Y2184095D01*
X3391611Y2177084D01*
X3405378Y2171750D01*
X3419652Y2168194D01*
X3434334Y2166366D01*
X3449065Y2166366D01*
X3463747Y2168194D01*
X3478022Y2171750D01*
X3490874Y2176729D01*
X3494735Y2177440D01*
X3498545Y2176576D01*
X3501796Y2174392D01*
X3503929Y2171090D01*
X3504692Y2167280D01*
X3504692Y1623060D01*
X3503929Y1619199D01*
X3501745Y1615948D01*
X3498494Y1613712D01*
X3494633Y1612950D01*
X3490772Y1613662D01*
X3487470Y1615795D01*
X3482949Y1620113D01*
X3471570Y1628648D01*
X3459226Y1635607D01*
X3446018Y1640941D01*
X3432301Y1644548D01*
X3418179Y1646377D01*
X3404006Y1646377D01*
X3389884Y1644548D01*
X3376168Y1640941D01*
X3362960Y1635607D01*
X3350615Y1628648D01*
X3339236Y1620113D01*
X3332429Y1613560D01*
X3329127Y1611426D01*
G37*

%LPD*%
G36*
X2020011Y1448968D02*
G01*
X2016150Y1449730D01*
X2012848Y1451914D01*
X1992579Y1472133D01*
X1990445Y1475333D01*
X1989582Y1479042D01*
X1990242Y1482852D01*
X1993392Y1491437D01*
X1996541Y1505305D01*
X1997913Y1519428D01*
X1997456Y1533652D01*
X1995220Y1547672D01*
X1991156Y1561287D01*
X1985416Y1574292D01*
X1978050Y1586433D01*
X1969160Y1597558D01*
X1958949Y1607413D01*
X1947570Y1615948D01*
X1935225Y1622907D01*
X1922018Y1628241D01*
X1908302Y1631848D01*
X1894179Y1633677D01*
X1880006Y1633677D01*
X1865884Y1631848D01*
X1852168Y1628241D01*
X1838960Y1622907D01*
X1826615Y1615948D01*
X1815236Y1607413D01*
X1808429Y1600860D01*
X1805127Y1598726D01*
X1801266Y1598015D01*
X1797405Y1598828D01*
X1794154Y1601012D01*
X1791970Y1604314D01*
X1791207Y1608175D01*
X1791207Y2176881D01*
X1791970Y2180793D01*
X1794205Y2184095D01*
X1815134Y2205024D01*
X1818589Y2207310D01*
X1822704Y2207971D01*
X1826717Y2207006D01*
X1830019Y2204466D01*
X1831644Y2202535D01*
X1842566Y2192629D01*
X1854606Y2184095D01*
X1867611Y2177084D01*
X1881378Y2171750D01*
X1895652Y2168194D01*
X1910334Y2166366D01*
X1925066Y2166366D01*
X1939747Y2168194D01*
X1954022Y2171750D01*
X1967788Y2177084D01*
X1980793Y2184095D01*
X1992833Y2192629D01*
X2003755Y2202535D01*
X2005380Y2204466D01*
X2008682Y2207006D01*
X2012696Y2207971D01*
X2016810Y2207310D01*
X2020265Y2205024D01*
X2099614Y2125675D01*
X2101850Y2122373D01*
X2102612Y2118461D01*
X2102408Y1644040D01*
X2101646Y1640179D01*
X2099411Y1636877D01*
X2096109Y1634693D01*
X2092248Y1633931D01*
X2056688Y1633931D01*
X2050338Y1633220D01*
X2044903Y1631289D01*
X2039975Y1628190D01*
X2035911Y1624126D01*
X2032812Y1619199D01*
X2030882Y1613763D01*
X2030171Y1607413D01*
X2030171Y1459128D01*
X2029409Y1455216D01*
X2027224Y1451914D01*
X2023922Y1449730D01*
G37*

%LPD*%
G36*
X2741930Y3543300D02*
G01*
X2411780Y2740609D01*
X2410561Y2740609D01*
X2271318Y2782417D01*
X2270658Y2781858D01*
X2222500Y2637434D01*
X2223363Y2636621D01*
X2526182Y2543708D01*
X2528316Y2543302D01*
X2722473Y3017266D01*
X3018434Y2594864D01*
X3222498Y2594813D01*
X2807411Y3216910D01*
X2863138Y3383279D01*
X2999130Y3383534D01*
X2999130Y3543300D01*
G37*
D10*
X1886965Y1522984D02*
G01*
X2000504Y1409700D01*
X2247900Y1409700D01*
X2298700Y1460500D01*
X2298700Y2387600D01*
X2184400Y2501900D01*
X2184400Y3568700D01*
X2298700Y3683000D01*
X2806700Y3683000D01*
X2933700Y3810000D01*
X2298700Y5092700D02*
G01*
X3314700Y4076700D01*
X3314700Y2235200D01*
X3276600Y2197100D01*
X3276600Y1485900D01*
X3156965Y1366265D01*
X3156965Y775715D01*
X3410965Y775715D02*
G01*
X3410965Y1366265D01*
X3543300Y1498600D01*
X3543300Y2209800D01*
X3568700Y2235200D01*
X3568700Y4076700D01*
X2552700Y5092700D01*
X3918965Y775715D02*
G01*
X3918965Y1364234D01*
X3797300Y1485900D01*
X3797300Y2209800D01*
X3822700Y2235200D01*
X3822700Y4076700D01*
X2806700Y5092700D01*
X1886965Y763015D02*
G01*
X1886965Y1351534D01*
X1752600Y1485900D01*
X1752600Y2197100D01*
X1790700Y2235200D01*
X1790700Y3683000D01*
X1917700Y3810000D01*
X2140965Y1522984D02*
G01*
X2141220Y2138679D01*
X2044700Y2235200D01*
X2044700Y3683000D01*
X2171700Y3810000D01*
X1155700Y3810000D02*
G01*
X1282700Y3937000D01*
X2552700Y3937000D01*
X2679700Y3810000D01*
X2141093Y762985D02*
G01*
X2141093Y322706D01*
X2197100Y266700D01*
D11*
G01*
X1155700Y2286000D03*
G01*
X1409700Y2286000D03*
G01*
X1663700Y2286000D03*
G01*
X1917700Y2286000D03*
G01*
X2171700Y2286000D03*
G01*
X2425700Y2286000D03*
G01*
X2679700Y2286000D03*
G01*
X2933700Y2286000D03*
G01*
X3187700Y2286000D03*
G01*
X3441700Y2286000D03*
G01*
X3695700Y2286000D03*
G01*
X3949700Y2286000D03*
G01*
X4203700Y2286000D03*
G01*
X4457700Y2286000D03*
G01*
X4457700Y3810000D03*
G01*
X4203700Y3810000D03*
G01*
X3695700Y3810000D03*
G01*
X3441700Y3810000D03*
G01*
X3187700Y3810000D03*
G01*
X2933700Y3810000D03*
G01*
X2679700Y3810000D03*
G01*
X2425700Y3810000D03*
G01*
X2171700Y3810000D03*
G01*
X1917700Y3810000D03*
G01*
X1663700Y3810000D03*
G01*
X1409700Y3810000D03*
G01*
X1155700Y3810000D03*
G01*
X3949700Y3810000D03*
D12*
G01*
X5245100Y5092700D03*
D13*
G01*
X4991100Y5092700D03*
G01*
X4737100Y5092700D03*
G01*
X4483100Y5092700D03*
G01*
X4229100Y5092700D03*
G01*
X3975100Y5092700D03*
G01*
X3721100Y5092700D03*
G01*
X3467100Y5092700D03*
G01*
X3060700Y5092700D03*
G01*
X2806700Y5092700D03*
G01*
X2552700Y5092700D03*
G01*
X2298700Y5092700D03*
G01*
X2044700Y5092700D03*
G01*
X1790700Y5092700D03*
G01*
X1536700Y5092700D03*
G01*
X1282700Y5092700D03*
G01*
X1028700Y5092700D03*
D12*
G01*
X774700Y5092700D03*
D13*
G01*
X5245100Y266700D03*
G01*
X4991100Y266700D03*
G01*
X4737100Y266700D03*
G01*
X4483100Y266700D03*
G01*
X4229100Y266700D03*
D12*
G01*
X3975100Y266700D03*
G01*
X1689100Y266700D03*
D13*
G01*
X1943100Y266700D03*
G01*
X2197100Y266700D03*
G01*
X2451100Y266700D03*
G01*
X2705100Y266700D03*
G01*
X2959100Y266700D03*
G01*
X3213100Y266700D03*
G01*
X3467100Y266700D03*
D14*
G01*
X4427093Y1535704D03*
D15*
G01*
X4173093Y1535704D03*
G01*
X2903093Y1535704D03*
G01*
X2649093Y1535704D03*
G01*
X3919093Y1535704D03*
G01*
X3665093Y1535704D03*
G01*
X3157093Y1535704D03*
G01*
X3411093Y1535704D03*
G01*
X2649093Y775685D03*
G01*
X2903093Y775685D03*
G01*
X3157093Y775685D03*
G01*
X3411093Y775685D03*
G01*
X3665093Y775685D03*
G01*
X3919093Y775685D03*
G01*
X4173093Y775685D03*
G01*
X4427093Y775685D03*
D14*
G01*
X2141093Y1523004D03*
D15*
G01*
X1887093Y1523004D03*
G01*
X617093Y1523004D03*
G01*
X363093Y1523004D03*
G01*
X1633093Y1523004D03*
G01*
X1379093Y1523004D03*
G01*
X871093Y1523004D03*
G01*
X1125093Y1523004D03*
G01*
X363093Y762985D03*
G01*
X617093Y762985D03*
G01*
X871093Y762985D03*
G01*
X1125093Y762985D03*
G01*
X1379093Y762985D03*
G01*
X1633093Y762985D03*
G01*
X1887093Y762985D03*
G01*
X2141093Y762985D03*
M02*
